<mxfile host="app.diagrams.net" agent="Mozilla/5.0 (Windows NT 10.0; Win64; x64) AppleWebKit/537.36 (KHTML, like Gecko) Chrome/138.0.0.0 Safari/537.36" version="28.0.5">
  <diagram name="Pagina-1" id="CyXjDIdIEqvs4YfAHCDp">
    <mxGraphModel dx="906" dy="458" grid="1" gridSize="10" guides="1" tooltips="1" connect="1" arrows="1" fold="1" page="1" pageScale="1" pageWidth="2339" pageHeight="3300" math="0" shadow="0">
      <root>
        <mxCell id="0" />
        <mxCell id="1" parent="0" />
        <mxCell id="quSnQ69y9P9mMpLwy6SE-1" value="Artista&lt;div&gt;&lt;br&gt;&lt;/div&gt;" style="shape=umlActor;verticalLabelPosition=bottom;verticalAlign=top;html=1;outlineConnect=0;" parent="1" vertex="1">
          <mxGeometry x="390" y="220" width="30" height="60" as="geometry" />
        </mxCell>
        <mxCell id="quSnQ69y9P9mMpLwy6SE-6" value="" style="endArrow=classic;html=1;rounded=0;" parent="1" source="quSnQ69y9P9mMpLwy6SE-1" edge="1">
          <mxGeometry width="50" height="50" relative="1" as="geometry">
            <mxPoint x="510" y="300" as="sourcePoint" />
            <mxPoint x="280" y="250" as="targetPoint" />
          </mxGeometry>
        </mxCell>
        <mxCell id="quSnQ69y9P9mMpLwy6SE-8" value="utilizza" style="text;html=1;align=center;verticalAlign=middle;whiteSpace=wrap;rounded=0;fontFamily=Times New Roman;" parent="1" vertex="1">
          <mxGeometry x="310" y="223" width="60" height="30" as="geometry" />
        </mxCell>
        <mxCell id="quSnQ69y9P9mMpLwy6SE-218" value="" style="group" parent="1" vertex="1" connectable="0">
          <mxGeometry x="110" y="215" width="160" height="70" as="geometry" />
        </mxCell>
        <mxCell id="quSnQ69y9P9mMpLwy6SE-9" value="" style="rounded=1;whiteSpace=wrap;html=1;" parent="quSnQ69y9P9mMpLwy6SE-218" vertex="1">
          <mxGeometry width="160" height="70" as="geometry" />
        </mxCell>
        <mxCell id="quSnQ69y9P9mMpLwy6SE-217" value="" style="shape=image;verticalLabelPosition=bottom;labelBackgroundColor=default;verticalAlign=top;aspect=fixed;imageAspect=0;image=data:image/png,iVBORw0KGgoAAAANSUhEUgAABLAAAAHXCAYAAACs6KOKAAAAAXNSR0IArs4c6QAAIABJREFUeF7snQe0LEXVtssAiCJIDpKTBAmScw6iklSCBAERFJCoiGQkRwFJEgQlCEgSJClBRBAkI5K5CEgGBZUgGPjXU/+3Z9Vt5tye2adnurrv22vddc4901VT9VR1ddVbe+/6wHvvvfde0CUCIiACIiACIiACIiACIiACIiACIiACIiACmRL4gASsTFtGxRIBERABERABERABERABERABERABERABEYgEJGCpI4iACIiACIiACIiACIiACIiACIiACIiACGRNQAJW1s2jwomACIiACIiACIiACIiACIiACIiACIiACEjAUh8QAREQAREQAREQAREQAREQAREQAREQARHImoAErKybR4UTAREQAREQAREQAREQAREQAREQAREQARGQgKU+IAIiIAIiIAIiIAIiIAIiIAIiIAIiIAIikDUBCVhZN48KJwIiIAIiIAIiIAIiIAIiIAIiIAIiIAIiIAFLfUAEREAEREAEREAEREAEREAEREAEREAERCBrAhKwsm4eFU4EREAEREAEREAEREAEREAEREAEREAEREAClvqACIiACIiACIiACIiACIiACIiACIiACIhA1gQkYGXdPCqcCIiACIiACIiACIiACIiACIiACIiACIiABCz1AREQAREQAREQAREQAREQAREQAREQAREQgawJSMDKunlUOBEQARFoNoH//e9/4b333ouV+OAHPxh/8n9+5+cHPvCB0gpy30j3Wl58D3ml99n/7Z7SLyq5wfK27+L2Xso/2u9VehEQAREQAREQAREQAREQgRAkYKkXiIAIiIAIDIyAiVf2Ben/PSKWpUnzM6Eq/czEpqKoNdqK/uc//wkf+tCHxhLiRpun0ouACIiACIiACIiACIiACJQTkIBVzkh3iIAIiIAIOAlsvvnm4aabbgrPPfdcmH766cMqq6wSzj777Gi5hBj04Q9/uDRnE71I8+6778Y0/H7mmWeGM844I9x+++1h0kknDYsttli0wHrqqafCZpttFrbddtsw44wz9mzpVVaQ//73v9FyjO9Ofy9Lp89FQAREQAREQAREQAREQARGT0AC1ugZKgcREAEREIERCCBSXX755WGDDTaIgtOWW24ZRagJJ5ywZ2YmYJHXo48+GmaYYYYoWGEJ9eabb4bZZ589LLDAAuGGG26IYtXzzz8fFl100TDFFFOEe++9N35XVa5+//73v6OIdcghh4T99tuv5zroRhEQAREQAREQAREQAREQgdERkIA1On5KLQIiIAIiUELg0ksvDV/60pfCtddeG9ZYY42OmGTCVDG+VSo2pdZXiEcLLbRQ+O1vfxummmqq+K38bZFFFglTTjlltPQyl8Fvfetb4eSTTw6XXXZZWG+99aLFlLn+WXHtb8S04p99bt/Pd3OPWYlZLK477rgjHHTQQeGXv/xl/L70/qqEMnUqERABERABERABERABERCBsQlIwFKPEAEREAERGCiBooCFWGSuePa7BUY3AYoCpcHe+fy73/1uOP7448OLL74YratMYMLaavLJJw8333xzJ2D8N7/5zeheeNVVV4XPfvaznXvT7zXxycSrNFi8fbdZXNm9f/7zn8NSSy0VFl988ShgpXG3JF4NtBspcxEQAREQAREQAREQgfGcgASs8bwDqPoiIAIiMGgCqYC12mqrhfPOOy+cdNJJ4bHHHosi0K677hruv//+MMccc0Q3wKOPPjpcdNFF4YUXXghbbLFFFKJefvnlcMEFF8R7L7zwwjDNNNOEZZddNlpILbHEEtEC67rrrouWVMTA4rN55503/OpXvwoTTTRRrCKf3XrrreG0004LX/nKV8Kdd94Zv+enP/1ptOIy0WyvvfYKk002WVhwwQXDscceG9Pz3ZNMMknA+uob3/hGmHjiicOBBx4Y76EsXKk11qCZKn8REAEREAEREAEREAERGN8ISMAa31pc9RUBERCBIRMoWmDx9bvvvnu0prrxxhujRdNLL70U5p9//rD22muHfffdN8w999xR6CJm1kMPPRTFrbvvvjsss8wyUdhCsDJRauGFFw7/+Mc/wrrrrhvzeeCBB8IOO+wQNt1002iZhciFRdXrr78e5ptvvihizTnnnDH94YcfHg499NDw5JNPRrfEgw8+OIppP//5z6Mg9fbbb4e55porrLzyyuGss86K7oQrrrhizPcXv/hFR7gqukEOGbG+TgREQAREQAREQAREQARaT0ACVuubWBUUAREQgeESSONW8c2XXHJJ+PKXvxxjYK255pqxMEcccUT4/ve/H8UorJ1w1eMUwXnmmSdaWJHHmDFjohXV9ddfH0Wj3//+92G55ZaLaaaeeuqYD4HdsZ7CCgoLrNVXXz3cc889UaRCrDJXQO7dZZddwjXXXBP++Mc/RqsqhC3cEWeeeeaw//77RxdFgsETP2unnXaK+ZP+yCOPDFhlIaR96lOfimVAwMJ6LI2dJRFruP1M3yYCIiACIiACIiACIjB+EZCANX61t2orAiIgAgMjYAKOxbVCIMKKCUslBCzEIwQm4kYdddRRUTRCQMI1j3sRonDJO/fcc2MZsYpC0Lr66qtjuttuuy26Bj733HNhuummi+KSCV/ExCK4+xtvvBGFK0SpK6+8MnziE5+IIhP3EiuLn7gOTjDBBPF37kcMW3/99cMJJ5wQZp111li27bbbLpaB8hNba6WVVoqi2NJLLx3FNMpM/qmAZfUeGGBlLAIiIAIiIAIiIAIiIALjMQEJWONx46vqIiACIlA1AQvGbuIPIhGWSrj3YUm1yiqrRKupH/7wh2GfffaJ1lSITPyNwOgIVrgOku7pp5+O/yeOFaIRwhMCEqKXuRByHy6E0047bYyfxYWlF9+3/fbbRzHKThdEBLv99tvDM888Ey2ouHAR5PtxW9x5553DbLPNFl0PKZ8Fdcdii7Lhmog74QorrBC/H2EOMY4rDUJfNVPlJwIiIAIiIAIiIAIiIAIiEIIELPUCERABERCBygggRBEninhTiEpYUWG5hEXTI488Ek8PRPQhOPr3vve98Morr4RJJ500CkCIRLgMImBxIWAhGCFIIXwRA4t7nn/++Riviu955513Yuws8iXAOhfWXHvuuWc45phjwvnnnx822GCDaEllAhgB2bEIQ6AiOPxMM80U80TU4l6+5+GHHw4f/ehHo7B28sknhyuuuCIKaeTDqYb85P9WX8rPZYJWZUCVkQiIgAiIgAiIgAiIgAiIQCQgAUsdQQREQAREoDICFv8KN79ZZpklCkIETMeSapNNNokCD6IPpxHimvf444/HAO1YRSFEcS8xrBCIcCXkFELErh133DEGaJ9++umjqEXg9zPPPDOKUlhEEUcLwetjH/tYFMNwLVx++eVjQHbEM2JuEffqsMMOi0Hbcf/DZXGjjTaKsa+w8OI7Ed7WWGON8PGPfzxcfvnlUYDbbLPNovUYcbYQx/bee+9w3HHHRXfHH//4xzFuFpdcCCvrRspIBERABERABERABERABN5HQAKWOoUIiIAIiEBlBEzAQqTC4gp3P+JKzT777B3rJEQlLK8QjLgfIem+++6LAlDcWQkhzDX33DG93YNl1gwzzBADqZMWV8Jnn302ilbcg7CEqyDuhFhSIZQhomFJxedYaxE/i3sQpfjH3xCfcAfkfspi4hci2ptvvhmtwygfn5OWe/g71l5YmFEus7pSEPfKupEyEgEREAEREAEREAEREAEJWOoDIiACIiACgyPQLQZW+m0mcCH6mOhksaZMCLLg7/zf8rPTBPnMxCb+hqhklk8mQBXd+BCw0nsoT1Fs4h77exkduze9P/1bWXp9LgIiIAIiIAIiIAIiIAIi0D8BWWD1z0wpREAEREAEuhAwccrEJhOmuok7ZlllQlIqKJmwxVfYffY7P1NRy/5OGi4ELbPI4mdqWZWWg99TYSsV3qxqaZmsHCaEpWnVGURABERABERABERABERABAZPQALW4BnrG0RABERgvCDQTbBKLZuKv6eCV/qZWWfxMxWwgIhQhetf8dS/ooUV9+LGOMEEE3Rln8arMquuoliW3mNltXIWv08WWONFF1clRUAEREAEREAEREAEaiQgAatG+PpqERABERABERABERABERABERABERABERCBcgISsMoZ6Q4REAEREAEREAEREAEREAEREAEREAEREIEaCUjAqhG+vloEREAEREAEREAEREAEREAEREAEREAERKCcgASscka6QwREQAREQAREQAREQAREQAREQAREQAREoEYCErBqhD/MryYA8fnnnx+Pjs/lSoM2v/LKK2HqqafOpWid08ko46uvvhqmnHLK+Lfcrr/+9a9hwgknDJNOOmksWk7tSwDtd955J0wyySRjnQqXC8PXXnstTD755O8LEl53+QgO/vTTT4fZZpsttmdu/e7ZZ58NM844Y5Zle+aZZ8JMM82UFTMLDP+3v/0tjiM5PaPW1//xj3+Ej33sY/EEx1wu4/b3v/89BuznWc3lshMoKRflm2KKKXIpWmc8S99duRTOTifl3fDcc8+FmWeeeaxnNZdnw8Y4e6fmNAbD6Etf+lL4yEc+ktU4l0sfUzlEQAREQATaT0ACVsvb2BbAnLK10korhaOPPjqbBZSdWEYTHH744WGvvfbKsjXOPffcsMkmmwRORMvhYjLNAoDF5s9+9rOw9NJLh1lmmSWWj79zQlsO10svvRTL88lPfrLT53JZCCCswW7LLbfsoMqlbP/85z/DQQcdFA499NBs2tIg8cyeccYZYZtttslOwKJsPKc8r7kJMQgdP/rRj8I3v/nNiDKXvmbvh6uvvjosu+yyYbLJJsth6IhlsFMmr7322jiGLLjgglmULRWV33777fDUU0+FeeedN4uymehnZfzBD34Qdtttt2yeVdrURKGdd945nHjiifFUUZ7XnMR6yrXjjjvGMvFetXLn0MjHHHNMOP300zvPai5jSQ5sVAYREAEREIHxg4AErPGgnW1Xc7XVVgu//vWvs1nc2QKFJvjqV78azjnnnKxawybUe+yxRzjkkEOyExMQhw477LCwyiqrRBHLFn25CFgs7F588cWw5JJLZrVopzBvvfVWFHP322+/zoIql4UAVnXrr79+uPHGG2Ofy2lhx2Jzu+22C6eeemo2IowNGowns88+e3j44Yezsk6w9vve974Xn9dc+pkJCfw8/vjjw6abbhqmmmqqbMpHeyIenHbaaWHaaacN6667bjbvB9qU8r355pvh+uuvD1/84hezKFv6TqVAiDCIMTmMIWnZ3n333bDUUkuFu+66qyNe5STsbr755uHss8+ObZyTGA6jjTfeOJxyyinRItGekSw6nwohAiIgAiIgAkMiIAFrSKDr/BoTsFZcccVw0003ZWNJlDJhwpibgGXWTLkJWNaeLIT333//gDC5zDLLRJw5TbYRsHCb+sxnPtNxyczFio2FJzvZ++67bzYLdnseYMaCmGc1h4Vn+pxSnq233jpaYeXSlibE8DyYgIXwl9OzQBkZR7A0zWmhbuyOO+64wBick6u0WegiYOGy+oUvfKHO1+hY320WOQjh1113XRScc7nS98MOO+wQBawc+lzRcg2Lv7vvvjuLshXbLhWwcnuvbrjhhtECi7ABOYnhufR/lUMEREAERKD9BCRgtb+NYw2ZPOJCiFVHbgs7yrbVVluFM888M5tFsS1QmCBiOZGTBVbqJnjggQfGdl1hhRWyEzuI40QsERYqqciQwyP3xhtvBBbte++9d3aLAASsddZZJ9x8882xbDktUnhWt91222iBxZWTiMUzS9ywRx55JEw88cQ5dLNOv4cbLtK4hebELHU1Y9GeUxxCKxuLdcq13nrrZdWmFIZxBKtmYhLlcJlFDuywlsR9EOu6nMYQyvjvf/87Wg3fc8892b0bKBCu5TYfoawTTDBBDs0by4AFFqIk1pK6REAEREAERGB8JCABazxqdSywfvOb32SzgEp3inEhxGQ/x2v33XePrj+5uOaljIiVhIC1/PLLZ4cOCyziYOFCmJslEZYTZoGVGzgTsG655ZbcihbLYxZY/J7TwpjymIA10UQTZccuRxdCg0SspNwELMrGuIEF1vTTTx9F3dwuE7BycSFM+cAuJxfCtGzEIFxuueXCnXfemaWAlaNFuPHbaKON4jORU7y63J5LlUcEREAERKDdBCRgtbt9x6qdBCxfY0vA8nGTgOXjJgHLx00Clp+bBCwfOwlYPm4SsHzcSCUBy89OKUVABERABNpBQAJWO9qxp1pIwOoJ0/tukoDl4yYBy8dNApaPmwQsPzcJWD52ErB83CRg+bhJwPJzU0oREAEREIH2EJCA1Z62LK2JBKxSRF1vkIDl4yYBy8dNApaPmwQsPzcJWD52ErB83CRg+bhJwPJzU0oREAEREIH2EJCA1Z62LK2JBKxSRBKwfIi6ppKA5YMpAcvHTQKWn5sELB87CVg+bhKwfNwkYPm5KaUIiIAIiEB7CEjAak9bltZEAlYpIglYPkQSsCrkJgHLD1NB3H3sJGD5uEnA8nGTgOXjJgHLz00pRUAEREAE2kNAAlZ72rK0JhKwShFJwPIhkoBVITcJWH6YErB87CRg+bhJwPJxk4Dl4yYBy89NKUVABERABNpDQAJWe9qytCYSsEoRScDyIZKAVSE3CVh+mBKwfOwkYPm4ScDycZOA5eMmAcvPTSlFQAREQATaQ0ACVnvasrQmErBKEUnA8iGSgFUhNwlYfpgSsHzsJGD5uEnA8nGTgOXjJgHLz00pRUAEREAE2kNAAlZ72rK0JhKwShFJwPIhkoBVITcJWH6YErB87CRg+bhJwPJxk4Dl4yYBy89NKUVABERABNpDQAJWe9qytCYSsEoRScDyIZKAVSE3CVh+mBKwfOwkYPm4ScDycZOA5eMmAcvPTSlFQAREQATaQ0ACVnvasrQmErBKEUnA8iGSgFUhNwlYfpgSsHzsJGD5uEnA8nGTgOXjJgHLz00pRUAEREAE2kNAAlZ72rK0JhKwShFJwPIhkoBVITcJWH6YErB87CRg+bhJwPJxk4Dl4yYBy89NKUVABERABNpDQAJWe9qytCYSsEoRScDyIZKAVSE3CVh+mBKwfOwkYPm4ScDycZOA5eMmAcvPTSlFQAREQATaQ0ACVnvasrQmErBKEUnA8iGSgFUhNwlYfpgSsHzsJGD5uEnA8nGTgOXjJgHLz00pRUAEREAE2kNAAlZ72rK0JhKwShFJwPIhkoBVITcJWH6YErB87CRg+bhJwPJxk4Dl4yYBy89NKUVABERABNpDQAJWe9qytCYSsEoRScDyIZKAVSE3CVh+mBKwfOwkYPm4ScDycZOA5eMmAcvPTSlFQAREQATaQ0ACVnvasrQmErBKEUnA8iGSgFUhNwlYfpgSsHzsJGD5uEnA8nGTgOXjJgHLz00pRUAEREAE2kNAAlZ72rK0JhKwShFJwPIhkoBVITcJWH6YErB87CRg+bhJwPJxk4Dl4yYBy89NKUVABERABNpDQAJWe9qytCYSsEoRScDyIZKAVSE3CVh+mBKwfOwkYPm4ScDycZOA5eMmAcvPTSlFQAREQATaQ0ACVnvasrQmErBKEUnA8iGSgFUhNwlYfpgSsHzsJGD5uEnA8nGTgOXjJgHLz00pRUAEREAE2kNAAlZ72rK0JhKwShFJwPIhkoBVITcJWH6YErB87CRg+bhJwPJxk4Dl4yYBy89NKUVABERABNpDQAJWe9qytCYSsEoRScDyIZKAVSE3CVh+mBKwfOwkYPm4ScDycZOA5eMmAcvPTSlFQAREQATaQ0ACVnvasrQmErBKEUnA8iGSgFUhNwlYfpgSsHzsJGD5uEnA8nGTgOXjJgHLz00pRUAEREAE2kNAAlZ72rK0JhKwShFJwPIhkoBVITcJWH6YErB87CRg+bhJwPJxk4Dl4yYBy89NKUVABERABNpDQAJWe9qytCYSsEoRScDyIZKAVSE3CVh+mBKwfOwkYPm4ScDycZOA5eMmAcvPTSlFQAREQATaQ0ACVnvasrQmErBKEUnA8iGSgFUhNwlYfpgSsHzsJGD5uEnA8nGTgOXjJgHLz00pRUAEREAE2kNAAlZ72rK0JhKwShFJwPIhkoBVITcJWH6YErB87CRg+bhJwPJxk4Dl4yYBy89NKUVABERABNpDQAJWe9qytCYSsEoRScDyIZKAVSE3CVh+mBKwfOwkYPm4ScDycZOA5eMmAcvPTSlFQAREQATaQ0ACVnvasrQmErBKEUnA8iGSgFUhNwlYfpgSsHzsJGD5uEnA8nGTgOXjJgHLz00pRUAEREAE2kNAAlZ72rK0JhKwShFJwPIhkoBVITcJWH6YErB87CRg+bhJwPJxk4Dl4yYBy89NKUVABERABNpDQAJWe9qytCYSsEoRScDyIZKAVSE3CVh+mBKwfOwkYPm4ScDycZOA5eMmAcvPTSlFQAREQATaQ0ACVnvasrQmErBKEUnA8iGSgFUhNwlYfpgSsHzsJGD5uEnA8nGTgOXjJgHLz00pRUAEREAE2kNAAlZ72rK0JhKwShFJwPIhkoBVITcJWH6YErB87CRg+bhJwPJxk4Dl4yYBy89NKUVABERABNpDQAJWe9qytCYSsEoRScDyIZKAVSE3CVh+mBKwfOwkYPm4ScDycZOA5eMmAcvPTSlFQAREQATaQ0ACVnvasrQmErBKEUnA8iGSgFUhNwlYfpgSsHzsJGD5uEnA8nGTgOXjJgHLz00pRUAEREAE2kNAAlZ72rK0JhKwShFJwPIhkoBVITcJWH6YErB87CRg+bhJwPJxk4Dl4yYBy89NKUVABERABNpDQAJWe9qytCYSsEoRScDyIZKAVSE3CVh+mBKwfOwkYPm4ScDycZOA5eMmAcvPTSlFQAREQATaQ0ACVnvasrQmErBKEUnA8iGSgFUhNwlYfpgSsHzsJGD5uEnA8nGTgOXjJgHLz00pRUAEREAE2kNAAlZ72rK0JhKwShFJwPIhkoBVITcJWH6YErB87CRg+bhJwPJxk4Dl4yYBy89NKUVABERABNpDQAJWe9qytCYSsEoRScDyIZKAVSE3CVh+mBKwfOwkYPm4ScDycZOA5eMmAcvPTSlFQAREQATaQ0ACVnvasrQmErBKEUnA8iGSgFUhNwlYfpgSsHzsJGD5uEnA8nGTgOXjJgHLz00pRUAEREAE2kNAAlZ72rK0JhKwShFJwPIhkoBVITcJWH6YErB87CRg+bhJwPJxk4Dl4yYBy89NKUVABERABNpDQAJWe9qytCYSsEoRScDyIZKAVSE3CVh+mBKwfOwkYPm4ScDycZOA5eMmAcvPTSlFQAREQATaQ0ACVnvasrQmErBKEUnA8iGSgFUhNwlYfpgSsHzsJGD5uEnA8nGTgOXjJgHLz00pRUAEREAE2kNAAlZ72rK0JhKwShFJwPIhkoBVITcJWH6YErB87CRg+bhJwPJxk4Dl4yYBy89NKUVABERABNpDQAJWe9qytCYSsEoRScDyIZKAVSE3CVh+mBKwfOwkYPm4ScDycZOA5eMmAcvPTSlFQAREQATaQ0ACVnvasrQmErBKEUnA8iGSgFUhNwlYfpgSsHzsJGD5uEnA8nGTgOXjJgHLz00pRUAEREAE2kNAAlZ72rK0JhKwShFJwPIhkoBVITcJWH6YErB87CRg+bhJwPJxk4Dl4yYBy89NKUVABERABNpDQAJWe9qytCYSsEoRScDyIZKAVSE3CVh+mBKwfOwkYPm4ScDycZOA5eMmAcvPTSlFQAREQATaQ0ACVnvasrQmErBKEUnA8iGSgFUhNwlYfpgSsHzsJGD5uEnA8nGTgOXjJgHLz00pRUAEREAE2kNAAlZ72rK0JhKwShFJwPIhkoBVITcJWH6YErB87CRg+bhJwPJxk4Dl4yYBy89NKUVABERABNpDQAJWe9qytCYSsEoRScDyIZKAVSE3CVh+mBKwfOwkYPm4ScDycZOA5eMmAcvPTSlFQAREQATaQ0ACVnvasrQmErBKEUnA8iGSgFUhNwlYfpgSsHzsJGD5uEnA8nGTgOXjJgHLz00pRUAEREAE2kNAAlZ72rK0JhKwShFJwPIhkoBVITcJWH6YErB87CRg+bhJwPJxk4Dl4yYBy89NKUVABERABNpDQAJWe9qytCYSsEoRScDyIZKAVSE3CVh+mBKwfOwkYPm4ScDycZOA5eMmAcvPTSlFQAREQATaQ0ACVnvasrQmErBKEUnA8iGSgFUhNwlYfpgSsHzsJGD5uEnA8nGTgOXjJgHLz00pRUAEREAE2kNAAlZ72rK0JhKwShFJwPIhkoBVITcJWH6YErB87CRg+bhJwPJxk4Dl4yYBy89NKUVABERABNpDQAJWe9qytCYSsEoRScDyIZKAVSE3CVh+mBKwfOwkYPm4ScDycZOA5eMmAcvPTSlFQAREQATaQ0ACVnvasrQmErBKEUnA8iGSgFUhNwlYfpgSsHzsJGD5uEnA8nGTgOXjJgHLz00pRUAEREAE2kNAAlZ72rK0JhKwShFJwPIhkoBVITcJWH6YErB87CRg+bhJwPJxk4Dl4yYBy89NKUVABERABNpDQAJWe9qytCYSsEoRScDyIZKAVSE3CVh+mBKwfOwkYPm4ScDycZOA5eMmAcvPTSlFQAREQATaQ0ACVnvasrQmErBKEUnA8iGSgFUhNwlYfpgSsHzsJGD5uEnA8nGTgOXjJgHLz00pRUAEREAE2kNAAlZ72rK0JhKwShFJwPIhkoBVITcJWH6YErB87CRg+bhJwPJxk4Dl4yYBy89NKUVABERABNpDQAJWe9qytCYSsEoRScDyIZKAVSE3CVh+mBKwfOwkYPm4ScDycZOA5eMmAcvPTSlFQAREQATaQ0ACVnvasrQmErBKEUnA8iGSgFUhNwlYfpgSsHxNwEsRAAAgAElEQVTsJGD5uEnA8nGTgOXjJgHLz00pRUAEREAE2kNAAlZ72rK0JhKwShFJwPIhkoBVITcJWH6YErB87CRg+bhJwPJxk4Dl4yYBy89NKUVABERABNpDQAJWe9qytCYSsEoRScDyIZKAVSE3CVh+mBKwfOwkYPm4ScDycZOA5eMmAcvPTSlFQAREQATaQ0ACVnvasrQmErBKEUnA8iGSgFUhNwlYfpgSsHzsJGD5uEnA8nGTgOXjJgHLz00pRUAEREAE2kNAAlZ72rK0JhKwShFJwPIhkoBVITcJWH6YErB87CRg+bhJwPJxk4Dl4yYBy89NKUVABERABNpDQAJWe9qytCYSsEoRScDyIZKAVSE3CVh+mBKwfOwkYPm4ScDycZOA5eMmAcvPTSlFQAREQATaQ0ACVnvasrQmErBKEUnA8iGSgFUhNwlYfpgSsHzsJGD5uEnA8nGTgOXjJgHLz00pRUAEREAE2kNAAlZ72rK0JhKwShFJwPIhkoBVITcJWH6YErB87CRg+bhJwPJxk4Dl4yYBy89NKUVABERABNpDQAJWe9qya03ee++9YP9WW221cMMNN4QPfvCDfdf6f//7Xycd+X3gAx/o5EtmnjxJZ2Xbaqutwk9/+tO+y9UtAWWlfHalv/fzBVbPPfbYIxxyyCHhwx/+cD/J33ev1XW0Zfvvf/8bPvShD0V2Bx98cFhppZXCcsstF+uctlM/hU3z9PIqft9TTz0VXn755bD44ovHspKvJ2+rk+XRT71GuvfNN98Mxx57bNh77707fdlTtrQPe5+BYhn/+te/hi9+8YvhN7/5TeRGW3uu9Dnw1q34vZRnm222Caeffnr8yJNvt7HEOI7mmaVsCFgPP/xw+MhHPuIqW7G+PBfWb8nf28bUea+99gqHHnqoO49i2dL29ZbNnqmjjz46fPWrXw3TTDONp6u9L42VzdM/LDMbL0877bQw/fTTh3XXXbeSsvWSSbfyU560bPSFf/7zn+FXv/pV+PKXv9xLtpXck5YjzdBY2+f83GmnncKJJ55YyfeOK5NimWx+YD+LY8W//vWvsMIKK4Q77rgjjnGjee7LKpe+d9PyjOudxLNg85HR9OGysvF5cb6S/q3beLPRRhuFU089NUw22WTuMbiXcukeERABERABEciVgASsXFumonIxSWOCxCIYoeP66693CzHFiSb5crHIm2CCCfoucSpIbLrppuHcc8+tbNGZTvw8E1Cb9FKp733ve3HhOVoBqygoeAUZa1PqeNBBB4WVV145LL/88h2RyJNvmqcJDB5uaSdAwHrhhRfC0ksvHfugV4wxEYH6eurWrWO+9dZbgUX7vvvu6148FQVJr4hQLB8WWGuttVb4wx/+4K6vPav27Pf9cI4jwde//vUoYHnrO9I4Yu3rydfynH322aOANdFEE1Uyllh/s/w9z4Sl3XPPPeM44hVyi01SXJh72/g///lP+NGPfhQ23HDDSgSs9Bklb9rVI/zZOHTKKaeEGWecMay99treKvaVLhWv0vYvivx8hoB10003DUVcs7JY+WDLOykVrOBsGxlU2gSsqsbNkUCmz3Q3MYt09nfK+Pbbb3cELPusqueiWMZie9rn49rw2WyzzcI555wzFIGo26aTPdvdnpuvfOUrgWdCAlZfj7VuFgEREAERaBEBCVgtasxxTS6ZrC2zzDJx586zmEgnmakYMZqd9tS6ASHhwAMPdJdtpEkrf/csOi0/JpJY6uy8885uS5i0bCYU8TdbbHi6IPmwgDnrrLPCEkssERZaaCG3oGDfT36w8lr8FOvx/PPPh9dffz3MM888sa7eRZRN8P/973+7hNJufLHAOu+88wJijHfhZEIL3Ox377OVlhFm3/nOd8IZZ5wR/+zhZml4xriqalPy4jnFcm00eZqwZn3OntHU2snzXKy55prhl7/8ZSzbaMpn302fQySAo4kFnvGE+jKO7LbbbpUtik0cMqsST9+zfnLmmWdGq79PfOITHuzvSwM3ymOWoh5mtoi/9NJLwxRTTBFWWWWVSspWlokxsba3vppagtrz/ve//z3cc889cRNh0FcqWL777rvvGwspH3003ShBMOVZHdbFc2L8aHv+Xxz7+Zy/f+1rXws/+clPxvrc00/6qZuNh/buHUmYhhnWzTb+ep6tXsplbWV9C9dKNgOL7ZjmhSUn732eCc+7oZdy6R4REAEREAERyJmABKycW6eCsqW7xn/84x877lKerJlcMsFiYopL3Y477hgXPCykPBZYJkgwCXv22WfDTDPN5CnWWGnI69prrw3zzjtvmHXWWd0TPFugMLEcM2ZMmGOOOUYlhFkhX3nllfDjH/84fPe7341/8kyM04XUSy+9FK1N2I0lL9uV7xekCQn7779/bFtbePSbT3o/7Qu7+eabL7ZDN1eJXvKnv9Hvjj/++LD77rvHfEZ7sQAkfs2UU04ZmXnFDjhNOOGEsWxVWbBQNrjNNddcnXJ5F3aweuihh8Jf/vKXaNU12ov8Hn/88TDnnHPGZ97TFumiDe7EX9p11107C1nPosz615NPPhnHEdrE82wV+bCQZcH40Y9+NObn6cNWH57V6aabbiwLmdG0B65hiMOIJ962sAX8I4880ulv3r6W1gVL3xtvvDFaOE488cSuaqbcyGDaaad15dNvIhtfr7zyynDzzTcHxkRcUk1UoFz8zphEP4Pdpz71qX6/xnU/YyoX73I2o3bYYYc4vlI+Lj6nTHaf9bn0fVZF+xYLb+IZ38vGBZbBCI7rr79+vJUy2RjLmMmY+8QTT8T+m3J1QSlJlFp+MQ6ecMIJsTyELcA1tVv/xIqTsnF55zf91uXVV1+NZeNZZmNlhhlmiN/dbRzj3cCYZPO7fr9L94uACIiACIhAkwlIwGpy6w2o7OmuZGrebn8nPgQT1FlmmSUuxuqeRKVWYLh0IA6xuBuNhVNVaFM28Dv77LOjxdTcc88d2VWxyK6qrHA88sgjAzG/BrHI8ZYTbohNWMFhKZLjhZspi8kqRNiq6mfPK4sgYqThksjlEYiqKlO3fC655JK4iF1nnXXixzn1PdjhukYZWTCaFUwOzy1l+e1vfxstu37xi190uHVzSRpk+3XLm7LhprvLLruEpZZaKlrbpHGR0jS59ce0bMRqwtUYq0iEfYQPq4eVu67+St988MEHo6j/zW9+M6y33nodEdj6wEjMB90fYMO7GCvSq6++Opx00kkdka/Y3jZO2bM/6P7L9yE+IsTvt99+0W2W8qUWlmkZ7fduf6uaI99BnyP+Ic/OYYcdFi0jTYAssrIypZtadfXHqlkoPxEQAREQAREYiYAELPWNrgRMFLIFm7mCEH+BSR8WTsOacJY1UWoVwY4vrmEf+9jHOtYSdU3oipNKWJqrJHXyxg4r4zGaz3HXgWFdzEZaDLNQJyD8BhtskFXZrLwIWN/61rdirJ6cLlvwsAhPrde8bpODqtvWW28dLbE+/vGPZyXqwg+LOKzrsHjBCgh2ZrVX53NiVpLEmdtnn33ipgJWGzmIgOkmCNYsbCogAC2wwAIdq73Uoi0HQXCkvs04/txzz0Ury5lnnjlaHnMNyzJnXM8cZcPqCSsw4pixqYTwgVWuWUembpyDFofSstp3IWTdd9990e2NGHVYNaYuufYuTGNMDlLUTAUpysGhGXfffXeMwYklHRslWJZb+flJWyNe2nxoUONn+tzQrohs559/fnjmmWei6zbtm5YhFSrr3kgc1LtB+YqACIiACIhAkYAELPWJ9xGwSVS668eEjZOWWCgtuOCCnbhBw5wQjyRu8HfKes0114RJJ520E9Dc7q9zkZnukBIv5ZhjjokLzRwWmUWeTORx5SSeVk4XDLEy4fQ7BI4cr9wErKLVwAMPPBAIDk+w/0EtvrztQlkRJ3k2jjjiiFHHcvOWY6TxxVynsXJhEfnJT36yY4VTp/CSji0ExUYg+vSnPx04paxO61NbYFv5KAsx5y688MLo+kZcpqLbVp1jdC/9xd6Jd955ZzydjlhrFlS+zrKnmySUkef8sssui1VCUJ9qqqk6wdOHbY1VFHv4P2LmVVddFfvBdtttF5ZccsnoWlh0zR00U2vP9Hv5zsceeyz87ne/i4IW85wtt9yy01ctfpaVbRDPfuqSnVq345aJOytlw5qWuRiCX5HToLn18qzoHhEQAREQAREYNAEJWIMm3MD8beLJBM3iVeA2SCwYJnXp7mgOEybKyAIYyzCOXE+tx7yxjapsNltk4P5GXA1O5YOhxQ2p8rtGkxduUosuumjHNXQ0eVWZFlbEoTnggAOyE1+snjkKWCaSwg8BgRhYLIBSl9sq28mbly3afvazn8WYZFXE6vKWpZjOnlPGQlzisCSirRGxBrGA7afcNq6kgbIvvvjicP/998cyTjLJJLVYK6ZWJKmIwe/EIMLSjjEQoc1EFeur/dR/WPdSbmNs7zvEuHvvvTd86UtfCosttlhtfSGNVWjvZcpoljuIHFhNEw8ytdYZBrtucRRtUwzrogsuuCAKblhlYVlLUPJUZBuUFVZxgw4uRZdL+CBWXnHFFdH6igNwEC2xbBtkX7XnJR2709/5/IYbbohiFps59D/icxpXWWENo2frO0RABERABOomIAGr7hbI6PtTqw0rFvEYWAwRwwT3j27WG4OaaPaCxiajxG3CPc8sdIo7q73kVfU9VjbypTycQIYbSm4CAuWjrN/+9rfDnnvuGUWEuhfnaVuw2KFtDz/88OziN+UqYFm5UjEBiwesnMz6JQfxuVhOrEYoowWltr5ZV1lTKyeeiddeey0K+Yjl5k5oi8eqx49e8ivG2CMNVi7EAORZxqW1LpEo7XtpOzL+ESCdOD/f+MY3YjzA0ZxS2gunKu+xeuFaesopp8T4WFjqWEzI9LsG/W5M3zHdxB+CuBMYnPhtxMiyE2G7jQ9VMkrzSjeU0na2smONxWmEPE+rr756WGSRRd4nZJmIUxwPvHyL3NJ803mQjTvE8cKyjb6KBdTiiy8eLaBSjt3GqH7L1+3+1JUx5Ufb/vCHP4zzidVWWy1a15qbo5WlmF/xmRxUmytfERABERABERgkAQlYg6TboLzThZpNhBEOsHxhl48JG5f3lLuqUdhOJT/ZJSXOxuabbx6/pq7FbrGO6U4vQiCLSjt9sGoeVeT3mc98Jvz+97+PAke/E+8qvn+kPG677bbw5z//OVoS5NS+aXlzs8DqxvKpp56Kzy8nCObUvibCUDZcWBEqEQbqFIbG1Z9xtUVoO/nkk8Pkk08ey0kdGHfqdt0ztyPKgcvtxhtvHE+DSwXp1E2pLqHaxkZEc6yDOBGOuIVcdZWp1zHM3j0mJvB/hLj5558/ClmcCJuKSXW+M+05x8WUgOBYYnLCnZ1wWnQrtJOBe2Ux2vuMJeVAEMSC+vbbb4882TAjJEAawyu1NiTtMC2sraxYjmFNvemmm4aVVlopxkVLN/aK4lE3QWy03Cy9iVucvExoAtycV1111Xi6ol02jnYT7aoqh/IRAREQAREQgWESkIA1TNqZfldxgsWkiL+xKOcEHE6RKk6C6hKJbLFrZUYYwtIAqw0LCpzLAsgWtbC66KKL4mlHK6ywQjbxw9LuSFk5jh3rjW5WdnV2XWLmIF7NNttsWQkvTROwWLzuuuuu8cQt2ji1IKizfe27bfHMAnHllVcOU089dXym6xQAilxsEUg8MU5NxIoIq4ccrlREs/Kcfvrp0fURwY3FfuoKV6eImYqWr776ath2221jcG9OaKVv1h1bsaw9TbRMnyEssXC150CCz33uc51nrE7O1CMtK1yxdiIwOJZZCFm0hfXhOp61lI/9TsynLbbYIvYHrKtxhy2KmybEDuN9b1zSsjJeETifmGhYCGMFhaWbMS9aFVbZD1JLqqIgvdNOO8WQCnZSNG1rz1uO1t9lz5o+FwEREAEREIEiAQlY6hNjiQI2yWIShOUVggsXEx/b7axzcUH50kkYwgbiFTFpuOqYgI/UhdIdT4TAn//855FhbkIb5WeHnkXkOeeck90TwalQubpeGqzcLbDsuWaRRawzLBvqEqG7dTArny3GsL4gBk2O7o6Un8UrIhbiPoGfJ5hggs44OYwF9UgMLdC0CStwRZRmLOcnVi4mVtQ5jtt3W7u/8847MT7b97///fizysX+oAe0VBygXzz99NPREgbh3TZ/KENdz1vqZmrvTt6Tt956a3SH5YRSYjwVXf0GzY38ywRVLKsZr7BePu6446L7Hn3FApgPa7MlLWc6/7D5yBtvvBHfUQSoZz4CT7Nuq3o8KD4b3Sy82Ni755574ibkJptsEvtjcfNvGO2r7xABERABERCBQRCQgDUIqg3LM1088jtubmussUYMWmrilU0U697BM1GIyRgLHXbvCQBr5UqFtrqbwSa3TGBZJHznO98Zy7Wk7vKl388JiQQmRsSqc2HbjQmuL0zEhx2EuJ/2yV3AsroQeJoLd9GcrjRmHeUi1hTuRIxFw1qk9sLDxh8bM1955ZUYtwcxwFzg6hIqUquMolULYhvjD3H45p133s5mRF1lNdbpGElZGM8RKz7xiU+EHXfcsVPO3AQtymNlMqEi5Y9AhCscLpK/+MUvwgwzzNBL9xrIPanAUewXCG4E/ef0T062w+V0WH0i3eBJK87fi7GyEGSIlcUGC3EuOQ0Za6dhlrVoGVgUjvg/G0GPPvpouPTSS2OAek4tRYyvUsBMuRXj2xXHUfohgiqHOyBo4Z5N0HxdIiACIiACItBkAhKwmtx6zrKPazHAQnzFFVeMAlad8VxGqhplt51EAstjwm8nAzlxDDwZbka4QFgcsYF/oeMLWIizyP3Upz6VhfWDLRCJ24QlzoYbbpit+AfupghYlDU90dHRVYaShPZnsfWFL3whuraaFUNOArWBIJgy8aZwJUJ4SReVVS5cRwsepgjpLPy33377TnY5CMNmeWcxvBBacX+EKyejWvvbuyv309asnFgQnXvuueHJJ58Mu+yyS5huuuk6gmwqfNUp0tpYS/xDxDZiksF9XK6xwxKOin2esnLC4q9//evwhz/8IboZEofK5irFctW5GYMID1OzKCT2GOKRldFEOhsjUqvEKscNa1/e73CjTJwmDTvauNgP0+8uCrWjHYOUXgREQAREQASqICABqwqKDc0j3cljQXDkkUeGhRdeOHz2s5+NNUqtrqo2gx8NMspKTBdiXxFANdfLFmXwxA3CTkjMsbx33HFH+PSnP92J4VFnGdOJPJYBdnpWblYYKaMmCFjmXobb7Y9//OOs+6MtnIgnxElbCMBmmVHnorTbc0G5EChwGcN9CPfMdBFY12J/pLLecMMN4frrrw+77757mGKKKTru4XU/X2lMI4vDeOyxxwasb1j8E0OwKacVppbKPHcvvvhijD1FX0DISl1jra/X9Y6158nKjDCEBREHFCBkTTXVVLEr1eFi2E3AMksouF5++eXh7rvvjifnEn/MymqiTJ3CoMX0g9sLL7wQmT733HMx3MH6668fTwi1Pk89i4LWIERa62scjMJJoJz2insx7367UisuG7vqHhvqnI/ou0VABERABPIjIAErvzYZSolSdwcmLJyqw+Rv3XXXHStge24WD5QbE33cM5iw1jXp76WRKCv8cIPC8iGnhWyx/AT0ZbHChDaHyaqVgUDZTPxp55zbugkClrX5L3/5y3hSmsW366UvD/seG59wb8I9L7UYSsWhYZer2/fZIhQRCwGLjQAECuL05PAspWU2rlg24pqLmIKFG1edZU3fR+lJc4yZzzzzTBQxF1tssY4lZs5jASzTWIypddmYMWPCfvvtFzbaaKNoXWgCS53vhuJcwMpifWSeeeaJIscss8wS+0gOzx/lgDGx5/idU2qJQYUgi/U4VntYF9XZp+2Zsp/0Wfo2XLEcZ3xYeuml4z/mXsV2SE9fHO04V7TusvywEKQsCGycVsoJhswB7Mp1E3O0PJReBERABESg2QQkYDW7/dylt4kdExuCizOx4ljodNfP7hn20drjqhQxJnAZuOWWWzqBXN0QBpwQfs8++2wgwCtxZ3K+Nttss2ghkMPJdNbv6Isssgk0bBPpQexKV9EuTRCw0jhxCC0Iq7leaVk5nY5AxLi91G2tMpKAZYt+AqUfddRR4eSTT46uzfb3OgWKtMzFhSzPFla3uOimi9Y6+kVqCZS6DJpgcuONN4azzjorBnrH8jaHsaoXTqkljvUDrJwQOrEiJh5dnXWxZ8o4F11gaZdvfOMb8R1GnCyErDoveMIr7S8m9lAu+sh1110X5zOIQ1hn1XGNJPal5b7vvvui5SYiIWznmGOOGEuvakvDopBnZbM25/9YZfG+ZdMIEXCmmWaK5chp/ldHO+o7RUAEREAE8iMgASu/NhlKiWwSxXHanEyFNZNNZoZSgB6/xCZaNgFjJ57JtC0O695hHVc1KBuTwfPOOy+6a+WyiLUyp+yIffXggw/WbjViiymLhUPMDo6kz/1qkoAFS54hdt7hbaeL5syYU7ROOumkRpSVUwnpDxyKYKcTwtbc4nLiTfuz2MedCFHTLFpSF6xc+oWNDQTwZpFPUHrKm4qEZvmUi6VQGTs2j/hH35522mmjWGBiVuq+RT7UqS7LM+MJe9zgcO3ErTft31bGOstpZeAnbpvbbbddmHPOOQMiOFan1q/tJGDuM7HI3ofDfE+ngjICEuUkBikhEiivnVpcnOdU7UZN/mb5CBNEYmJP0s7E7bJ2Lm4gpOUfJrey50qfi4AIiIAItJuABKx2t++ItWOywok+TJDYqbQJXZ0xI0YqrC1KCOx7xRVXdCxycnTRSeuAeT6uIhytnePkzibFb775ZlhrrbXCzTffHItf9eS430fMYjWdccYZ0doOcS33qwkCFu1tbUvA8dlmmy0sv/zy8W91WoD00rYWDNlOJewlTV33wJOTv3B7xF3TxlYY2yIxl/HAhAnGqiWXXDL89re/jbGm0o2DukSTYvulViM2ZmHtxuEY3UTBXK01TWQxMYUNJE7cRDA4++yzx7IsKopBdfYbs4qkvIizuOxdffXVUXhL62Tjd51Crb3b+PnOO+/E5xDR/oILLoinhnLBMrWOq2sOlIpT/I6VOXHqeKdgGb3HHnt0xpDUMtHGkqqez9TqFTZ2giGH5TA/IGYebWphJersi3WN7fpeERABERCBPAhIwMqjHYZaCiZJJl7hmmOiRWqGn8vkJJ2IbrvttuGUU07pWAkxgct54Y0lBhznmmuubGKHWEdLuT7//PPxxC92f0fa8R1qBw0hLiwQV3Ab4tS03K8mCFip6wqLUNxF2Gm3GD1VLYQG0Vb0V1yuiNPGSX85l5X6MzYRl4cTH3Fpsng8tnAeBCNPnuni+R//+EfsE1iArLnmmtmd+pnGxjLXpl/96lfh4osvjjEGcRVLx7UcN2PSNuK5S2NMMg6feOKJ0bqM8SQVC+oW44rs4YxrPJsePJcHHnhg7DepyFjXHKJorWT/pw6PPPJIPMCCgwGwJpt++uk78590TKmj7MbO5jX8/y9/+UvgFGNOhyRmGmKSWUFVLRBavt3qTjkoA1ZiCGq4c9vzVeTtGYeURgREQAREQAT6ISABqx9aLbkXlzYuLK+4bAKSo4uLlY8FCgFGidfSlIkTgtDBBx8cGefmkpMuNB566KE4UbbTJ+uekFo/5OQxDheoYzHR76PeBAHLniVrX4JJH3DAAXGhXHebl/FmUYfVDQu4iy66KOs+kS6YebawqkEYgnOO40C6YKbsxMLDgoy+UbQAKmunQX6eWoXxu/Xbv/3tbzHmGMGnsRLhMxN8ch470jHYnk1+PvDAA9HtnJPhcO03oavOzRoTua0/mIUObYClDhsNCByrrbZaPDW2anGl336VCplpH7a/czAAVk7EIsO6aO211+64Uw9TLEznXkX3Ruu7sKdMHGjxu9/9Ltx1111x7obIXNXhJmZ9lXJL43BZX3399dejaImoNuuss0ZXR8pp4l/Oz1u/fUj3i4AIiIAI5EtAAla+bVNJyYo70pjSv/zyy3EhaMJKJV9UUSbF8pItu6Ycl110H6rb1a1Y5XQyihsAR2VjIZArZys/k2ICCROnq+7LGL711lsxNg+nYjbhaoqAlbI899xzo3smp7vl2Ee7PV+4WXHa38Ybbxw/zlV4M2sGFnYskq+//vpoVcP/i4u8HOqQloHf77777kB8xG9/+9thhhlmeN/hHrn0l7TcnEyLZTEB6TlhMzexsNdxzOp07bXXBv4hCGHd1K0+dfSd4nemQtw111wTxQ0T39I4XsMWN4p9uijG8n/EN97RuM5ON9108bRFhBmrU7H8xb/32qa93Fec+6Tzm/R3yky/wK2aWKCIhssuu+z7viLNL31eR+ozRV5lzw9CGvMyrHkJQM97xNIUWfdSf90jAm0hkD6vdYzRbeGoeojAuAhIwBoP+oftKLLj+Mc//jEenW4TjdSFoW4Uxd1IW6Aitp1wwglZCCxljGyCy6KV3cocXXHSOlBe4oJ85StfKava0D6nTxK8HWs74qsMe+HjqWgTBayXXnopHHHEEdH9Knd3K9rErAQYD3BbmnrqqRvh/ki5b7311ihkIQjZYjJd+OfUx83aBssm3hVYWSy11FId/sXxIyd3Tt51WGPRtyl3Gp8J3nVbBvU7tlAfYgHijrrllltGwdne3ZZXukCqqx+lfZly0d8pN1bTWDdNOumknarTX4Zp5dQLc8qDFTJ9B3dfRKFlllmmc0hAGuDceNfFmvoYP9x+caFF2J9//vljueeee+7OeG5jps2lqh7nbayA25gxY8JCCy0U+6g9a8V+0Utb6B4RaDIB27ziWWPc47nUJQIiUD0BCVjVM80qR5ts3XTTTdFk/qCDDoqTi9RdsM6JWBFWGuSYMnLq4BJLLBEXUNPelfcAACAASURBVFw5LZaKZTeulPG4444bSyjMiXFxAYqb47777ptFv7X+ysmDuIoR/ypXdimwJgpYsN5zzz2je1tOQna3jmgLJXNdslMU7XSsnPuI9WmsPG655ZYYa852aG2ym9O4looL/G7xpRC5ic+UCicmxmUxePyfRR5lwYITAQvxxNzDECaadKWLf2I2EWeK+G9bb711mGKKKcayyCqzlhlGvekrJpBYeXDV22GHHWL8JiySOSAgx7HG+rzNP3CH5JRWREMOEsE6KxfrotSyKv0dy6xDDjkkPP7449HFEKtqK3dqSVbVM0ucSouZaeMZVpCIxyaYDaPf6TtEICcCPJO4e/NMMGZjzaxLBESgegISsKpnml2OxCzAogXxyiYWLJjsdL+cCpzuJrMIwdKCWD1N2T23hTaTdczrc2RsfcAmtVtssUXgVLpcLtwvESzvu+++WKScxQlj1lQB69JLL42sP/nJT+bS/OMsB4smJoe4KTEmrLLKKo1wFTOhCksJTlJloZnGnclJwDLhhOfOFva4C3HQw7HHHhtF5dzct4tjmvUT4gYh+LB5g/jTpCttB8rNuwQha4MNNgiM2bgWEvfLPqszRhZlsxhvxb5BPXiXYzmJNcJOO+0UralzsoZLg9TbO4d6cILhdtttFy2xOJABQchEm7r6UmoNZmUwYd9OZsZ6kvIiZjGHwiqLOgzi5ObUysve1bnGU62rzfS94w+BdCxE/MZ4QJcIiED1BCRgVc80qxxZ6DGAMpmxY6KLokBOAkFqfkscDeI8TDbZZJ3FXk5lLTa0lR33iaeeeipsvvnmHcEwnWjm0EFSd01EgJxespzGdeWVV8YT5yhnTov7kdquiQIWi4znnnsuHH744eGkk07KoVuOswyUl8mhWdIQdwULTU4Sy3lcsAW9iUEIswTpPuqoozrjQ07ltwVp6mZOQRGFsGaC+TzzzJMt89S6zcQdXNAZkxHgchJOxtXhi/VI+8hrr70WxVvaYrnllottUfdmSbr5ZPWyPm9iHAIc/Z5QBsRYMwvKHAaflDc87f/0e37HehKL1e985zsxVlZd/Si1ukq5pf3DnmH6xIsvvhgtrHE3PO2008JUU01VGe7i6ZTGzDbymvDurgyGMhKB/yNgzwFjNAdc6BIBEaiegASs6pnWmmNqxo94hUk3wc9t5y1nQSDducUyhEXSfPPNVyvPfr7cBKxjjjkm7jITYDXXyxYUTG5xIWMhlMvFQmHRRReN1gU5LezHxaeJApb1Aaw5OCmvSRdjxRtvvBEXw5jpc9FXWGyyKO62mM6pflhiIdJy0l8a0yhdOOdUXsoCc6wjTznllBh/DIHeTior8s7puTVrLASs73//+zHIOyeuWtltxzw9dS039lae1CoL66DbbrstnHrqqfGAgIUWXDC8l+GJt1b2VMhFgMNCGctwnuEZZ5yxM9YX3SFzcLOlDPQTfnJCJwdgcJgEguiUU075vu5SFJNs87BOQefVV18NDz/8cBzrsaJkXsgBDTZ2ppuHqSVVE56LXJ9XlWv8JkBMOg5w0SUCIlA9AQlY1TOtNUcz3Ua4wqqG3UKElCbsiNnk/JVXXgm77rprnGjVtcvpaURjz8TQAmN78hlGGtuhvffee+Px3FtttdUwvran72AxhlVQDguXngocQlxAEnOHhVhTLusDnGjFqW1pfKPc62BjBZZMlBvLIBsrEPHrdKfqhR3lx7qU+Bg77rjjWAHSc3SXTi0tWNxeddVV4ZJLLgk//vGPx7LstQ2SXASsolUN5eMkXk6eI6D+7LPPPpbYmaNrZNqfUgsXY4x7Hm6pPMc/+MEPwuSTT57toQypuxn1wtUNIRchjhhryy+/fCx7agVo9cwh8DsiFoIO/9j84aRcLK4pN66dqXieitFFd9BexohB3EM5YEvAeuaIlH3mmWcOxBS0U4jtvct4mvtGwCAYKU8RqIqABKyqSCofEXg/AQlYLesVTE5YFF122WXRbdAmVLaLRnXr3AUcF26bXCEEcKpNztZi3epBeTlpjF1OrFpy5UzZbULNQpRjw3HXzOFigcBLn5g1TZpAN1HAsn6AGyEBiwnm35TLFlmUF5GewOgs3E38acLCizIiPLAQNndZ+nxuIoq5pqWLcMqIRRPWM/CfY445shWci0I4///rX/8aT8nDOmufffYZa4MnF/FtpGfR+ra1h4k9b775ZoytNskkk4Ttt98+Pg9cOdan6B6JCIcg+sADD0SXSAu8T9lTi6w662ICWtElmL8TZxQxCzEd1+a55pprLGG37rmAWRla30nFNZhj8Y51JfMAAu4TL6548mLddWjKu0nlFAEjIAFLfUEEBkdAAtbg2NaSMxY1uIOxIGUxZIFVU9GizklgGRR2x5k4rbPOOtnuIo9rYUGsCSwqOG0pZ87manrWWWfFk5ZysXR74oknwoUXXtg5qS1Ha5Ru7d9EAcsWwPxceOGFA2NHLv2gbJwwa0cWVbj0MOZhfZJaqOS84IK5PYP0dxaPBBtPLU/KGAzz81S8Sn9HANpkk03iGMLJoXblMvalZYW3beDYAp7F+4knnhjdIZdddtkoOuRS9pE2SYp/tz5jbmrPPvtsFBY5vZfDRBC0crisLUxUS62xTFihja6++upoIbfGGmuEVVddNYpCOWxmpeVPBfLUMuzll1+Ohx3g3kz8m5VXXjn2qRw2Y9Iyp+xNIORzLOEuvvjiKH4iJC655JKNsszNoZ+rDCIgAUt9QAQGT0AC1uAZD/wbbDJCYFQEFI6Atkl4zpPxonvH3//+97D77rvHmB42yR04vIq/AP7EtWnKQogYHrvttlvFFPrLLu0HxEThxCSswprUB5ooYKWLGBYt7Bay857zmJH2rNQK62c/+1mYc84544mKTbC+Kj4huEtjJcFJbVxFC5Wc2wTeP/nJTwIxdjixLRUcitZP/Y0Mw7mbMhLXC4sy3ArZfEgFFRvLU+uV4ZSs/29JrbM4LOCII44I3/zmN6OLcLEP5SAKFZ9nG/MpG+5ttAsxy1ZcccU4No30bOfYz4h9g5BI+ddcc8140mu3PlQU9vpv9epTUKZrrrkmxvhiM3H11VePVpbdXLOLdeL/jF9N2Qypnp5yFIH/T0AWWOoJIjA4AhKwBsd2aDkzWcBtjbhRCABcOU6KugFJzdR32WWX6AJBgNGcrSdGalish4hr89WvfjX7RbRNOnG9gnldV9pP6cfHH3987Mcstqxv5Lx4N25NFLBSy4F//vOfARGIWCjp+JEze+vDJvZwMhjWTCyycnPDK3u+qAv8Ccydilj8PQfrjXGV36zhHn/88RgknZPOzOon56D0aZ2sDlgs4c5pQd5tEc7nJq7k/kxYOa3MuLYRU/DnP/95DDhu79Zcn5H05EL6PxZluESut956YeONN44CaVr2YsDxsmdtmJ+b+y3CKK7a++23X3QvNMt4i9eXY1ukYuE555wTLRURQ7/4xS/GeFlF985UPLW+JxFrmL1N35UbAQlYubWIytMmAhKwWtCajzzySIxDQtwrO5aayUTuwYxtosokD5cB4pJsttlmndgRTROxdt5557DHHnuE6aabrhECHH0Ed0cmpnVe6UQZ8e+nP/1pjE2DENGUPtBEAavowjPLLLPE4L4mYOW8i150FaQPPf/88+Gggw4KJ510UuN2/81q4aKLLop9HquNokBX5zPay3cznvPcYoWFCLTMMst0NlJyFX3SRbe5UuFWuOeee0Y3/JlmmqlT9VzdO0dqG9sA4KcJpFjV4OKGCEQ/yyEwelr+NN6a9Rnb5GB+wAEpvF+xcqbsE088cWe8ytGiLO33//rXv8JDDz0Udthhh7DppptGUS6N72XCYy/P2qDvScceE6ro/8Qq4/2MSI0Yh6jI5+kpi5b23XffDRNOOOGgi6r8RSBbAhKwsm0aFawFBCRgNbwRx4wZE4+RJ+h5eopYMeBojtW0iSkTIIQUYtiYiXo3U/sc65CWiQkpi+ecJqIjMYMvcTr22muvcMIJJ9SK1tqanXZiGR155JGdRUkTWFLGJgpYlDuNC8TzhxUT7pvps1lr5xjHlxfd7FgwYcVE7BbcCXMVTcYlOMAdKzLG8nXXXbcTGD1nS4bUipK6Ec+LoNB//vOfYyw7WwDn2I+6CViIKPQlxMRbbrklBnu3INi5j0fF2EaU1+qIuPj666/HkyM5/Q/3wpyekW5tkVrwWT9DqD7//PPDo48+Guc+CFq5btZZv7HNAP7PxUYBdUAsRXTnNMzcnhPjbdZU6WYSfenJJ58Ml19+eXT1ZPNupZVWihsHTRN6cxyXVKZ2EJCA1Y52VC3yJCABK8926Vqq1FKFSQLBi3ENYCI62WSTdY1xkdMEtVgp6sM/rG6YiM4222ydW3IutxUybQ+Ct+I+yKLTrpzrQNmZPDP5xGKi7ovyELtt2mmnDUsvvfT7dqbrLl/Z9zdVwErrhfsap+JxilYT+nC38YS/YRVATCnGxPQZLWvDOj9Py8liHFGZmDnd2sKCv+dkndhNfLjjjjuipcwFF1wQ2yJHN6lU4CmKtvwfEQ4LVWKrYRWX1qEpfatbvybkAJY0CCfbbrvtWDHXzCqoDrEuZVrkm/YxyvbCCy8EDn0h9iebR/PNN1/H9TwVfFOBtc53cvEZoQ7MGzjB8De/+U1YYIEFooteWb3TOgyyD45UjnT+w++4n995551x/kOb4AK92GKLjdXtcmmDOsd4fff4R0AC1vjX5qrx8AhIwBoe60q+ySYCxFNgd/u4446LwU3rmGz2WyETrNJdVQLNEjuFhVpOC7Je6pa6Me2///7xFDGzXqlzotxL2WmLK6+8Msaq4aSkOi+bKB966KHRIqyJVxsELNqBGDNYBuRmDdBrn+CZxLqBhW3qotPEseXggw+Ox9oTl8nG9ybFhaMtsPQhxh4uU4suumgjLMq6CaP0J9zcOfCCjRbrT4MUEHrt8/3elwopiCdsHBBknFP/0nlEWrec32f0MawWERvXXnvtaIGZiiwjxWrql9sg7rfYa/Sn22+/PW4gwB2xdJFFFuk8L3yeCqzpXKqutqEMqbUV/+cgHqyyEEgRrdnQm3/++Tv3FUW8uso+iLZUniJQJCABS31CBAZHQALW4NgOLGdM6Nmpw12GgOdNWWzapAswFn+DSTOTNqvHwKANION08sYpPSxwbKLZhIkZLmObbLJJtHqqq7w2oYUlJzhiiZezu9RI3agNAhZ122effcIWW2wRT5xqyrhSXKzyf4KJf+ELXwif+cxnGlcPqw/PBP0K6x8CJzfFisGe6dRSjBiNCy64YLS2tThHAxiSB5YlLlNcxMbilNSNNtooTDrppJ3vq2v89FS4GPuO9jrvvPOiJdPmm28eFlpooZhtDiJJWf3SutBGuEcSVmGttdaKQhYxmKiHxWjKbUxLn2kTD3k+sPp75pln4umLuOYhBnGZO5/Noeq0akwFtbRsNgfCugxL2JdeeimK18svv3y0KrV6NlH8LeuP+lwEUgISsNQfRGBwBCRgDY7tQHJGvNpyyy2j9YwFyOwW92IgXz7KTNMJD5M0BAuCspoFmU1sRvk1Q0meTjyJl3LVVVeNZSkxlEKM4ksoP0FYWejXbZ3CQpd4XMS+qvNExFHgbGwMrGKdWWzceOON0RKrSYty6mHCiMX/I64efYpAz01cLJmAwAlmTIQ/97nPNWbxV1yYU/Brr7023HTTTdHK0hbko3nmhpW2GGvtsccei3Vg/ETsaVrfSoUpayd7B/A+oL5skNnGRu7jQGrVY3MI4pcRh+3rX/96dEn/yEc+kmXQ+mLfKdYF1zziQi655JLRugwL7zTQfd1zJus/9owUg9IzN2JDysJdENtvgw02CPPOO29jPAeGNc7oe9pHQAJW+9pUNcqHgASsfNqitCSYymMxw0LALptA2C5jaSY13pBO1nAbxPKKxVm6QMh9slzkzv+JV8OO/DTTTNOJ3ZTzCW6U2QQsAsjWeRKV9QncDlhk8MKXBVY9D6mNJbvvvns46qijGidgpS4tLMjvueeeGFuGMaaJVzouIvRjUYZFRhOuoquQ9S1c37HCwm0ttWDKuU6pJZmJP/Svc845J4q9xx577FibMDnXpdv7qyiCUEdOA15hhRXifOPjH/941lUqWgLZ+425BCEKELKxnFt11VU7m365zjOsf1mbWLgFRCvEeFw+OSiG0zE5cZp+WHddzK3ZOgnlSecUafvwOxZyuOJy6i3vGoLw67TCrB8xFc5JQAKWE5ySiUAPBCRg9QCpzltsIUCgTCyvCIjLBMFO66uzbP1+t010mIytssoq4Xe/+12/WWR1vy2YmeDTPk0TXgiwTOyuuifAcNx1113jgQRMypvGkU7ZFhdCc+UksDMLjCZf9CssSnCLsgMiUheiJlnO0C7EPCQ2Dm6RqZBSpwDda/9IF7GUF1Hxs5/9bIy9xJXWoWjF0et3DPM+q89bb70VBRKERfqZCQ6MYda/6nTz8jKhzLiAfeMb3whbbbVVPBjB4jVRtya5gdIOWK5jVcocivqM5FKYY1ulJ0rjJomVLHXBIgth28Y0fqbWWWmsUW8/GEQ62oNy8vPee++NJxgiljJWp9ayaR8zBk0Y6wbBTHk2k4AErGa2m0rdDAISsDJuJ5skczoYk+Sjjz46Bt02a6vc4jmUobQJPYHnmYCx89bki/q88sorMeg1k7CmXVhfEfOIq04Ri0kp7jiUp253Rm8btkHAsvgqHE+PuIyI1eSL+jB28myeeuqpnT7e1GPeccdBcCYg+jzzzBOFXnsX5C7G2bss/Ykl8fXXXx8tSxCuzdKpCe81q4cJHlgUY1WCCE/QahtTU+uUOsdYz3NsGzSMB9QNgWHxxRfvWBmn742c65Y+GwR6x2IaoYQNHJ6hnIO8W9mtH9kYzXsSa0YsGa+77rr4/kTY7vYuz6ltUuE9FbURGHGX5GRMYmV961vf6mzSmjDHzxwszjzPktKMnwQkYI2f7a5aD4eABKzhcHZ9Cy94Fi1MHpmg4KJmE5pcd9fGVVHKfv/998cTwoh/1fSLyeQll1wST9rBIq5J4gvHXV922WXxpLY6d51tEktAefp53WKat0+2QcCyBStjC8Imp0I2+bLFEse733XXXR2RuQkWPkXuVhcWsgREx4rEgm3bvTktVLv1m1Sgss85rQxh5IgjjggzzzzzWEJ6rvUxATQdNykrcfwuvvji2NcYzxDl0ivX+nRrq1RotLnGz3/+845L7lxzzRXnIk2wlk3FRhN9ERyJk/Xss8/Gg0OmnnrqjlUjPHJ6lxdjsFk/sn745ptvht/+9rdRyCJI+g477BAPxbExIzdBOBUUrW1gbr8/+OCDcQPljjvuiCdjcoAF4QVyF+mb/K5U2QdDQALWYLgqVxGIa8X30jeImGRHAIEBsQdrJdttp5BNOk7doFJ+LMmY3DdN8OnWMZhA8oJi4tiEiXxaB05MpD1w4alzYUUZiFOEUFt3WUbz8LdFwLJFApYkBHKefPLJR4Ol1rTpqw3rPhZ2U0455Vjud7UWcBRfjoUCItYiiyzSyaXO57isKsWT79Kyvv766+G4444NyyyzbFyw5i7ImdBrY376f37n9DisjJdYYokYG9HqmnP7pO1XFHzSk+8Q6Tjp77XXXoubH2yq5Sb4FPtiavWDCx5zDxvn/vKXv4Sf/OQn4dVXX43j3XzzzZeVUFKcnpv4XhRGrY04SZINQuKl4m7MCaa59rvUAisVTE085G8Ic8wPaDfcDJlvNTF8Rtn4qM/bSUACVjvbVbXKg4AErDzaIZbCJlX8xP+fBQoT4ammmqpWKxkvIhPZrF4IV5wIxKQq90lvWZ2p01NPPRUn8yyOuXKdKHarC4GHWSzi7lKnBRbfvcsuu8QYUoi0Oe18l/WB9PM2CFg2BvHzD3/4Q2AxxCle1reb1L/TuvA7MeoIHo7VhbkNNe2ZLfZHNgO23nrrjiWWLW5NLGras8SYRNmJj5WKDmnspX6eyTrvpfycFMzie5tttokun3bZRlRxAd+k54s4TAcffHDAEov6YSFj/S+tV9FKrc42Gdd3I5BgccqcBYvqkYThJhw4A/+33347nHvuueGhhx6KJxgSb47TntM5psUB42fRuiknayfKgiv4NddcEw8wos+ttNJKcdxLx/JudWuaeJzr86Fy+QhIwPJxUyoR6IWABKxeKA3pHtvJZTJFsNGzzjprLNPpJk1w00ks+JjwIvZwGpAtLpu2wEq7AfXjFEWC0ed+SlO37ktw3mOOOSZwrHXd/QphgdgXTRYU2iJgpYtsLBJ+9KMfxf7R1OC5JubwvBIwmJh1q6++eqxm0+OpULeddtopCsCzzjprx7KE9weneuW0CO3lFUp9WHCz0YGYMO20047lMt9LHrndQxsgyM0xxxzxZL/JJpvsfc9S8V2ZWx26lcfmKlgwIaTi/s3m1EQTTdR5v9t7xQS73OtFORnniJH12GOPhe222y4ssMACY8X8atLcxUTgJ554IsbOW2yxxcI666wTxwrcW218YLwwd9cc+2IawN3GbGIacgIo7oVYOlKn9Eot1Ugvq63cn752lk8CVjvbVbXKg4AErDzaoTPp+9e//hVN2W1Bj2sVu0xNXWxhSUbZP/e5z8X4IAgmTZnQlnUNXCg40rqJMXXYNT/99NPLqjjwz1m0nnzyydG9SwLWwHH39AW2iKFvI3Smi5u6xc6eKpDcxPhju/T8jksXC9Tpp5++duG237oU7zdrEILtI/jg7knbsVhrYqD6dAOHxTYbBLPPPnusE/Vpkpt2kT+xlhAbd9999xgIPXVjG20/qDO91fO2226LffCoo44Kn/rUpzqB0ZtgsVTkZ8IOAdJxpWYjkX6IKGwBxXMXRNINBxPmKDNjHy6GWI0vuOCCHcs5GNRpiT2uPmzukbaRQj3Mup/4X2zEcRjEIYccEq2yJp100rHaqWlCfp3Ps767WgISsKrlqdxEYKyNCsXAyqtDfO1rX4sLekzyuUwAaqK1kpX9tNNOi2bsFnTYJoHFILd5tcS4S/P0009H8YoTtHLctSxjyaEABK+te3L3yCOPBALK4xLQRCHQOLfBAivtCywacCOknyP6NE1ASBdkadBt/o6QwEKuiWNq+lybhQU/2fQ45ZRTosjD4o4r90X2SGOU1YuFKTHLeCfWPU6VjafFz3n3UWbecWbhwk9cCnG9u/nmmzvv9yaKWdSNOlI/c/GkQhwMwnsR6xiu1AqrKeJ32td4lh544IGw1lprxVhZxGm0/pnz+FEUUK1O1IffidNGHD1ifjGH4e+pVVa//X3Q95sgR5+jH8E+Fen4+1tvvRWFufvuuy+ceOKJ0W23iUL+oFkq/+ERkIA1PNb6pvGPgCywMmhzE0AwxUdY4EScdPKXQRF7KoJNktKfTCxwG2Qns6kLKlsMm8DC5Om8886LLhOzzTZbYyw50nb54Q9/GF0/0jgYPTVyRTfZIgDhh3LMNNNMFeVcTzZtELCMXOpasvbaa8e4I6kgVA/har6VBc1VV10VFza409g42zSBpEgDy12eIzYLRhINcrWwGKllaROEngsuuCCKc8WrCW1WFIVpG4LWH3300fE9v/POO3f6YLrYbmJbWV3//ve/x/hLxNBDSLCNKuqea71G6kv2d+YxbLYcdthhMZg4FswmYJmQYvM466e5C3aUl9AOjIe0EzHoVlxxxc5jZu1l9UIcb4JFHfEOcQH92c9+FjfHOOV0zjnn7IyLxT7YhDpV8/ZTLsMmIAFr2MT1feMTAQlYNbe2LeR33XXXGMsEQaQJE/Nuiwkrt1lYMbEjRhQL4CbGiUrraCbrZs5OTAksmOoSgDzd1iZqWAJwJPomm2wydKunVESjDssuu2w8acjEzdwn/SNxb5OAldYRlyBi+HQL9Ovpg3WmSWOpUKc99tijE2fJLJea5KZWZMkJcVhVHH/88Z3xNg1i3LT3igk6WIvgnmYWI9YXc7aAGUlss/c9n991112BWD5Yzy266KJjJeG+pvVFEzqs3bDexGqJsAHEyEoFkKaN8whYvKP4iYXPJZdcEuu1zz77dMR96tQUizObC1hbMSf43e9+FzidGOt/xHAOD7L+yk+zFGyCQGf1evHFF6MlMXWjXoQq4LAYrvSdlo6N1o+b1kfrfLfqu7sTkIClniECgyMgAWtwbEtzthclwhUBQ4kdYRefNWmCbuVOTx68+uqrY1yWZZZZJn7c5AlBurv617/+Ne5W4grSlDrZRJQ+xc74yy+/HI+krmNH3MrCd2Pyf8ABB3TiojVtkW39vo0CFm3x4IMPxsDnuHg2dUxKB2LrX88991wUD+h7tpgpHbAzv8HGKAQRrA6mmWaa9wnUTRmvDLUtRBHncE0jWPMGG2zQyJiQqYWVian8jZOGsRqh3RANUqEn8y73vuKl70mz4LnzzjujFd3yyy8f1ltvvc47s0l90d5ZaZk5cABLM4QsYgXi7poGD895/pZuJKW/U/5HH300nqDJuM/phSuvvHInTEJT5qdpP7T31pgxY6KLK/O3WWaZJfZFxsj0vZbOP5rUP5s2Towv5ZWANb60tOpZBwEJWHVQ/7/vZBKLeMWukIlX6Ys35wlQEVtabiblCCS4R1x44YWNF6+oQLq7fPbZZ4d55503LLXUUo2zlqNtOA2SmGSf/vSnaxBJ3wvvvff/ew+uJk8++WT4zGc+0+kjErBqHJC6fDUL689//vPRSq7pIrTFhrIYKuecc048Wp76pdYTebVAf6UxkQRrpb333jtaGzS5bsWFKEIIMYlwtceiokmLTGubVASwwNTPP/98PH0Ri9Qvf/nLjapXUWy0ccIOULDPL7300mgJg+UvQfqbNL9JBceilRUB+okjNcMMM8S2w10t97Ey3dCirKkbnbXXO++8Ey21CdDPJuQaa6wRBVau3K0Di26B45fsHwAAIABJREFUZjlvFvN/+tOfoosh7q2EgkBcnWSSSYZukd7f6K67m0ZAAlbTWkzlbRIBCVg1tRanC3IiEab1M888cyyFLd6bNClPJ+M2QacexL064ogjGi9MpPWz37/zne/Ek2/SE85q6kY9f21qFs9OPwtAJtx1WGBZX8eiYuONN44717lP+MtAt9ECy9oJdztOeGqaYFBss/QZsLGKMRhrpYknnjiOv7kvzMbVD+39wWKbdwibI/vuu298voquzk0Ris11K3V5wjKE9wtu3FhSpO/Osue0zs+Lli4mHKRunr/+9a+jtdJee+0V5phjjsYIWWl/Sp+z9P1pli5YL//tb3+LcaSIfWhWS91+1tle6XcXxw4+MwHOPsNKkLGEcXKLLbYIc801Vy7FH7Ec6fu/W7vZ57iD8syx0YoFJHXL/RCe1GXcNi1S4c76LAId7zeELE7LJvj7RBNN9D6BtSljZvadbjwqoASs8aixVdWhE5CANUTktrBgUo7rCmbniFdMEpq8cAJhGsiUY5o5EQZxgqtJQs9I3cFcI/lJXCAmc0292OUnODIT8DoC69puKCcgYU2R+0S4l3Zuq4BFfyfQL4uzueeeuxcUjbqHhRlj8ZlnnhnHsCYfNFEET30QCThxETcnE3rsfVOXeO3tIKkVLO9L3JuwMmM8s3GMv9tCs2n1SxfcCFiTTTZZIDYm4moxZpH9v0mbXal4gGUndWT+Qx8lRqbNgdLT5bx9pY50tIn1UdxCcZ1ko2v66afvtF8qVjatf9r4geUqIiQHESy88MJhiimm6MxhqX/aV5s2ryXsBfM7Di9BhMRC1+pgbZtuNBct2erod/rOfAlIwMq3bVSy5hOQgDWkNrTji1kgETx4yy23jLtZ5t7Rlt0dxKrtt98+xpexHdduO3tDwl7p11APYl4QhwWT86ZdJiRutdVWccFeh2uR9XMWMFtvvXV0UWjD1UYByxYinHC3+eabh4suuqgNTTVWHRiXL7/88uhO2zaBjmft7bffDl//+tfjuEVdTSxu4qZCGkMK96YJJ5wwugE9/PDD8UANW2DXJcyP9uGwTRITOXjueM9wYizWIeYCmy6omyRgFQUb6kM/ZKPri1/8Yhxj0qtpAk86hyMoOm1zxRVXREGEsAN2El43S7zR9p1hpTdxEQ+Cf/zjH/FgBcRxxCzindpcj/I0bWM2FaioHxuxvNfxksBqPRXj2jJfH1a/GV+/RwLW+NryqvcwCEjAGgblxD0Q8YrgkcRPYoLDBI4XPZPxpl/Ug3heBOYmVoLtSKa74k2to01Y2JXjqHpMzJt0pSIiFicWvHrY4qJ9HyeL8a+JQmC3dm+jgJVO6Nddd93w05/+NO62t+WyZ5rF5vrrrx8uvvji6P7Tlsvaj6DFHBKSxiNMrQiaUt900ZhaK3EoBacUUj9z62qiFU+6+Dd3OhbSN910UzzN70c/+lG0yjKrjzo2IKroK6mAY/lhiUscKTY1ODCCq0ninImnVm5rI/6PEHnrrbfG9qN+a621Vgdjk+qY9s+0DXHpxaKb9wNeBV/4whc6QlaT4pylITDshELq+Ze//CWepM0GDvNb3oVpvSRmVTEqtDMPCVjtbFfVKg8CErCG1A68HIm3QiBM/tllrg9NnYxaPXiJ/+Y3vwkcW8yOamoqP2yRZBBNahNSTOdx62hae6WTT6yeNtpoo46rzTAnYOY+yDHkxNJoy9VWAcsW0o888khciFnA/ba0mz0XL7zwQjzljlgobbrs2WaRue2220aLJcT3dHxuSn27WXfYuMyBEMTEIkD4EkssEReYwxzXqmCY1q+Y32uvvRZOPPHEKLASg9GEkqYJICPFu6I+iHXXX3994N2w0047hYUWWqhRIlYxEHpaV+qH1SBB7H/xi1/EcZTNsCa5LKcCT9rvrJ7UD7fJX/3qV9Hyk3fi1FNPXcWjMZQ8xvX8Wf+855574oEmTzzxRPjKV74SVlhhhY5Va9PGm6FAHc+/RALWeN4BVP2BEpCANUC86YTmu9/9bnzZceJVEyefRUypdQa/s2Bg9+3kk0/umFo3aXLdSzdgF46YCLZA6iVNbve8/vrr4fHHHw+LL754LUWzSR4LTdyamrRDOy5gbRSw0voylhEQ/OCDD45/tme+lk5U4Zemiw5OgVtxxRXDIoss0pr6WVvxk2cflx+EOix5zMUHBk2MqVTsBljS0YZYCeImjeVvKiI00SqrWMfbb789nHfeedHlziyV7J6mP5M2p6AdsVZ69NFHY4wzDhsxoZKfZtFt86gKh4OBZ8Vzxr9bbrklXHPNNfEQgs022yyegGeiq9WraYKIlZf6YbWExRKnUWNlveaaa0YvAxtn8Dygvmmdm/JeoQ4IdBy4cPfdd8e+yfOIKJnGFE3nv0X34IF3NH1BFgQkYGXRDCpESwlIwBpgw/Ki48WFS92iiy4a1llnnc6EuomTrxRVulvFixoXFdwjCcraNOukXroAbUlgz/PPPz8GnG2aOGcTRybNxOKo64Qk+g0Bwb/0pS/FndqmcRypr7RdwGIcw/WZxTP9364mt58tuNIDKL72ta8FAjBPOumkrRCx0kUli0UWlJxAethhh0Ux3sbxJlosjfQsMq4QjJkg4dNMM028rU0B+hnL2SjCahBBcrrppmtNX6WtTFhFcEUwn3322cOXv/zlTlsWLYGaNAZZ2W3+d++990bXu/nnnz9ubtKWXE19HlPRzaytiTF43XXXRYEH7wM7eTIVl9P4dr3Mx+q6p2ilRR2IBUZgezYGaceVV1459tl0jm9cmi4y18W9qd8rAaupLadyN4GABKwBtRIvKibNLIYIDox4ZTvd7CA2LUBpEZO9yHmBP/XUU9H0n8VfE11TeukC1HefffaJLkZN2xmlfraDjRXNjjvu2Jko91L3Ku+hHMSsefDBB6O7T1uutgtYtNMNN9wQXV6WW265juVckxaP3fqajcO2Q47Vx4033hitSZt2glbZs2Tj1rPPPhs3VQi8TADmkawGyvLL8XOrI0Id4/W3v/3teFhK+r7Ksdy9lgnrJALx028ReLDs/tznPhfjDvH3pj+PuBEyxiDgmADy5z//OQquWPGwiUQ9U8vdptQ5tcKxulk9eSaZW3CYBBsFM844Y6dLNKV+RRdKE3Ds788//3w44ogjohss7nfUlbZORb2cBZ60nGldrQ35G66+nDxJ3EFEV9xgp5122tiWOdet1/FH9/VHQAJWf7x0twj0Q0ACVj+0+rjXdknZiWGCmYoeTTwBaiQB66233gpzzDFHYJKJibhZX7XtZU3MA9qUulLHprq+cXgAsco4mr2OC4bEOGFy15SJeS+c2i5g2YKLyTkxeNrQdkULLNqZemL1wUKZ3fQ2HK5h4k1qbcWmw5577hlPI7WxoInCfPHZtH5q/ZNYSriFMt605ULkoV/apsT9998fNyWIrcThKU2/rJ+aYGDWSPTZVVddNb6/pp9++sYJdkUrI9vkRMSxOhNnkOeS/+M+SQyppoy13cYP66vWJ40BluDEhGWspU2x6rX0uda36AbIPJ62s5+pizJ1QWDeZZddYr0Qmmebbba4YaBr/CEgAWv8aWvVdPgEJGD9H/PUxNf7Ak3zOPXUU+Pkg9OtRiN2pFZbnu4xqEWJTbhY0O68886dQJb9ltEm4Uxsqgpomu5Sj8ad0XbZ+IkISfBzJiDeUxWtLWyRxf+HZeVh3znvvPMGAnKX9fG0rKPpv936AxPzKoJlF90x+ul71n9JU8aiLF8mrtQJd55057wsXdnnqWtbv2VM26/Kfka8FtwlRrPYGMSYlFrYjCbWkY23CB8Ezbb+ke64j6YtqnQNsrGz3+fTWLHpwPHw5so7Gm7d+jL52fjbLzPyYxznnZC6GpU9M90ELQJLYwlNzL00fpJ3k2UQ/dfEU2tLWxT3Wl/u51383HPPxboas377xkjfl/a10da/mD59dsvqSz05lZFTJzmQAOuW1IKwLH2vn/dTpnExs7L1aplu4wx9HzdRnk1EZnMttOeCfmyWP542rmK+W6x3yqwXDwPuJ5YUGyIcMvHDH/4wtqfVp4o2KJax3+cqTZ/WqVsfHmmMoy0fe+yxKGJRP55PYp6l72Wby4x2TErLNYg27vX50X3/n4AELPUEERgcgfFewEoHeXu5eSbbaVBKguQSQ4XFnl2ePElrE8deJ0CjnVT02tUo15/+9KdoTXPAAQf0mmys+1KBiA88E7FxTR4tfy9744+V2ZZbbhkXQJzg1cvkbKRypeIVDKsS7XppAE4JwjWKI9l7udJ6mijYS7px3cOiFlH3iiuucGdlIgP9ZTRtW7TW6DcvGztMwOKIbeJ7VHGlz4bnuSjWjTL1W79u9UDEnXzyycPqq6/urqa1X9XirQkmHl5WGRtv77rrrugyiZWABRsezTNg7WHtUEVbpAu8fkSF9J3y8MMPx/iFiAJVlMk4pv13NJsTVi/vmGt1ffrpp6OLO1ZKvJvJbzT9LxXPq3q2rD37yS+dv5COuFj0WeYen/3sZytv0yqEsWKZ035c1geN+z//+c849+BEOIQPi1lXlr6fQWs0Ykf6HJiI26tAnPZ56kl4BsQ6rHyJpWoiuHHzjndV1K/I08a5XstkdcXljoDotCWnWBNewNp6NM9pOq7381x16yfFsagXgSgdB7mferKByCEFWGQRN9ZiqnrHuLSsxXeCVxDr5znRvSMTkICl3iECgyMw3gtYHL/9t7/9LcarIrYCi5ReX75ps9ji5sILL4wv3o022ih+nO4m9Tu5okyf/OQno4uH90WUTopxg7P4GaPtUoghmLofe+yxkZ3H0qlo1cALvV9G3epBeViwwN6ExX7rm07EsFSgXLQFeXonVNaGiFYIHf0sOvstf7f7mQyfffbZAaGllwuOlPGZZ56Jbeytd/pdDz30UDxqG0Gwm8jSS7lsV9vuxU23335DfaxdbSe73zxMiOGZOvzww8Pmm28eXVuquMjbAsF6n31zVUaAZWHrGdeKdeG5P/3008P2228/1vjWT52Lzz3WBR/96Ef7yeJ999qzxE43l51A12+m6XN/2mmnhbXWWisuNKi3VzBNx+BicN9+y5fez3hOPfsZf1PhxcrFgur444+PFmdm8TSactl7jwM9RmNxZuXj/cx72nuZiIV7FptLFkzaLLzS9unlO9L+y/3wJ87laC/yxU2O8vQadD5tT+u7tOEvf/nLcN9998XTGHlvjeay8QdejG9YIY9mLLH6UVebN/S6eLf3EN+PexqxzhDViau0zTbbdJ790dTX2pRwATaH8G40UVfG35deeqmnjS8TVlPBm9+xVOLkwltvvTXGAlt22WVHZQVr/YbysSlXxcYLefGsMs+wMamsHWh/7rUxgzbFJfb3v/99bN9NN900nkI52stEdPov9fVc6TjB78wfildxDmHPDt9v7yibb5D+tttui9ZZWMYTJxcxy3j0U8Z0Lmm/895Kr37nN/18v+7tTkAClnqGCAyOwHgvYJ1xxhlxYsEEqLir2i/2dEGe7pLZ7/3m9+KLL8YFFMEuuTwiUfrSXWaZZeIkrwohgnxZEIw2lpKJAJzux0k1VVy0A26NLFRGs+i0yStlhJkF3x9NGcmL+A/sqHrL5v3+V199NR5vDZeyy/oNixYmV5xcVsVlcSS8ogxlsMUOzwMBt3Gx6HdBRb3MSsHaod+FLGWxNCaUVvFsIZZgKXLVVVd1nvt+2ad1ufLKK2O7VxF/g3wpH899FeMlQW8XWWSRsNJKK/VbxbHuN5FilVVWiUKiV8AyCxMyp035v7Vpukjot7Ckvfjii6PlYb99daTvQkRcYoklOq5EvSxQ0gWy1ZWftKnFMOy3bt3uv/TSS8Nll13memdZfsab9wLWcIxD/V4mBKXjjglXXhcs40b56COcdMjic7QX+bEhROiBVMDoJd+0LW1cos78qyKOG/Vk4wHX2nnmmWdUfdi4YcWJwJaO6b3U1epH+1m7MhehnlU9W3fccUc44YQT3PMuKyPtwhjH4Sk8q72+Y9Kxxto2tT6zUAa98hrpPsQmNpVwVxztRZlhxmYEIlEvIlY6Dyi6zNOm1L2K/ku/wL2WAPkc6sDVy3hZZJJaVK2wwgrh61//eueWkfKzNk/HDWtfS4NAyTvVu1ZI86OMWNkzZlr+nrXDaPuD0suFUH1ABAZJQALWGWdEc2Veuunue7/Qizsg3hdk+r0PPPBA/G8qYPVbLptI8ZPjfXmpVbHITl/KnjJZGpsQ4NpG3LCqLqxEEOu8i850ommTgOJExDMBon4bbrhhwFLPm97DCM64fM4666wdk/WyfKgvk8qFF144pq3isp1IbxyxtAyUDRN8TlPr92J3l3R77bVXTzvjZfmbgFLFAopFBUGniX8ymsv6KwLWkksu2TmGvoo8iwvmfvJMn0ksJZ988sk4No32Il8CAiMQj2aXPa2blbVXC5Fx1YG+yilcVV3EPNptt91idv2MJd3Gtirql9Zr3XXXDZdffnklVcWF6s033wzk2e9VfC93a9t+80zfqVjXILCxMB7tRVmxEMOl0/uOrnIcSutDvljpYf2DgNVPf7N80rZAEMPFkbbt9x1t9xfnICbweMpWbLsDDzwwbtr0W7ZiPryj6LtsRnDyXi9XWr907lFV37X+S35sklJPrE1He5mAhaiDGNNLOxTr2q3uoy2Xpef0YzaqR2MtmfY5+u+1117b2cjpVt+R6keZUqv2qubT1rZs4hDyomjtXBVL5dMbAVlg9cZJd4mAh4AErDPOiGbKo7Uk8sAvS2MC1gILLFB2a0+fcxoTJ/hUscju6Qv7uKlqAQvLuq233rqnSVQfxazkVtxLL7jggqGWjYkMcRdw3evHXQtrBSxkrC9WAqCiTJj0ERj1qKOO6jtH6nXkkUfG4Ou5XSx4ELAQYkZ7wQgBa+mll87yhDLcU8eMGVOJgAUrBKyrr77aLWCNlve40hPD5rDDDqvsuf/BD37QEbAGWW5P3lgkjSbOXfqdiBwIRVVYOXnqMq40JmB5xLVu+eLGiYt3L4v/qutSlh/BpxGwPJZwxbwRsMiLDbUqF+9ldej1cxOwer1/XPfh/sqY1KuAVcV39poHLpj7779/OOWUU3pNMuJ9JmBtu+22USjK7cI1kbnPXHPNNaqimSiFgMU7OpdnNX2OvvrVr8ZwEbrqJSABq17++vZ2E5CAJQErix4uAWuwzcDkBsaY+BOzqVcRUwLWYNulW+4SsPzMJWD52VWZUgKWj6YELB+3qlNJwOqfqASs/plVmUICVpU0q8lLAlY1HJWLCHQjIAFLAlYWT4YErME3AzuPjz76aM/iFSWSgDX4dil+gwQsP3MJWH52VaaUgOWjKQHLx63qVBKw+icqAat/ZlWmkIBVJc1q8pKAVQ1H5SICErC6EMDVTC6E9T8cErAG2wa4urC459Sbfi4JWP3QquZeCVh+jhKw/OyqTCkBy0dTApaPW9WpJGD1T1QCVv/MqkwhAatKmtXkJQGrGo7KRQQkYEnAUgysDMaBOmJgEayVmDnEfernkoDVD61q7pWA5ecoAcvPrsqUErB8NCVg+bhVnUoCVv9EJWD1z6zKFBKwqqRZTV4SsKrhqFxEQAKWBCwJWBmMA3UIWI888kh44oknwuc///m+go5KwBp+h5GA5WcuAcvPrsqUErB8NCVg+bhVnUoCVv9EJWD1z6zKFBKwqqRZTV4SsKrhqFxEQAKWBCwJWBmMA3UIWH/4wx/i6TtTTDFFXwQkYPWFq5KbJWD5MUrA8rOrMqUELB9NCVg+blWnkoDVP1EJWP0zqzKFBKwqaVaTlwSsajgqFxGQgCUBSwJWBuNAHQLWhRdeGDbccMNofWXHQPeCQgJWL5SqvUcClp+nBCw/uypTSsDy0ZSA5eNWdSoJWP0TlYDVP7MqU0jAqpJmNXlJwKqGo3IRAQlYErAkYGUwDtQhYB188MFhn332Cf/973/jKYQIWb1cErB6oVTtPRKw/DwlYPnZVZlSApaPpgQsH7eqU0nA6p+oBKz+mVWZQgJWlTSryUsCVjUclYsISMCSgCUBK4NxoA4Ba6uttgpnnXVWrL0ssEJAmCOg/d57751Bjxi7CBKw/E0iAcvPrsqUErB8NCVg+bhVnUoCVv9EJWD1z6zKFBKwqqRZTV4SsKrhqFxEQAKWBCwJWBmMA8MWsJjYrLzyyuHGG2+M1lcSsCRgZfAYxCI888wzYcyYMbF/VnFJwKqC4ujzkIDlYygBy8et6lQSsPonKgGrf2ZVppCAVSXNavKSgFUNR+UiAhKwJGBJwMpgHBi2gPXyyy+H/fbbL5xyyikd8UouhLLAyuBRkIA1ikb4wQ9+EHbbbbdR5DC4pBKwfGwlYPm4VZ1KAlb/RCVg9c+syhQSsKqkWU1eErCq4ahcREAClgQsCVgZjAPDFrDuv//+wCmE22yzTc+xrwyTYmANv8PIhdDPXBZYfnZVppSA5aMpAcvHrepUErD6JyoBq39mVaaQgFUlzWrykoBVDUflIgISsCRgScDKYBwYpoDFpObXv/51mHrqqcMiiywSay8XQrkQZvAYxCLIhdDfErLA8rOrKuVbb70VrrvuurDuuutWkqUErEowjjoTCVj9I5SA1T+zKlNIwKqSZjV5ScCqhqNyEQEJWBKwJGBlMA4MWsAygcp+nnPOOWGDDTYIH/nIR/quvSyw+kY26gSywPIjlAWWn12VKWWB5aMpAcvHrepUErD6JyoBq39mVaaQgFUlzWrykoBVDUflIgISsCRgScDKYBwYtIBFFf/3v/9Fd0H+HXvssWHnnXeOAdz7vSRg9Uts9PdLwPIzlIDlZ1dlSglYPpoSsHzcqk4lAat/ohKw+mdWZQoJWFXSrCYvCVjVcFQuIiABSwKWBKwMxoFhCFipFRYB3JmQW+B2uRDKhTCDxyAWQS6E/paQC6GfXVUp5ULoI/mf//wnrLnmmuGGG26ILu1cvR4s4vvG/lJJwOqPF3dLwOqfWZUpJGBVSbOavCRgVcNRuYiABCwJWBKwMhgHhiVgMaHB6mq77bYLJ598smuBIAus4XcYWWD5mcsCy8+uypSywPLRlAWWj1vVqSRg9U9UAlb/zKpMIQGrSprV5CUBqxqOykUEJGBJwJKAlcE4MGgBK7W+wkJg9913DyeddFKseb+73BKwht9hJGD5mUvA8rOrMqUELB9NCVg+blWnkoDVP1EJWP0zqzKFBKwqaVaTlwSsajgqFxGQgCUBSwJWBuPAoAUsqshkhn+PP/54uOqqq8Iuu+yiGFhJ2yPMHXnkkWHvvffOoEeMXQQJWP4mkYDlZ1dlSglYPpoSsHzcqk4lAat/ohKw+mdWZQoJWFXSrCYvCVjVcFQuIiABSwKWBKwMxoFhCVhU9Zprrgkf+tCHYrwRzyULLA+10aWRgOXnJwHLz67KlBKwfDQlYPm4VZ1KAlb/RCVg9c+syhQSsKqkWU1eErCq4ahcREAClgQsCVgZjAPDErBwF2RBtN5664UZZ5zRVXMJWC5so0okAcuPTwKWn12VKSVg+WhKwPJxqzqVBKz+iUrA6p9ZlSkkYFVJs5q8JGBVw1G5iIAELAlYErAyGAeGIWD973//iy6DdgKht9oSsLzk/OkkYPnZScDys6sypQQsH00JWD5uVaeSgNU/UQlY/TOrMoUErCppVpOXBKxqOCoXEZCAJQFLAlYG48AwBCyr5gEHHBBFLMQszyUBy0NtdGkkYPn5ScDys6sypQQsH00JWD5uVaeSgNU/UQlY/TOrMoUErCppVpOXBKxqOCoXEZCAJQFLAlYG48AwBCw7iVAWWN0bXEHcM3gQQgjPPPNMGDNmTFh55ZUrKZAErEowjjoTCVg+hBKwfNyqTiUBq3+iErD6Z1ZlCglYVdKsJi8JWNVwVC4iIAFLApYErAzGgWEKWFhg8c97yQLLS86fThZYfnYSsPzsqkwpActHUwKWj1vVqSRg9U9UAlb/zKpMIQGrSprV5CUBqxqOykUEJGBJwJKAlcE4MGgBy+JfvfLKK+Hcc88Nu+66q7vWErDc6NwJJWC50QUJWH52VaaUgOWjKQHLx63qVBKw+if6/9g7C3DbqurtT7qlRVBBuru7QxoRkJaSEkRaQEAaLkhJSklJKCndYAESkle6pENEkEvo9/zm3/d848679l5rzbXOOfveO9bznGefc/aa9c4xY7xzjDGdwKqPWZspnMBqE8128nICqx0cPRdHwAksJ7CcwOqBeaC/CSyayGbmnnvuCR9++GFYb731slvtBFY2dNkJncDKhs4JrHzoWk3pBFYenE5g5eHWdionsOoj6gRWfczaTOEEVptotpOXE1jt4Oi5OAJOYDmB5QRWD8wD/U1gyQLr9NNPD0svvXSYf/75s1vtBFY2dNkJncDKhs4JrHzoWk3pBFYenE5g5eHWdionsOoj6gRWfczaTOEEVptotpOXE1jt4Oi5OAJOYDmB5QRWD8wD/U1g0URIrN133z0cddRRYZJJJgljjDFGVsudwMqCrVEiJ7Dy4XMXwnzs2kzpBFYemk5g5eHWdionsOoj6gRWfczaTOEEVptotpOXE1jt4Oi5OAJOYDmB5QRWD8wDA0FgsZnZcccdw9lnn92oxU5gNYIvK7ETWFmwxUROYOVj12ZKJ7Dy0HQCKw+3tlM5gVUfUSew6mPWZgonsNpEs528nMBqB0fPxRFwAssJLCewemAeGCgC68ADD4wWWGxs3AJr+I6HmDvuuOMCGPXa4wRWfo84gZWPXZspncDKQ9MJrDzc2k7lBFZ9RJ3Aqo9ZmymcwGoTzXbycgKrHRw9F0fACSwnsJzA6oF5YCAILJp5wgknhD333DObvCIPt8AaeIFxAisfcyew8rFrM6UTWHloOoGVh1vbqZzAqo+oE1j1MWszhRNYbaLZTl5OYLWDo+f4J8xrAAAgAElEQVTiCDiB5QSWE1g9MA8MBIHFZuZXv/pV+P73v9+oxU5gNYIvK7ETWFmwxUROYOVj12ZKJ7Dy0HQCKw+3tlM5gVUfUSew6mPWZgonsNpEs528nMBqB0fPxRFwAqsAgV/+8pdhiy22COONN178FlerXHertkXs8ccfj8G4uUWOz9y6yYVshRVWCHfeeWcYc8wx265q4/yI13TmmWe2gj3tPffcc8N2223XSn6NG/e/DLTBsARWf8ga5Tz99NPh5ZdfDt/+9rezqq+6fvnll1H+nnjiiZ7CkkZRx/322y+6AtZ95EL4k5/8JHtc1S2z6vsQWBtuuGG4+eabYxs1L1VNL2yU9ne/+11YYoklwle/+tU6WfTbu7olkwKQ0RdeeCGsuOKKjcsjXwgscBtnnHF6ap6jL/bff/9wzDHHtDaOfv7zn4c99tgjttNi2hjIFjJYb731wrXXXtt43aIqt99+e/jkk08CefbKozX1X//6V7jjjjtaqxsE1i677NJzcxK4n3TSSWG11VYLc845Z2MZ/uKLL2Je7Ec0T+XMc/0lDxBYP/3pT/vc73PWacYkD/P5ddddFzbbbLPGuLXVXsnvW2+9FQ499NBwxhlnNM6aPE855ZSwww47hAkmmKBn2krD6Isnn3wy7vNnnXXWRnUTdmussUa46aabGslIY9DN3hIZVd223HLLcNFFF7WVveeTiYATWJnAeTJHoAICY/zX7h4qJBjVXjnnnHPixoIFF6V23HHH7ZkmPvbYY7Euc889dxhrrLGylBTbvSuttFLcbPcKgcUmlrqw8LYRcFwdR5vp1+233z7+K2fz2R9CQL34Qd4uu+yyRrGputWPMti8zDPPPGGBBRbI6m/VFQJroYUWCpCpvfKwGaV+jIm99947HH/88bWrxlgfMmRIOOCAAwJt5CG/XnhQeL7zne+EW265JWvM0wZtZGnbDTfcEJZaaqkw1VRT9ULzhpP7V155JTz//PONCSy1d7nllgu33XZb34FELzSYPmCeg8AiJl1bcnbiiSdGAquX5jjhvf7664crr7wyEonqm7p9oXT056effhrWWWeduln0y/t2Tf33v/8dCTYszpo+zGtnnXVW2HnnnbMxa1qHTulp88knnxxWX331MPvss2etKTZvEVj0LWNDfd0ra/XPfvazSGA1IYfVpg8++CDceOONPUVgiVx79913wyGHHNIKgUWfQoRtu+22Yfzxx499OvbYY/eXSNbO99FHHw0TTTRRmGWWWRrNmSmBpfk3d56r3ZAOCbRnQ2a32mqrcOGFF7aVteeTiYATWJnAeTJHoAICoz2BhQXWpptuGhc2e4JRAbt+f+XBBx+MGwEILJ5c4gkFirax+cQ6oS0FqikAVhFg03766adntzGtiyWwmtazrfTaYCBvl156ab/1A5vTH/3oR1FhnnbaabMxJR+InsUWWyz89a9/bQuGxvnI2oS6oWRg1VL3EYGFBZY2oHXz6K/3serASo9T+yZjVcQJyhN9OPXUU/dXlWvlq3oxJ7344ovhpZdeaoXAQi44FQc3Ttpz58tajanxMtaCktU2FHUb426wlacUBgisq6++Oq47TazDkJW77747MCZ6zQKLNssCi/Y2fcDptNNOi4c5vXSQRruQr1NPPTWsuuqqrRFY5IUFFjJCPzeZ65pin6aH1IHEYp2AhM19aBcHEtdff33YfPPNc7NpPR1kE+TS66+/Ho488sgod00fWWAhv8y/bcxxTetk0z/yyCNxPz3HHHM0qpslsNhP95rs0mYnsNqUnPy8nMDKx85TOgJlCDiBZQisXjsFfPjhh2P/Lbjggn39WHdTIOWBtuFew2lxryl21G2nnXaKBFYbm9jPPvssXHzxxWGbbbZptFEpGzw539PWjTfeOFonNFHsysrG2u7WW2+NeNaVGfKWyyqbM+Svlyyw2HyrXfvss090IazbRhSTY489Nhx00EFlUA749yg8G220UcD1L3esai6jHyGwllxyyTDllFMOeFuKCtSGn08ssHAjxL25ySMyHLckXNcmnHDCJtm1mlbjHEL56KOPri2rnSqDBeFee+2VLSOtNjLJbIMNNogEVhNiTeMcq2EssNZee+3+rHKtvNUuXBvvuuuusNZaa9VKX/Qy7T377LPDD37wg56yXFFdcQ/rDwILLHPnucagd8hALoT6uu76QjpZ9jKfYwXLwVWvPFrf33777XD44YcHXFebPiKwsHznQLjXHg6EJ5tssuhC2GReUlrCM9CvyK49lBnMdqtuW2+9dYyB6s/gIuAE1uDi76WP2giM9gQWFgDEC+rFh8UIxZNFVxuonI2UFAEIDX7PyaM/8JHSyQaAeq255pqtEFhsznolNoHFTRZYk08+eezX3JhmZX1B+4nrdskll/S9mtvnkIHITS8pGMIREot6sUmoS3wOGzYsuuhxCk1+YFY3j7J+yP2e+uDSTFwoxkWOBYC1bvz73/8eLehyZSC3HVXTLbzwwmGaaaap+nrH92gzskrfIhe9IrNSbpCxtuY4QOD0X65AjcFrMQPJ77LLLtvIhRCSmfGJhd5TTz3Vs/ILMbz44os3RhDcfv/734ePPvqokYLduCIFGdAPutADq96cR8o1n4xRLOt6UX5pG+1lXZFVfpO5BBdC+rVX1hf1ndYI5JcYiU0f8nvuuefC0KFD+/Y2vbTmIGvMSZNOOmn2+LLrKmuNwhk0xa7N9LJ6hWDrrz1mm/UdlfNyAmtU7l1v22AjMNoTWIPdAWXla8HMdW+0C67K6qVNRVq/tupmcSvDeKC+txt4S8K0XT55E5gVF4imJ429KDPUqancCP8mxHDb/ZYqFrljnnys5WUvWjj0B3ZWJtqaR9qqp+rmfVEdUc1dTS4wqV7a4L8pZVhxIQe/Rv+/BrYvcskcu/712vhMsbbzZ25de3mNSdeI3DZa3ERG2phmvSLDmkOa7rvsGtPLc3kvr4W9IhMDUQ8nsAYCZS9jdEXACawe7nlLPjQhIqyrWpN82obKbmjJu41NFPn0YkyClJzoT2IIXH/961/3uSzk4JoqG/3p7lhXrtqQm7R9vTguRNTl9J9VUJrmU7d/BuP9lLDuxf5UnXp5fmqj72xfND1IaIM4aaNNA5FHL8ls2l4p/k2DmquNTcj5kaUvNM57kUxoYw0t6ode3WtqPbT7zLrrajp/99KeqGi82viDvTy3DMR4HqwynMAaLOS93NEBASeweriX7YlsLuGRblTaJIragq7tk1ltGHvthKwtQrIMd2JucIMlbopNNi79tcktq3/V75vITS+3LVV4cvrQtk/55VpOVO2PXnkvB6/+rnsTWe3vuvVH/m0q7U1JsP5oX3/k2ctkXVv9ObKMA+ppCYq6ZIfkoy3c+kPeyLPNudK2tdf2Xm211c5FbWLXdv8O1F6z7XqPavk5gTWq9ai3p5cQcAKrl3ojqUtbm72RYaFtu4697HbSVr92El2CHk833XSNb9uxm/DcDXx/Da+2MWxb/tpqd9N6tY1TW+3q73ya4tZm/dI+6KW6tdnONK82ZK/XCYC28etV2WhTce/VNtq+tGRibhyhNuS/bfkqyq/t/tDei7J6Zd9g55Gm9Wobr/7s45Gprv2Jw2Dl7QTWYCHv5Y4OCDiBNTr0srdxtEKAG5S22267SGL1ygZytOoAb6wj4Ag4Ao6AI+AIOAKOwGiLgBNYo23Xe8MHAAEnsAYAZC/CERgoBLi1jqvOr7322vCVr3xlODeIgaqDl+MIOAKOgCPgCDgCjoAj4AiMrgg4gTW69ry3eyAQcAJrIFD2MhyBfkQgjXcw66yzhmeeeSaWOLrEPepHeD1rR8ARcAQcAUfAEXAEHAFHoDICTmBVhspfdARqI+AEVm3IPIEj0FsI2Pgkw4YNC1tvvXW49NJL+9wH3Y2wt/rLa+MIOAKOgCPgCDgCjoAjMOoi4ATWqNu33rLBR8AJrMHvA6+BI9AYAUgsfj799NNwxhlnhL322ivm6UE8G0PrGTgCjoAj4Ag4Ao6AI+AIOAKVEXACqzJU/qIjUBsBJ7BqQ+YJHIHeQsBaYH3wwQfRfXDxxRfvI6+cxOqt/vLaOAKOgCPgCDgCjoAj4AiMugg4gTXq9q23bPARcAJr8PvAa+AINELAXhENeTXVVFOFKaecMuZpya1GhXhiR8ARcAQcAUfAEXAEHAFHwBEoRcAJrFKI/AVHIBsBJ7CyofOEjkDvIXDeeeeFjTbaKEw00UQewL33usdr5Ag4Ao6AI+AIOAKOgCMwiiPgBNYo3sHevEFFwAmsQYXfC3cEmiNgXQS33377cNppp4XxxhuvecaegyPgCDgCjoAj4Ag4Ao6AI+AI1ELACaxacPnLjkAtBJzAqgWXv+wI9CYCchWcZ555wuOPP+7WV73ZTV4rR8ARcAQcAUfAEXAEHIFRHAEnsEbxDvbmDSoCTmANKvxeuCPQHAFZYA0bNiwsuuii4bHHHmueqefgCDgCjoAj4Ag4Ao6AI+AIOAK1EXACqzZknsARqIyAE1iVofIXHYHeREAE1ttvvx2OOeaY8POf/7w3K+q1cgQcAUfAEXAEHAFHwBFwBEZxBJzAGsU72Js3qAg4gTWo8HvhjkBzBOQ++Pzzz4e//OUv4Xvf+17zTD0HR8ARcAQcAUfAEXAEBhgBe7PyGGOM0Vrp//nPfwL55eZp442qUuQ55phjtlLH3LxsvdI65uZJg4ra20pDW8ikl2/YFm4rr7xyuOOOO1po7f9l0aQv00r0V982zbfNNqrNTeuUYtdGHduuU2tCNhJl5ATWSNRZXlVHoBMCTIaPPvpomHbaacPXvvY1B8oRcAQcAUfAEXAEHIGRCoEvv/wyjDXWWJE84cklm2yjuxE8VcFRHqpXmmcuiWXJOhRj2l73KWof/1N+OcqybS990IbSLhLG9mtO/6btbUtOrOzl1It6WNzWWGONcMstt9TtzsL3Rb6Sf66skTFtJH1u+zqROU3Ga0pY01b1qfBsq75tdEbTsaVxQJt6sX1tYDQQeTiBNRAoexmOwAAgcM0114T1119/AEryIhwBR8ARcAQcAUfAEWgXAUsAEBahLcUVxZ0nhyAqauHHH38cJppoovgVeY899th9pFtdRL744ouYdpxxxqmbtO99S+oQD7XpTdQiSvj87LPPwrjjjptdN5vw888/72tnLikmxZ98qRu4tSEn1A1yp6mMiJD5zne+E9iXW4ImB0TaRjupWxM5U9nkh4y01acaA7m4iSBVH3766aexT0Vk5/atxgRjdeKJJ27cD2qnCEDGLf2R+1A/2jjllFO2Ir+59RhZ0zmBNbL2nNfbEfgfApqkhwwZEvbee2+fCF0yHAFHwBFwBBwBR2CkREB7miOOOCJMM800jduA8v/OO+9EUmeqqabKco2zllcosOy3DjnkkPDhhx/2WbTkWsa8+OKLAWV4ttlmy1ayRQah7J955plh5513jnlK+c8hAURyfPDBB1HJbkrE0JH3339/WHbZZSOBwgNmdfOVNRLpzznnnL62NhWU22+/PSy11FJh/PHHjwSKSM86+aotYH/66aeH3XffvfGenPa+9957YYoppoh55cqZJQzvuuuusOKKK9ZpWuG7tBfi78477wyrrbbacNaTVTNXfzJOGaPnn39+2GGHHaKM0A9gmdtm8rjiiivCZptt1piYpD2EaVlkkUUioQh5lVsvkXZvvPFGOOigg1qpW1W8R5X3nMAaVXrS2zFaI8ACwIR/7rnnjtY4eOMdAUfAEXAEHAFHYOREgL2MrH+OOuqocOCBB7bSkN/85jdhnnnmCbPPPns2oSACgM8FF1wwPPLII30kTG4laetVV10VibBtttkmq27kYS2mNt5443DllVfGKll3p7p1lLvZaaedFnbdddesuqVl7rPPPuG4445r7Dol0mOTTTYJl112WTaRYOsHIQkJA4mVQ/gJb6VdaKGFwsMPP1wX9sL3hw4dGj766KNAnk1ILBFsW221Vbjooosa100Weqecckqgb3MfyTCfuF5eeOGFMSRKrpWe+gKCaIsttgiQk7lkk23TpZdeGgjO/9WvfjWLCFdekt/DDjssHHzwwdnylov3qJDOCaxRoRe9DaM9AkyGyy+/fLj77rudyR/tpcEBcAQcAUfAEXAERl4EUGSPPvrocMABB7TSCKww5p9//khg5T7WTQ8i4aGHHmpF8bz66qvDu+++G7bffvtW8oPAuvzyy/vysvXOaTsWXTvttFNO0hHS4CVw/PHHN85LbeLSIgisNp6f/vSnYc011wxLLrlkG9lFSx0sdtp4ILAgORdbbLFWZAQCC5KojQcXvTPOOCN6gOQ+ItYg51ZfffVwwQUXxHi+uUSi6oEb8qabbtpaMH0RWFNPPXWsW9Ox9bOf/SxacvpTHwEnsOpj5ikcgZ5CgAn0/fffD3vssUcrJyo91TivjCPgCDgCjoAj4AiMVgg4gZXf3U5g5WHnBFYebk5g5d+U6gRWnsyRygmsfOw8pSPQEwiw0XvqqacCPu1tmXn3RMO8Eo6AI+AIOAKOgCMw2iHgBFZ+lzuBlYedE1h5uDmB5QRWnuQ0S+UEVjP8PLUj0BMIQF4ReLIt0+eeaJRXwhFwBBwBR8ARcARGOwScwMrvciew8rBzAisPNyewnMDKk5xmqZzAaoafp3YEegIB4h2svfbafdc690SlvBKOgCPgCDgCjoAj4AjURMAJrJqAmdedwMrDzgmsPNycwHICK09ymqVyAqsZfp7aERh0BNjocUvMD3/4w0Gvi1fAEXAEHAFHwBFwBByBJgg4gZWPnhNYedg5gZWHmxNYTmDlSU6zVE5gNcPPUzsCPYEA17ASDJCn6a0dPdEgr4Qj4Ag4Ao6AI+AIjJYIOIGV3+1OYOVh5wRWHm5OYDmBlSc5zVI5gdUMP0/tCPQEArvssks4/fTTe6IuXglHwBFwBBwBR8ARcARyEXACKxe5EJzAysPOCaw83JzAcgIrT3KapXICqxl+ntoRGHQEhg0bFiCwzjnnHLe+GvTe8Ao4Ao6AI+AIOAKOQBMEnMDKR88JrDzsnMDKw80JLCew8iSnWSonsJrh56kdgUFH4Pnnnw9XXnll2G+//cJ//vOfMNZYYw16nbwCjoAj4Ag4Ao6AI+AI5CDgBFYOav+XxgmsPOycwMrDzQksJ7DyJKdZKiewmuHnqR2BQUfgtttuC59++mm8hdDjXw16d3gFHAFHwBFwBBwBR6ABAk5g5YPnBFYedk5g5eHmBJYTWHmS0yyVE1jN8PPUjsCgI3D22WeH1VZbLcwwwwyxLk5iDXqXeAUcAUfAEXAEHAFHIBMBJ7AygXMLrGzgnMDKg84JLCew8iSnWSonsJrh56kdgUFH4LDDDgssvE5cDXpXeAUcAUfAEXAEHAFHoCECTmDlA+gWWHnYOYGVh5sTWE5g5UlOs1ROYDXDz1M7AgOOABs7+xx++OHh4IMPDvq/E1kD3iVeoCPgCDgCjoAj4Ai0hIATWPlAOoGVh50TWHm4OYHlBFae5DRL5QRWM/w8tSMwKAh8+eWXMVg7m7xDDz00HHLIIbEekFdOYA1Kl3ihjoAj4Ag4Ao6AI9ACAk5g5YPoBFYedk5g5eHmBJYTWHmS0yyVE1jN8PPUjsCgIcCNg5BVWF/hRigCa9Aq5AU7Ao6AI+AIOAKOgCPQEAEnsPIBdAIrDzsnsPJwcwLLCaw8yWmWygmsZvh5akdgwBFgYycrq/fffz+ce+65Ye+9947WWGOOOeaA18cLdAQcAUfAEXAEHAFHoC0EnMDKR9IJrDzsnMDKw80JLCew8iSnWarRnsD66KOPAiSACIE0vlBVeCEOSPvee++FKaaYomqyru8NGzYsuomRt9zF6mZMu9SmDz74IEw22WStuJhRN36+8pWvxPxz3NZs3egH5VW3jfZ98sQy6Z///GfML6de5GflgbpNMskkTaoV04IT/fiPf/yjr2515Y16ff7552GcccaJed5///3h9ddfD+uvv352P6i91IW6SUbq1i0FiH747LPPwnjjjZfdD6obeSG/k08+eaO8bB0//fTTMP744zfqV8nwhx9+GCaccMK+fmmSadoPOXnZMcnv0003XRh33HFzsvI0joAj4Ag4Ao7AgCLgBFY+3E5g5WHnBFYebk5gOYGVJznNUo32BNY555wTXn755agUi4TKIT2++OKLMPbYY4fHH388zDvvvM165X+pX3zxxTDRRBOFaaaZJhIBKKB1SQW9z+dFF10Uttlmm0jwNH1eeeWVMMEEE4Spppoq2/IHAgzMwP3GG28Ma6yxRiR4mjy0k/hQ1G/WWWeNuOXkKfc88nvkkUfCggsu2Ni6CbmiPtdff30f4VS3brKyEvlC3WacccZIiPGQH+2vK8Mixa6++uq+ujW15oJEBMeJJ564b2zVbS9t0th64IEHwsILL5zVn6lM0Q/kt8QSS0QZtGRqVfmjL2gf9bvnnnvCcsst15gQo+x///vf4b777gurrbZa1aqM8B51EunNPHLccceFaaedNjs/T+gIOAKOgCPgCAwUAk5g5SPtBFYedk5g5eHmBJYTWHmS0yzVaE9g4X61xRZbRGUPRdZat+RAu/vuu4cTTzyxFSUbouMb3/hGJE9QlJsQCqSfY445wtChQxvlI0yoG5Y/P/jBD2qTJcpDbWKjQh9ccsklOZCPkAYCB2Jy++23j22tS+YoQ+rFz7777huOOeaYKB9NHuW3wQYbhKuuuipbRqyMHnHEEZE44afJI5Jo2WWXDXfffXd23WwdXnrppfD222+HxRZbLP5bgedz67nZZpuFiy++uBX5hQCE1DnooIMa50d/0KdnnXVW+PrXv57bvL50WISut956kcRSv9TN1BKwkMOLLrpoJML9cQQcAUfAEXAEeh0BJ7Dye8gJrDzsnMDKw80JLCew8iSnWarRnsCC6EAxxs1JFgtNCI8f/vCH4Re/+EU2aWK7E5Jj5plnDvPNN1+j/GRxRT5//etfWyEnILBee+21PgKrCbnGRmWrrbaKFmJtPaeeemrYbbfdGhN/1G2//fYLRx11VCsEFu3D3Y++zSXXLIF1+OGHhxVXXDEstdRSjW4gFOGx/PLLRwKrSX+qDyGw3nzzzWjl1ISAFfG15ZZbhgsuuKAV+WXBhWiGwOLJdYNVWyGwTj755DD99NM3FmHckNdZZ53w+9//vlGfijS84YYbwuKLL+4EVuOe8QwcAUfAEXAEBgIBJ7DyUXYCKw87J7DycHMCywmsPMlplsoJrHPOCZtvvnl0h2uiyEoBhjSBPGnjgeSYaaaZwgILLNBGdmGuueYKTzzxRCvkxO9+97vw97//Pey4447ZdRNpAmEIgXXhhRdm52UT0hf0AdZwbTxYYLVBYEm+ILCuvfbaxqQJ7TzyyCMDpBOWU01JGNKTD8RJGw8E1ltvvRXJk6Z1oz5Y6WGB1cbzySefhBNOOCGwYWnjWXfddcPpp58eLSabPlhgkR/90BQ30kNguQVW017x9I6AI+AIOAIDhYATWPlIO4GVh50TWHm4OYHlBFae5DRL5QRWQmDlwjk6ElhYYO200065kPXF8+pPAqspAUDj9tlnn3D00Uc3tsASULiHQWC18WCBtcIKK0TiqekDVrgi4rrWxjM6EVj06WmnndY6gdVGP0A2O4HVBpKehyPgCDgCjsBAIOAEVj7KTmDlYecEVh5uTmA5gZUnOc1SOYHlBFaWBKEUO4GVBV2Mb+QEVn3setkCywms+v3pKRwBR8ARcAQcgSIEnMDKlwsnsPKwcwIrDzcnsJzAypOcZqmcwHICK0uCnMDKgi0mcgIrDzsnsPJwcwusPNw8lSPgCDgCjsDgIOAEVj7uTmDlYecEVh5uTmA5gZUnOc1SOYHlBFaWBDmBlQWbE1j5sPV0DCy3wGrQsZ7UEXAEHAFHwBEwCDiBlS8OTmDlYecEVh5uTmA5gZUnOc1SOYHlBFaWBDmBlQWbE1j5sDmBlYmdW2BlAufJHAFHwBFwBAYFASew8mF3AisPOyew8nBzAssJrDzJaZbKCSwnsLIkyAmsLNicwMqHzQmsTOycwMoEzpM5Ao6AI+AIDAoCTmDlw+4EVh52TmDl4eYElhNYeZLTLJUTWE5gZUmQE1hZsDmBlQ+bE1iZ2DmBlQmcJ3MEHAFHwBEYFAScwMqH3QmsPOycwMrDzQksJ7DyJKdZKiewnMDKkiAnsLJgcwIrHzYnsDKxcwIrEzhP5gg4Ao6AIzAoCDiBlQ+7E1h52DmBlYebE1hOYOVJTrNUTmA5gZUlQU5gZcHmBFY+bE5gZWLnBFYmcJ7MEXAEHAFHYFAQcAIrH3YnsPKwcwIrDzcnsJzAypOcZqmcwHICK0uCnMDKgs0JrHzYnMDKxM4JrEzgPJkj4Ag4Ao7AoCDgBFY+7E5g5WHnBFYebk5gOYGVJznNUjmB5QRWlgQ5gZUFmxNY+bA5gZWJnRNYmcB5MkfAEXAEHIFBQcAJrHzYncDKw84JrDzcnMByAitPcpqlcgLLCawsCXICKws2J7DyYXMCKxM7J7AygfNkjoAj4Ag4AoOCgBNY+bA7gZWHnRNYebg5geUEVp7kNEvlBJYTWFkS5ARWFmxOYOXD5gRWJnZOYGUC58kcAUfAEXAEBhSB//znP2HMMceMZR522GHh4IMPLiwfgotnjDH+v/Jo09pE/P/yyy8PCyywQJhjjjmGS8N7ndKlBfMeD/VbcMEFw0MPPRTz4of62LoUpVW77Heku/rqq8P7778ftt9+++GSleWpl4UFn5QBgXXFFVeEL7/8MtZJ5RZh1q1zhcvpp58edtlll479oHZXqe+ee+4ZhgwZEsYaa6xYPz5zHpX1ve99L1x22WU5WYyQ5ic/+UlYb731wmKLLdbXr50y7tRWMJNMICOPPPJIpbqRn/AukqOnn346/POf/xVZBZ8AACAASURBVAyLL754qaxRYNrXqi+f/Hz/+98PF154YaW6dXuJvD755JOAjOy9995dx0AZll988UUYe+yxw+qrrx7OP//8MO2001YaW93yfeutt8Kmm24a7rrrrvia7bcq8prmfemll4ZVVlklfPWrXx1hfNUBU2UfeuihgR9/6iPgBJYTWPWlJoTgBFYWbDERC+S1116bn4FJefjhh4cVVlghLLvsso3zY0Jdbrnlwn333dc4LzJ46aWXAotH1QW3rNAtttgiXHzxxWWvVfqeBfeEE04InLi18dCnp512WvjGN77RODs2suuuu274/e9/3zgvMnACqxUYPRNHwBFwBByBAUBASvZRRx0VDjrooOFK7KSYS/kvUkr5H4TO/PPPH2afffYRlOKqiiyEC2QQBAPkxMMPP1yqYKu+Up6LSKyrrrqqj8Cy75OmGykmYFR/YbDJJptEUicltvR+lTx5V4TCGWecEXbeeecRet6SIlXz3GuvveLeS3gUpSsj2iQfpN1ss83Cr3/961KprNLHBxxwQNyfd9qzdpK9tHDJCfncf//9pX1o8+1Uz6eeeip8+OGHYYkllojFVcFbZJrtJ+SP/7dFYFGXjz76KJx99tkBcrJq3VLM7PhdY401IoE13XTTdZWTsk4nz3fffTdAct5xxx2Fr1fB0SZE1lZaaaU+AgvCLfehfpD0hxxySKX+zC1nVE3nBJYTWFmy7QRWFmwxkRNYedg5gZWHmxNYebh5KkfAEXAEHIGBRUDKP6UeffTRAauY9EHptJYu+t4q6mmaK6+8Msw777zRAktKtvKo2kJZWpEOcuIvf/lLrAcPxEBKPqXERKd3rrnmmkhgbbfddsNZiKi8KvWzVlDWKim1jkrr2C1vlQ858YMf/KCwH/hn2s5ueWKlc/zxx/f1Qbf62LoX5cn3tBWrmDIioiwv8odIwPpnySWXLOxPW4dO+UkG+X6RRRYJDz74YJXuG44ILcLkb3/7W5SRpZZaagQ564RNkWWh/rfVVluFX/3qV5XqVvYSLoRnnnlmgJzMeSyW1G/NNdfss8DSWK0jt6oD+XKIvuWWW4Zbb721r2o5eSkxsrbyyiuHqaeeOloP5ualNmN95QRWjtSE4ASWE1hZkuMEVhZsMZETWHnYOYGVh5sTWHm4eSpHwBFwBByBgUcAEovn2GOPDdtuu+0IFZDyx6fc5CyBUaRU3nPPPeGb3/xmmHnmmftIojrES5o/RAdKcTfSTNYu3ZRw0mMd8t5770XXP7nUiRirQmJZPEi30047hbPOOms45Vp1qZKfAJeCDvm34YYbjtAP5Pn5559Hty/bF90kBvJKrmadlP+yutJG4aS2Cq+q0lqEA3X79re/Heaaa65CQsymsSRqWqa+W2eddcINN9xQSnKovZ9++mkYf/zxC5vwwgsvRJyR4SIitCiRxgbpUnnab7/94vhq+tBWCCzcESE5iywMq5QhbJEJrOrwaJhiiili0joya8siL6zWqBcuxOSTEp11CSjcfRn7YEpf1ZU71Y9ywYpxipVpLm5VsB1V33ECywmsLNl2AisLtpjICaw87JzAysPNCaw83DyVI+AIOAKOwOAh8LOf/SzG/ZESy6fcx/j95ZdfDi+++GKMWTTRRBP1kUlFSirucCibIltIf/PNN4fVVlstKo9lCqS11uJ36vWVr3wljDPOODFf+73Kx0ILN6hpppmmL/+iuv373/+ObUQhJq7W3HPPHcYbb7yOadIeSd3OUNonmWSSQhKGd//85z9HS56yB8x4IKkmmGCCEV5Xm1955ZXY/hlmmKEUR8gO21dFLnMQL+xb1l577VhmGifLkmW4r5FfWSwtXMmoJ66flri0/UFe4D7uuOMWkiaW7Bg2bFiAFF144YXDVFNNNRyRqfc++OCDSMKUWYdJppHlv/71rwHiS3KqvOgDfqcfREyV9R8ySgyuiSeeOMZ/Q8ZJS97UbbLJJit1gS0rgzo9+eSTAYINLBS3qiidiKiiMSA5oI4a19R1oYUWivXUU0Q6F+ErTDVWyRNrLPoKgpKxlhJaNm/NNWnehB9B1l599dXw+uuvh3/9619hlllmCTPOOGPEVXOVlRVrYZb+TtiRPfbYowxm/74AASewnMDKGhhOYGXBFhM5gZWHnRNYebg5gZWHm6dyBBwBR8ARGFwEimJboUT+9re/DXfffXeMvaO4VCj5EEpFT6r43nTTTdE6g3hRPGUEVh0UKOvvf/97OOmkk8Jxxx3XZzFTpGirfbI6Q2GHxJL1U1v1+uyzz2I9IKWwNEpji9VpX/ouRA4kHLGL2njA5JRTTokxWSGcygigKmWS5zbbbBPd3CAwIBvoJ+Fvrbo65cc7spwR4bLqqqvGmF64p8oyypJyVeuuehDrCgu1Y445JtaziLwrIv26YYCrIPK+//77xzztGFH9itwNq+AqogcLQvLHtQ6ruOmnn76PKJTcqS1VMKGNkG/E+YXQJWYXZPCEE044nNuutYCyloi27hr7fBIL74ILLgjLLLNM2GijjWIsKxFkFguRbYxLi1c6H+HWec455/SR4eh3X/va18Lkk08eq6CLCqwFnGLLSZaq4uzvDY+AE1hOYGWNCSewsmCLiZzAysPOCaw83JzAysPNUzkCjoAj4AgMLgKy8pESisUDyidxo7B6sIHV5bqVkj5S+PWJAkm8KRTZKsp0VQRU13/84x/R4mXo0KF9lh6pdYfytJZbWIj84he/CFieiZSrWnbZe2o7MXyw+oAcautpm8Cif2j/kUce2dpFO7QVEo+YWQQIx0JNxIqwLpMFMBT5wLsQpjzEMSLeFXt7HpFhVUixtA9EwhIsnED8EC5YhKn/aANEUJXg4bJC0njgYiDIsRNPPDFaS0HMqM1NboQUsUdelIXL6T777BNv15xvvvn6ZJm605YqjwgfkYJ33nln2HHHHcPWW28dfvzjH8dxpX7TGLLjvojks+QTdcByDEKTvLgwggsewDadR9TnpLGYqq+stRVWfozfP/zhDxED5A2rOfIlH961VqDpTaFVsPF3/g8BJ7CcwMoaC05gZcEWEzmBlYedE1h5uDmBlYebp3IEHAFHwBEYXASkHOKytdtuu8UbwL773e9GJVMWHdaSoUhxldIpZZ3b0ggOj/UFTxPlPUUHJX2DDTaIxAPuaLL0iQrXGGOMAKbqSx2IhYVrHy5f1mqkDSss5UdMMazWOlmq5fR22wSWSEnIBW4GxO2rjQcMsBSj/7lZ0fZ7GXkl8kLuiza+GXJ44403xjhQEE91rZrUN3Lv09+4AGKJNemkkwZiVolYSV3firCxhKklcJFPrLwIHI4FEvvqTsRvFcwhZWi/yDqVhZXkm2++Gfbdd99Ilqn+VXBWudZqCbII8guLp9tuuy2ceuqpgUD022+//XCugOn4t+QT+VpLM1k9EnsMF9Nzzz033HvvvWHXXXeNMd9sXiLSUhdAW0dbb9JS1yeeeCIGyweL3XffPQaoT/NI61gFd3/HCaxo+rf55psX+nfXERAJOgssA6uNh6t1Z5pppniS08aD6SiDqY3F0Ams/B5xAisPOyew8nBzAisPN0/lCDgCjoAjMLgIyO0H6xEIDeIspUqwtYAoIoosGXTffffFeD1YcoiMqGLNUgUFyjniiCNi3rhQ2VhFnUgHW3dc3FCi9W6OBU9ZPQncDalQh0goy7NtAkv61LPPPhuuu+667Nvt0norX6xkIIYIFC5Xsap4pFY8Sk9ZzzzzTBgyZEi0cMLCq4hMLSObRJTZ9x5//PFYVwgnbsArkvFu+VrXR7UT0uSxxx4LF198cXT7Y2wp9ldZfxfhqnpLdm3bn3vuudiPf/zjH6NVHZZOVZ6UhFOesn57/vnnI+mLdRZ6PDHTrIWXJe5sP+n/lnRTWRCc5EucOPLGso4g8MS702Pz4n9Fbs7pO5CRL730Ury5FJIMF0PmCVxkm7hvVsFxVH3HLbCcwMqSbSewsmCLiZzAysPOCaw83JzAysPNUzkCjoAj4Aj0LwKytpFSbpVBCAxc6oithOVCE0VPSivKKIfMWEc1fSz5hMJKvhw6c5Nd1YNi1euNN96I7nIcqvfXQ8wwnuWXX77nCSwRIgceeGB077JEgWQlByeRinfddVe45ZZb+m7iq0pglZVJXDXii2EluOyyyw4XF0v1zikLyymsvHDLO+ywwyJBmlpkFVlddauvXO8effTRcO2110arvB122CFaJsoqqIicKcMg/Z56kQ8kDvvRBx54ILoBY+WU3pAojEhjSbBOmJEvdcVlD5IbSyryJX+NQZWfjsluFpHkyw/WahBvkE/UFZdAYnIJF0uAWsJMGHSqN0HgIbNwM37ttdfCPPPME+c4CHpLuCvwvtwlO5VRlSyt23e9/L4TWE5gZcmnE1hZsMVETmDlYecEVh5uTmDl4eapHAFHwBFwBPoPgVQZs4QQliyQDQSEtreQVSWGimpN7Bzi6GABkkMiFOUp5Ri3Jm6QI+4N/6saw0rpIVMgv+aYY45+AxzXxvPOOy+6pDXBMa1g2xZYIqvooxtuuCEWBymowPZN+07kCBcBkOf6668/wo10uZ2g/sQKC9dHLIPkRlrF9a9TueTLeODz4IMPjrf9sSdmbNjg8RpDZbcyUo4NME46LBOxyCImFJcbfOtb3xqOBBK5VBcbG+dNY4N+xcIJmYdwIvA5+Mgl0RJAnYhrO1+obtwkibUXAeC5/RPyG8JJGNl8i0ifIoJI/+NiBvLGgo8xBEG5+OKL98UjSy2+rBVWJ7JMbaO+kKrvvPNOvFUTy6yll156uLnPkmbCNHVHrNs3I/P7TmA5gZUlv05gZcHmBFY+bHGxZnFt48E/n5tjOPFs44GUxMSb4KhNH/zm11133Xia1MbjBFYbKHoejoAj4Ag4Am0iIGWfPFG4iXPz8MMPh5NPPjlascw555x9xTVxp6MclM/rr78+ElhtkTeyHnvxxRdjnBuCN4scqVqGMCAtcYmqEA85fUA5kGvcishTtX5VymqbwLJWecgEN9Cx92tCAEn5Ty2KcKnE8qXoxr8qbU/fUX9S11tvvTX+sM/EZSzXgtDKlPLAcodbLqk7rnOWoBGRUoXos8HSRYpwoyAEMiQN5B7jUN/lyI0ldjSO1Q5IM9oBgUVbCPpuXXtFUqVtseSV7VNrscRlCmeeeWa0cFpllVWiOyB7dOHZaazZ/ES42TaITLz88stjPC5uoFxsscVi3cHM1rVT/W0Z+t3GZENuyB+54WZSLLR0e6aVI9UvV7ZyZLxX0jiB5QRWliw6gZUFmxNY+bA5gZWJnRNYmcB5MkfAEXAEHIF+RUAuXVKascjA6qqIcKAiVZTytMKQIASSJq4NroNtkUQoj7iMEfQZAsveYFaVbMHihB9ct7gVsa26pRh88MEH0R0Kq44iy5Mmndw2gUVdpPjzCS645BGHqEndU+saBfHGSofYY7hvtfFYIoLg3QQwhyjDIihHflUnufVZDLDcQ/YgJrHKqmOlluKRYks7Dj/88MDYJL4zY7NJ8H+RZUVud7hI0gdYZUFezzbbbMPdNFhEFNr5QJZbCoSfEpWvv/56jE9HOcSagxDSTZQ2b4sBeYggKipfZBnv4GYI8f71r3895o8sYR3XbR5QWbaulGMtrWgPF1hwOQBkHDHQsFjDhRRySzG/moyLNmR+MPJwAssJrCy5cwIrCzYnsPJhcwIrEzsnsDKB82SOgCPgCDgCrSJglTYRFVgbYIWBMt7mI6uRiy66KHznO9/pu90vh0SwCqJtA8QY9cddLCdf2os7FcQDREobT5HVB1ZMkBy6ebGNcpRHfxBYtn6QD9xGCJHV5o2R9vY33MFuuummSJpYl7+mOKkvwJ+g3dyiSbnWxTRXbmzdIJogKY8++uhI0loXs6bkBgQK1kDEZ4NkmnHGGfvc5lQHa8mVg5mtI8Hw11prrUj8bbnlln3x6uylCDa+leaRKtZhlIPFJDcCErwezwn6XEQT38tKTPKRxukrax+WX9xy+tBDD0XSbMUVV+wjt0lrXQslH1XqrnKJ88V8eeWVV4btttsuEv4TTjjhcDeeinhLx4udG5rKRRkO/f29E1hOYGXJmBNYWbA5gZUPmxNYmdg5gZUJnCdzBBwBR8ARaA0B6+aCJQSKHtYKuFjhgsNTR5HrVDEbc4fgywRX59Y5e0NZ3UZZZU9K4c477xyVbGIF5T7ki/sgwcqbWLek5VusP/300xiWAIJGynObll79TWDRFtwrIWnaJLAsZsRO4nZGCA1Z1rSBkeqLFSB7MQKmI++QZG23BQKLSwo23njjSNjS19a1MIco01jikzYQeJz6Q5QtscQSwxFllhCsOx4sKSwZxfKLsYvlIOQZFk28J3JGZIysr8rmDmtxBvbcOIgrJrKFGyAkqbXKsu/r9yoYql6MOwLXX3XVVeHSSy+NfYK1JnLFj4gxtacufryPBSiEHLHtiKNF/lgr6kZJuWPKMk/9Uqc9dftyoN53AssJrCxZcwIrCzYnsPJhcwIrEzsnsDKB82SOgCPgCDgCrSEg5ZNPlMXpppsubLvtttF6QMp2G4XJUgOFFssXlF8IA55c0sBaLpAHblu4IUG8odiTfxXlNm0f+WKtwU17Vd0O62BE/lhsPPHEE/H2QT1lyn6dMvqbwKINzz33XIwLCuHZ1mMJCsgAxTKDKGurL1JLKAL9b7/99uHee+8dzvKnaZtsOffdd1+U+R/96EdhgQUW6JPLHPmkXhq3wgRihlh1p59+erSU4mY+nib5k7bIRZKyCWzODZoXXnhhgDQmVpbKs+2uiqGsrDQGKJvA7H/605/iLY9LLbVk2HnnXfrGtCXNqswfaZ+Tnra9/PLL8aIHbpPE/Q8rMGJyWWsyawnWCU/NRcJAf0PIQdg/9thjcaz861//CltttVW0+kvJOJFmuX1WFev+fM8JLCewsuTLCaws2JzAyofNCaxM7JzAygTOkzkCjoAj4Ai0hgBKE+5yt99+e3R9werBuudIqWpaoBQ6FF6so5Zbbrm+mEpS2OoqblJiqRuEDSQBt8GJLMslPLh57O233463vlkrrzYwUBt//vOfR8UfV6n+sLwYCAILknDVVVeN7pq4yLXxWGJGFmvcTAgJsNdee2UTMrZutgzJJRf1IDv0iW7Ia6M95CHyBPLiN7/5TbSYghwlflhdmbf5pQSV4kMxDhjTjDOIOVn+1G2PlX1LFlOOXPrIk6Dpd955ZwyWjrWZbmGs0jZrmUlelgiy9YUAIhYXpClzBzGnRIBXJX6tu6PmBmtxBWH2hz/8Ifztb38LWP9xQ+gyyywTq0E9VV6Ko+qc4mVvorQWbBCNtIdLLAiUv84668Sg/G1aGdbt67bedwLLCawsWXICKws2J7DyYXMCKxM7J7AygfNkjoAj4Ag4ArURsAqoFC1uAoNI4aYuYgFJybLxYKoooUWVsdYFyo/ycAfD1Sktq045aTDo559/PpxyyikxYHOTOEOq85577hldsuQeVVVBLusU9QHED5ZXWGS04RJXVO5AEFj0GQo/livcxqanCemX3tym/jz77LPDzDPPHG+ua6OclGwQUYvb6BxzzBH3tp1ktO7tcunYw/qOcpZaaqmw6aabRvIvfUdtLBoXZRZHyosLEi677LIYXBwrOeRZpFfZ+EvxUT2K5hHVFYvCK664IhJm3/72t8OCCy4Y21UUxL6IHFPdiogs1Zd0EGYQ7hNNNFGMZQXJZOOXlc1HKbapvPI3boaQgJBNuDByW+IKK6wQy1T90nnSYmPrYOdC20Z+Z+66+eab462M4AZ5Suw3gv/bcqzMFfVNOt+WzUX99b0TWE5gZcmWE1hZsMVE6623Xrj22mvzMzApMXVmomMSavowKXHawIlKGw+nWG+99VZYfPHFWzlZZJHnKuU2nk8++SSccMIJcePYxkOfslnGHLjpw+kc8SrYcLbxOIHVBoqehyPgCDgCjkAnBKTUWIsq3iXWFcGGH3zwwRjDSDfJSYlvA1HywkWHGFIKJo37FFYuBGrOeayCKBdBYvIQr4q4PGWKfacyRZIof/I79NBD+16vQ66V9QVlYEWCAo61T389A0FggTftIb4TlkXW1aot0k+xlCjnyCOPjIQPRJa9Fa4NDMlfP5AwBKmnfyCXZEnDp5WVnDba9BBMuL2yj4aEscQEWNYlyoSD8lFZr776arxFEBKGmE/cytftyZV3lffxxx/HvTe3PbIPR9/A0pCnjDir2pe0kfIuueSSSGiBHz+Qj5Rh44zZcpV/lTZa6zCsDCmLYPm0BzdQkUzqKyv/6oMq5agtvPvAAw/E2w0pe/7554/lzD777PGyCx5r+Za6amqer1JmVZzrvucElhNYdWUmvu8EVhZsMZETWHnYOYGVh5sTWHm4eSpHwBFwBByB6gikFhPEfNlll13i7Xec9kuh1FX31XPu/qbIJClZBE3mwfUntXioWmaaDnKDeDIcfOGKk6O4pfg8/fTTMUA1QZdFaOQQFWmbVA7/5/Y4xSiq2va67w0EgSVXMogl4prNMMMMw1Uzpz+K2inFHOKV+E64FIp0baNvKFP9I9IVayLioHHLIpZLNuB2E6LXypQIKqzLHn/88Xh4C7lrcWsyVmiXJcIoD5dCCEAsshgzaktbfZWSKrj9YRmJrrDyyiuHKaaYojH5qL4SmcPfHICfeeaZ0ZV4hx12iCQTWKp9dpyLCKoiO9baU32BiyFzDvGtsFwl7h43iUpGbB9XwTW1KIWcJy/SYlhB7DSs6CAfIegoi7rj0ii80/k7V27qzjPp+05gOYGVJUNOYGXB5gRWPmzuQpiJnRNYmcB5MkfAEXAEHIHKCOh0n8+99947zDTTTDFQsZT2KgpW5cKSF0Vi8bn//vtH0qyp8m8V8h//+MeROMFSoemj+DjEWcKFkGD2KJF1byHrVA8plJQD6Yblen9iPxAElggSFO4zzjgjylVKFDTtFyunKOvDhg2LLq8QTLrBsimO1mJJbeITUoS+Ovfcc4e7bU+WNjltE7lh8xBBx+UJCy+8cLT8slZfueWkuFhSA4ssiJiLLrqozzqqjTlB1paqs2JHYZUFsYQlEe6+WLbl9psIH2uhllpRMo7vv//+aJkJUW9jzVW1bEtJIEvKCyvmCCw2sUDcY489wuabb953o2EVgox8UstRS6aSv/IBw1/+8pcxfhpyiUUrJCTfyzqwyF0zR35y0ziB5QRWluw4gZUFmxNY+bA5gZWJnRNYmcB5MkfAEXAEHIFKCEhRI8AySuP555/fp4iTQXrTVlun9imJgbXRscceG775zW/GeldV7NJG2nxR5GaZZZYYrqEJKWbLAK+ddtopnHXWWX2uOm1honIgDbDAwtomV4Gv0vkDSWCBGxZr5513XrSMEvnSRvuEv+17gqFDiEJOtFGGJRFSaxgITMYOt3LuuOOOw7nAVemHonesTNl2UbYsJA855JCwxBJL5BYxnPWgtf4TXpQFQXfNNdeEE088MQbixzqKx7r55VQgHTPWIunDDz+MN/5BoOHGvNBCC+UUMVysO0uWWddByE7wxALsjTfeiP3IHFR1TFtiM3VJFE4iuCFxaRs3M3ITJEQkbsiKmdWtkakM8DdEVGrFat0HidFFEHjcGum7zTbbLBKfWGX1V1y9Kh012hNYLEywmEwY9ikaFGWTF2l++MMfRn9ce9uATaffqwg15nyYyerERwM9TdttArAmlpgDYq6s2wfsFaJVhMW+g1KMQMNyW19cvaMTJgl3UXstE7zllltGdr7ssZOT8mRQK6iesPjFL34Rdtttt45+3fZkQpNDpw3MPvvsE4455piOt0LYNqsenfqX/+NCyERedLKiE4UUU00m1u+Y3wlQSoBOYmA1OY1SjAf8ugmUWeWxi709qSQt3xEDC790FsayTV/RopeOR04/2RSnG1KbNl2sVa90kuV0gYCybOy6+XKDuyb4bnVcf/314wZHm+ayBaTT/EJ9iYHFTSGKgcX/bB3tQqe6FZUnk3uCQy655JLRFNgfR8ARcAQcAUegLgLam6RrufZSKG1YB+B2xR6nbL9ct/yy91kjuW2LGDzEkKz7pPsA7U+59v7ee+8Nu+66azYZZusiJRSFF+Wa28f662G/BBZTTjllfxUR8+1vAiutPHoMVlEQWW0SWEUgId+Uxz4Kq8I29KdOuob0tT/96U/Ryga9g7hujCXJTZvjSmMa1zus2tjDYg2o8mRtk+716wqT1UMhXrh5E1dGiEHF77Vkl/Qfa+mUQ0QrbhruoMgLpCdxpbB61C1/ms9S3UFtzMGbwPkij9E99t133z63Y8qRPmdjrkl3rSPPyosYakOHDo0B2v/xj3/E2xkXW2yx2ARLktq8q1qGSZ/TJ1gyx+L+TLxkblMkLh3zvizPhJ3Vs1MdMQfXVO5GewILf0/YxAkmmGA4X9kigkMKbCdygg6BwIJ5TQcgwKsDqzLOkBz4ooo1VnrlZTtTeXaagBFcbu7A97nOAOk0UbHwQlAQ36DoseRU2UABT8gJAgyWPXYitUEOLSa8w0RMXxQx2XbC6lae+ptJFjPKpkyz+ogNy9VXX9138lDUj5p4ZdJpiRQtOrTtsMMOizdjcMOIWPSciV51gMCqEzw8lTv1D/Xnpguuh+Z0oFudikgni4m+x6+dEwBLJKX9rjEiYsdO3jZPBXEnyKudbIvkweJtCWhbDzbsnITUCeKuOcaab/M/CKy11147sIlJ39EiYslPLfKpHGlDzsZr0UUXDdNMM03Z8PLvHQFHwBFwBByBQgSkMPGldR8ZMmRIXKvYxyloehsKSp1uYE1nj3DppZcO56ZUNQ97MKS9JcogrmoQQRAJbTwqhz0luse3vvWtNrIdIQ/KIa4Sh5x2n9QfhQ00gcWeB5fOk046qV/bZmUC8gOZR8a19ys6hM7BN93T8jfB5hicMwAAIABJREFU94n3hfUQcaTS8dTG+LJ77w8++CDG4IJggnBBJ9Z+0+pROeUW6dMQIRAuWGyiv2y00UbDubel+nKOXmN1dtpCHo8++mi4/vrrI9FDjC6Cluux+3vNATnlWkME9GQIuyeffDLq88xREMppnxfpMmWypDysjv3OO+8EAvbTTvqUi7lEkqf9YK2supVVpHMpLywUIfkpDzKLeRJ9CAJNunaqo+TIUFH9RnsCiyj8CvholUOAhx1FmccsEAuLSSedtOtkaYmRVPHUYGSwMnC59rNKJ6aklSYc/Z8JgNsJ8NMumkztBIUPN5Y2WNjAQuPPmruw2baShwaQPsFNVkEWi1QIbf3KBqu+pwwGCf0DQYKVj9pvJ6J0sNr8wQqfZUg93bjQqW5V60i9/vjHP8bbKYqetO/KsMc6kOCHOikoqp9IK8lSNyKzbIIiLfLJTRQy7y3rE21omeSxysNySDKgRc8uIkUyz/eQLJA2WjRsud3kx/a3JskXX3wxnkYwxuyYTvNMy0rrpraBCX2ApZsWM9uX/M73yGPZ89FHH8W2QiYRZJK0qemu5IJ5gpNfFkAW+DnnnLPv3aoyqffYBHWS87I6+/eOgCPgCDgCozcCVinTuspeEhc1lDICGdv9h/aI/Y2a1jhuOMTyAAItR+nUPlbrLwoulhoccsuyvo22aM3XYWGn/V2TsigDRRZXyuOPPz5mVUXfyC1zoAks6kmsqNlmmy0svfTShbpPblvSdFa3Ia4ahAAW7W1iavdztjz2i3gKICvsF3maECtFmKRlP/PMMwEPlpVWWikG8i4iL+pia9ukucMGqmdPzD6bw25uftQ7dhznyK9tm70dlf9D1F144YXxBkj29uCLXsl31M1ajdVtr9WL1Bb+h4UonlXoCuhZa6yxRnT7Uz2tXl21vWn/qDzSE/gdXfymm26K5RCfi37FG6Pu/Kw6ah2QLKo8jQf0cdwMaSs6BwQ98gsJqzmWuuXO0bYvRnsCy3a2gME0joUZC4hVVlklDig7EIqUR6tkpwKFqTC+qhBlWMtgbldlQUwHkBUgmE5851FqCbDG0+laXzt5wOoz8cPsN104LetrByxMMxMgrpTdXAiFU9WBageKsDjwwAPjpsXeSGKZ+06EiRZAFiJIrCLyQvJQtX7UiWB+nKzpGtdOE183AkK4ckoA6YgM2tNOK2sWk7r1TetGvriFQkQRm6HKY2UOucL8GOJI8qCFoJPVn2SACfb555+Pbp9F9erWp+nGmne5mvihhx6KJ0mdzOe79YGdaHkPMvHZZ5+Np2+44kqutWGvKiPkC4lM/TiVWX311SPRC6FFHjIp1i0flI25LpZnL7zwQjzVwJqKhUi3gnSzDLQLY506Vul7f8cRcAQcAUdg9EBAazWfWAmzvyMGEZbudi+pNbGugtQERSwA2LcccMABtRWzov0Gih97OayXOLiuaqlQpQ3ggk5ATB6Iv/5al7Ea42AXUqBsr1Ol3t3eGWgCS7oR4T1k/deGQpy2UftbK/tY7ROfCmv7tvquyIpe/6NdWJpRF2SyzKOlTl/SLruHt3tQxtNtt90W21qkI9UtR+9b/dgevPM9RgW0FQse9saMvSLDjKplp2VZ8oV81XY8YjAGgcQizp1uZ8ztX6ur24N89R35Qixh8TbrrLNGXmDeeeeNoYzq6MVWz5IuaPf8lG0PyP/yl7/EUD3olegSiyyySB+x1A1TS/5JN7IkXypDVq5wv8UdFqIQvYX5CKu3qaaaqmo3dnxvlCewihQ4O5nr9/feey+aweEGxKSPeSrsYV0Btj6tsOf4iBJnB7IJYUkHbLceLJrUUH651pXBxgaiilWF2gg5wc0TuCZiHtrmoqZBhxk3mwgmobrYVZFmW+dPP/00Xi9KeXqqlkk+EESw0jrZqFJ+2TtM+JhtYg5btS5FeWoC4AQE8oTBrom8Sb6d6m8XRQhRSDgWaNWjKtnJzRhs+urIl2QH1h7ymDzs1a657cUPnZgFuLlC+vAUba7rbAiI8cHmE7cCueRpo24J52552smeuCFsSjidYGyCuVwV7NylxYn5BTILmSC2BVZrxN1Ckej0iPyzG7w2x37ZmPDvHQFHwBFwBHoHAbsGVV0LeI/1B0sJ9snsI+2+yyptTZTOMpSsUsq7WCoTi5UQFN2IpiqKoRRcrJZQKrVnJ63Wef2uvUS6rtr6Fx2M8j8UOqw+tK+zaezewR7OdTvEK8JM7oPKIyV41A5h1m2f1W0/Qz4c0LMfx6KkqM2dMOkme0W6m/JRfdiPsX+qogcpre3LFDfbt9ovpu+g42DUgKtq1aDZtp1FOEs29VlExhH+BWssQtRU0U27yanFQu0s6mPmCQK8006CdkMolbWF/IoOlVMcLTmYthsDDdz7uJCBfa7IjjKrKDvGO8msfce2hd/xduDQm7A9xMZOSUrNAUVy023ca/+eYq3y0enhCND3VltttWi1JPJJxi5FYyXVEbrJlj1sJx16Knr6gw8+GIl0DtLx5kpjg3Wajy2pVUVHkzzipcT6AQFGe8EaizB0RvEnRTqLxVDtHi0ILAldkcUQ1g0ILNdscmLBu3SgOqSb0AjQtPN0zSsnLJAkk002WZQBu/BW6XBNBDIZZXAxoIk/RZ78v+zUQRMJyjzMJ1YusK/CotsCUraRsN8rwCBXbWK9g2VYfzx248XJC9Y+Oh2wA7SsbNqNhR3uZsQhqNof3fIlT+oHoYapce6Tyglm7BB1nSbP3HJsOk1GyC5YEPeLMuuQO+QHCQy5ypiqiqldUOgTSEAwtFZOddsoOUEuzzzzzHhiTJ6M7U4B0cvGEvXUZg9SjEkXC0DqaYnpThtGu2koktXLLrssHHHEEfEWEza3srAiXae64XfOBg6XT9wEGXe67lmLvay5VH7dPq2Lvb/vCDgCjoAj0LsIsCZozari+k5LSLPqqqsGXPVwCbH7FO1vtU5p7S5bU3MQspf2kJ7g01ip407G/oUyU6tk0mhd7rTn1XqJSyTYcAhJPlKqhIHaxKdcjpS3yu+kG6hsDsmxEO8UV8sSGgqMzP+q9hXvEh8V8qFbe9UW9gxF79Hn/JQ9WJPTdpTv9NEFQXbPA160q9tehHSS005EIFbxWJTQ1rKHstDzUrLEpuMdvqdsPlM5UlrcM7ESQhkv2+eSp3SusoNgSMBuY4Z6YbFDjCOFgOnUbvWngsAXvWflCSK4W/3YkyJPuFCWtYN8abM8Rzq1iTpSbifCAiMQiDM8bLhlj3KlD3fCnTy1By56R33Md5StukmHVR8zr0CKX3fddX0ud0Wktca6+rmbd5X6hH7UfGP1H+Qdt0ZcfwngT0gWe0Ng2ofSc6hXt7mE7zl4t1ZTmkf5JC1txfgAMgsDHkjLTl5d1F/l0d4yeaDelG95Ff7H37/+9a+jFSUWaOidyDd5C59O8h2//2+6CpXNAiPx92IAARwFmzg5KLUy3QNMCXEZwaO8UuWSwUbH77ffftEMUZO/9fdVx1WBUulho+V+WOaelubLFZgbbrhhJNMY2P1liYEZJvhxM0idNlbBQe/YfsEKRgHztdBV3TDRf7hTggkEUVsP+cKkM/F8/etfr51tEcnKAEemCMTX3+SDNkngKnKw02asqHGkZ6ERwVO2uGtTyHv6IS7dLbfcEsdmFVfbTvUgP8kFcewYA7gG2/FTh/S0pz/8Tvw1CCxuCUUWLU7d+snOQ1autaC+9dZbUUmg7ZwEY1ZscUg3dZTF4kB9cOMkngCm9ZwSWrKOssrItdoC6wkcAUfAEXAERioErCLOXnieeeYprT/KNYqFlPEiAov1hRt+sYypsvaXFtrhBZWNxTYEBhbj3Q6dOcDi1jP24WncUBWh9LgPYg3A31LUpOjLHYjv8K7QbdLUhwNm1m2wlDKLgpw+fMf/WddlaW7fYS1XAG0Ongn3oX0KVuoPP/xwaUB5yiBv8mEPQP2K9sa8Q7/iFlcUioA9PaELaD91SPMQGSCir0iRFeEgTGgf+xPt94qIM/6HMs1erQgjER6Uy74HXatMlSWeKOQA1uqd9ATqyIEngamL3lFd+Q45p35lcg4m9IO9sb1IrJE7SCKsUlIcRaZRP/oT+ZGMdBpD1AuiDfnh6RRqgvwuvvjiGD7EEnzKV4YS9ANuYBBnOrRVP6R1oL5YiaEPdyNQSa8b+tL9qdqM7FE2oWkwwuBRuWmfgw9jBLmdZJJJCqHR/ptYVIxZ6diWUFKMZT6xBpt88snjeFUdiwhVvkMm8Lgqwlrl0nfE1IbslY5CWnCWrGv8EqcL6zMdvHeSNdJhcVnUD0pDnsTzI09hq7Gp8cu7zAd4hmAF1qnvpINQL7AhtErZOMD4BrdF6SCaTyyJiXUjfQInoznPtkmxhklDP4/yBBYNBTAGAYMU6xCIAE6QcL1RB6UdVabYKl8EgAkUggmBJG+Ii04KrBWmMrKFPIibhck2wmnrq4FUlgeCTVwhLDsYCGpn20QIAg1px2SpSbBMoHM2L1LIOSXDn5bNghV0sclleYMDxB4bDgW5LEtT9r0mQBYCFl9cPOs+mpA1QdO/tBmSjU2hfMLr5lv2viZX9RkLOOQMRFanSaxosuRdJnHiYuDfXUUGLDEkucZXG7lHpqrkUdQ+y+BrDsBkFvlkTKRxxaqWY/sIeYMI5bQEwm+TTTbp20gVbRotlsJcm2J9p8UBIgtrNEjW7bbbLprnK0/VoSg/FkgWAU4Hme8g2IgTp8CNZXNbmaz4946AI+AIOAIjNwKsHQTcZc9GzNIqj/aN6f7RKpJYaWAR0+n0vko53d6xZREigH2RlEutbem+GHcZXL44WCtal2156eG1/Zv3VD7XxnNYpH0D1vys1ewt9L+iPYUlZDrt37UHEJYq94477ohujSiNZU+6/0mVaspAUYXY49CxqC4o+exr+M5amqtsuw+x5J6tm30HMgxyAQIr3ffZNNQNKxQsMkR0pXmmyn/Z/o0DTG4ShNjo1j+MBayrrDtVWje1tUz/Ur+hC+y6667D3XSfyhzE3pprrhljoxY9wlG4lZXN+9zGTrl2r5vmTX4cknNREJd7FX3PO5AH6Z6Vd4twhzDGowBvnKL+Uxnsn/H0sIQm32nuSPUSvrNzT1HZWBCBN/2cYmTzw21PFk5qm9XPrV5ZZvRBO2gz3hPo2kX1Uv+xP2cvTz9bfVxYWv0i5SeK8gWPE088MeqIncrVnAeBRTgVCCIRZpB0IuqL9E/qK4s2O+6FDwcIW265ZameRmgYXGCFpZ3H1acpaZW2x+KFldhISWB1U6jTAcaEzyQM+QO7DQNoQerU4UVAWmGiI1EQcTvEhxNrB9z6yiZRTWiWoJBQ2IEJCcLCrGB2qTtVGQaqB8QX5NpMM83UNy9VqWPZ4phOJASmZyHUTY2dJrYq+ZZtXpjc2DywWehmHluWDxiyoeHEpY3HbnRg4ZnIihbdKmWlExcbDUgSJkjJUJsYp+XxN4vaLLPMEie8OjIDDhAv5EEgRrsoFC0o+j6VafLgRhT6qG5bU2LHjmfGLSdxuNzh466n6uSZ1lP9DuFGbAs2Stz0kdZBmx7blqLFKl0kOBHhtJc4Eyy0LAQ6RVSd7QKQbrj/9re/RZNzPnmwkNRJlmRJC1w6xyl/+1lFfv0dR8ARcAQcgd5EQOsOh6+QTVUO24rW1LR1vAPp0qYFVlquykQZw7VIbmt2LU3rxY2CHHpykGPX+6q9U7Q/Yg9KOA99R3gOCC1LYJXl32kfr/9ziCgLGvK6/fbb49pdhcBS2Z0OqykDixr2vxzkFj0isOQuVGcfWCQbkHz0g4ipTvhQNw6BbXzbovzq1AfLJg5VFS+0CHv+B+nDu3Zv2KRs8IcUk5V+pzZjgQWBhc5aRk6VyZW+58CW/WI3Mpk2sx/GNbCIwEplv0rZkDkYjHQbC5JLrCeL+rnbfNNp3JDn1ltvHfG2umhRnblIifhactEtIku0V6+CAdZu4F1EYNn6iqhkLNsy0713WnY33CGGyjyJwIbYudwWyw2IZW3qhLHqoe9xPQTzsofwQtJfebeTrlHWbqUjv5GOwCpaSFKgiXqP3yqnLpxWEOhYpp5VJ7xUsRTgTCwQJ9wgQCR9mc5Vzdd2cpF/N9YrDHzMJbEMwlqER2Z3ZRMb9RYeTAoEoiNGlGU9c+raaQKnDQxa3BsXXHDB4V5ro5yicgk6ByMMi9ztBrayAQVODAKsjNp4JDN8YkHE5pAFqazPyspWf2KNx4P5aREZUpZPne8pE3NOyE9OLuv0JWmRC0hd4sBJfvl/1f7SKRMbKDZZmCLbMVinLelkST24tAG5ZTOoq4LtiSVpcvqNPHDjYzOLNZYWCk3KdnJWG6pgq7pxgsnGnQ0lt6Ww6bCYpmSg3bzSbqy62HRDZuGWusQSS0RiPzUd512ZF+uTvKvUtW7f+PuOgCPgCDgCA4sAczx7FMgmguq29YjAais/u/fV/pZ6E6oB1ze7tnYqUwQWN6qVKWZV6k0eIrD0Pms+N7exp2z6qI4cstmDUA71OFBUXN2m5XBQDo6dYkix/6KdRdZXOWWzf4E4gMDq9tD+MgKrbvkisKwFVlEe6ANlBFadspFfCOKiG7ZtPiKwOllg1SlT74rA6ibzfIfOSRBv3MbaeNC9yRNPjLI9YycCK7ceWGAxn3W72Ii80U2wwKobkqdTvXD3xRLKEs5F70JgYdXIgXdbD1ZsxMItezAyYc9PDL62njoEVhuXu420BJaUMbHJ1syQBQ3LCqwUcJWBdZYfuzqqbCDpvVSR5f8QS/hQY/4KIQZzWzW/boJCWVLsic+D1cs222wTrbqKrCuqCB15YhLMwoOCXiUYdJV87TvCSEG75epVxurWLSd9n8EP/px0pWaNOXmzkGLZ1NYjXDRJwbIrcF4OIUK9tGkjPac4LOwQDvzdX6SCxprMXCE5ysgnS/qSHpKIxYnJVWOlyphR2ZbEwgINc2SeKnkU9Sf58WPHAzf64QKIOSqbQktC5vSX6ozVFBshNiWcTnBSbOtdpw1288Hvwgdikf7B2osfXIQla6nJuNKpD0UyQvRDjELGs7DhkkuMA+qntlgSrE692xpTno8j4Ag4Ao5AuwiMLASW9kB2X8CNvezbtFaVIeMEVjFCTmCNiIsTWGWjqfx7J7A6Y+QE1hjlAtTljZGWwJJyqbYRp4dbBHHje+2116IZLC5PUrxSlyBZFZShZ5U9BiImnZAGWFYQT4Z8FYtJimCnGwC6laX2UAb+3rDfBPpTQDXdcCJlsopCTduZgLFOwipKBIc6vZM5cRkm6ffkxw0RWAOBT8rw95ei+8gjjwQCcuNa2aQM1ReijxPDJnkJGxFN5IVPMcQA9ZSJapX+69QPkmlIIayRIC+QkyZ5dutzWQfSJkz0Cape5aYJ1VNjjXGDJZJMk6vgLBm1xB2EJSecdczzbftsntoQ8wl+mP7i6giZBZHTKZZDlTGiOitvPnFbkLUmtwXWGc8qMyXvLVHMHIirAXMfFpe4C1vC0M6bmhMtQaV3H3vssWjiiz8/p1iQWdNMM02/W/tVwdXfcQQcAUfAEWgPgZGNwKLl7Es4pGbNYn9bda12AssJLLfAKiYO3AJr/FYmVbfA6g4jlqmjtQWWlEOsGjDVQ6kFEBvXSoqzVfCAVaRTmRWJlFtZUNxzzz2BYG9Yc3WyzsglhcgPE118wjHtw7Q1NZe2ym5ZOeTHrSgs8roJ0BJLNu+mI5Z8uT3iuOOO61OW0xscm5ZRRJpB8OFC1UaAUNqgQJFt1DWVDyY0zPPxqU8JvqrlKU9LOBDPiPYTdLE/LbA0biCHuRmQ2E5VnpQwUbyynLpaEgtrI66eJnBrzqPrsNMxpXoxp+A2iTVhFbKuUx3szX/6nXcJ3AjBRLw4mS2XjWmVIRz41Bxmx5vaoCt4CVYK2a5bR+3ptXUN1HzH9+SrYI5ccACZhXsBMow7KFZ/VebPnL7xNI6AI+AIOAIDh8DIQmDZwyf2/ptttln0hNDBS5W9lRNYTmA5geUElh0F7kLYzlrjLoT/w1GKb9FNcixiWJ0MGTIk+k9jFUIgw7oWKNaSQUqfVWipAy583CSIGyLXs+Y+WlhRClGIteDSPhZU4tdAwk0//fSxiFzlUEoyZNvjjz8e/Y5F5OXWvVs68obUo77culhlA5FbD0uG4K6I37CC1VVV/juVTd6QS2XBFXPrTv0gbwjszS05VayPqpRFvbF8g8jDbczm22ZfWPnFZRZLR0z2aZclUrrVGVlHJol9gKxovIooqdpekWm4CRPQHJLJWlpWyafsHcYRpCMkKUEgFcTT3tZRlkf6Pe0HK6wpyZ/bAblxhdh5uMLqsX2YIyfqK8oAF1wusUilXIg5iCxrkar3RezzdxFpxw0kWLriPk2gSGIKMv7AhjSaq0UOpoRb7pxWF2d/3xFwBBwBR6A6AiMLgUU9tdfDmplDRxvEvMp66QSWE1hOYDmB5QSWx8CqvkLWeFMWBjYJCxPB0nGJIz4Lgc9mm222RrF/rIuTVR5feeWV6OqDlQmB3VDURZ7UJcnIVwpi6rrEd9wMiALI1ZMEmstxKUoVRYKGE+CRwO1N8utG9ui7oUOHRqsxXO+sIlyjuyu/ahVjLEFoH8p4G0QNeUACEai8yiaocqX/9yJ9DyFCwOxlllmmFVJRMgmpwE2HxJey8tlmOyx5yAaQa3EJgmrd08owkSsi8auQl+mmm6421tb6iLKJFYe7G9cD67ucMZrWXWMVl15u68DqsikZrPnGloVM4wqLeyVmtRDZIgRlVVWGa9H3GhPqNz4JgI+LL8FlmW+Y2+z8VESg2bwtMQYZRX5cknHrrbdGV15uiCT4p6y6SGst7doYpzlYeBpHwBFwBByBzgiMTAQWdcX6mjACG220UTw81TpXZc/jBJYTWE5gOYHlBJYTWP2yJ7CL0bPPPhvjTbFILbnkktHXXRYslhCqsnCllbUKr/zpUcxxQ2SC08lOHSW9CBDrOqQ6E0fopptuiiTAnHPO2XeqlNMOS2CxsGPJBUEgN0FZW+S4bRW1xyriEAcE0OQWM/KvGocgR3AkF2xcuALXXvebi5tVqul75ItYP/3xIAe4jqHw59a3E1mB+ykBAXEXTYN2N22LJUP0O3JLrCUCktd5wIBLFrDgSq9ProqJ5FrlcpMepLNuJ6yaT7d666RXgdDpM24c5VaR3Ft/UgIr3XSTP+4QWAEqvl5OW+y8VkSa4RKN9RoWjLgvQjxNOeWU0YJKY7ioXEtiivjSeP/www/D/fffHx5++OFoWQYRB0E28cQT91l7tTX/1JE3f9cRcAQcAUegOwIjC4HFesZaw74TLww9dSzwncByAssJLCewnMByAqtf9gUouChzzzzzTJh22mlj4GfdMGKVqBzlzlZYih63b2HdxW1/xKTRNbFpWU0sCKRIEkOIWDIEad9uu+1GcPnSQpzTNqyhuK4UYkeWV9ZVqA3LFCmufGI9RgwCAjxLkVX8nH4RjP9Zs2GtgqUUN0w26ZO0jjfffHMgsDYEZtuPSBfitOFKSCDvNh7JMHnhSoerK2Ol6W2Had2sJQ/fQYJg8cXVzjxV5NVedoALGoQ0sbv0VM3DnriqbFwzCWqP5WSVfMqwT8ka3mfjTMwtgvHj8pdTThGhZGUYd0riTXHTKVZSM888c1lVR/jeEo4a//qf6ix55NZFbjulPwlev8IKK3QcU1YGOrWdd5gLcGEmThl9Dsm5yiqrjHD7Yu2GeQJHwBFwBByB1hEYWQgs6kmoB9Zf9tA82tdW3Qs6gVUsPn4L4Yi4+C2Ezacav4WwM4Z+C2GP30KYLipWubKKK/FVOMHHKgCBh9yBGLHWQ02GUkpG4XaFmx3kFWbIuCRWVcTL6mEtK9ReBBUrmdtvvz0GO8+14rBli7wAozfffDO6kbG4Kyh0joLdqW2pFc6DDz4YIMy22mqrLEW+DMOi76kDmw8U/LZuC7TlYJUCjpzOtP1Y/CCxIJrsk9tXlhCBwMG1EnxEYPZX3CHKPfjgg8P3vve9MNdcc2UFkMclD3ltMu4sgUcgRkgm4lbR/jaC+6uPbP9h/YcVIPGrsDBKXRhEDuUQxmoPcn788cfHuGaQxIq/Z4lJa2nVVF7BipsXiSm2/PLLRzILqywrR3UPD1Q/3GbJm75ZeOGF488cc8wxXCzAonVB5eXg2BQPT+8IOAKOwOiCQK8SWFpLdTBCeAwOGtnr5rrYO4HlBJZbYLkFlh0FHsS9nZVulAzi3om0wtqAOCq4vHFj1qGHHhoVpzYUe+WRWjy8//770XWPm/6IbYMlDPVrYvmUdn1qrQLRg9UQpAVWXk0U9pTA4m9uY+FE6qqrruojxuqYVHcTXfWdDZLN7WyQBFh7tdWWKsMHJRsXLhR6LFNySZ9OZT355JOR1EzJpSp1q/KOLJAgTBnoNph7bn8pnfqHmyfpHzDqz76RXHD7JC6kOSTDn/70p3ijIbGfcjejdpxTByyx3nnnnWiJpTq1ISeWvKFMSPbddtst/PjHP46EDI822Yr1lYOJHWf8Tl9y6x8yw6aLWFyQWNYtuY32qf6UiQUsfTLffPPFsonRZwO/1zlUkHwqfh2fzLvE4cLFEMssLskgwDw/PCIeq56oVxl7/o4j4Ag4Ao5AMQK9SmBZ3YFD7r322iteqmJv963bp05gFSPmFlgj4uIWWHVH14jvuwVWZwzdAqvHLbDoulQ5p9OIAQUZwS1/UjatxYT9PVe5p2wpTpSJ5RMBkyFeiNnUXw91V7sJNI4lA4p+jkLbrY4s7pCAWKphvSarrrbd+KyyTH0WXXTRaCmn+DZtKdBl/UG7OHlDbvrjYQHnljYsX9p+rFUegcchCbg9UBYuTWQjHSu4EoIRhEB/9Y02lsSnm3XWWfuCj9ctD9IaN8SiW++q9oElOvgdgprg4rj7tfWkG2adDHP+5CtlAAAgAElEQVQLEjhDZMnarYkFluYN6+pHvlgvESAd6zriS/EoXlUbbbTWXJZM5GABl+ejjjoqLL744rGtvFu1vywBrjpb92YIY8b0vPPOG4444ojowgtZ1mTObwMPz8MRcAQcgdEFgV4lsFiL9BCyAOtgQjw0iafoBFaxVDuBNSIuTmA1nwGdwOqMoRNYIwGBJeXo6aefjkHLV1555RhwGWJH8aY6BQ2uqxBbUZE1A9YLCy64YLxFbNJJJ42nNzxSOC250Hy4hsBJEQQPt9rxA1km6wLyb8uygMWdeDwQcpNMMkmfUtmma1FqPUd7sJwg/lSTTUQOzsRNIsj6Agss0KfA5+STplEbsXbBJRIrnrafFEcIzSFDhkRFXTKeI+tW0Rdxgish5Bhx3XLyrNJ2jRnGEtY6LPR1426RFotI4s7hWpvr7pgSWNSf8QdZ3RaJZS2jNIZFauEiB4EFcSa8m4xxSGnmC8okH+FCeU888USMdYarqGK1tdHHnUg3yuSHIPm4jOLKiCLBU4XESi3F1LbUshMr0rfeeivgXku/EeCfCw+aELtV5NjfcQQcAUdgdEegVwksHc6xNrD3TC9+yVkfnMByAstdCN2F0I4CdyFsZwXseRdCq4hbV5JO/8dF8LDDDotxmTbffPMY+wSypUjBq6P0pUqr6kI38Dtk2Z577hlvZVt33XVjLJk2FD11s1XAFMCc/6EIQh7ghoalhKxg6rStkyhZoo1yWMy5jeWb3/xmTNJfNwCq7li1cPMLlhIpDu2I/4i5WDIOS73TTz89Ks5tWWhYTPmdWGjEWOjP9lEOivqqq64areeaWuxY1NRXxDJ69913+6y8RLq0PQbIl1sAISAYazmEHOQVZDbEZB33NNtHGvd8ijS5++67oyXWTjvtNBxZ3SYGqgPkJ8QO7nCQoJbcaTr20/TE78OK77zzzotz6yyzzBKrIQJRxHLOGCmaVyU7fMd8Djl40UUXxRhgq6222giDtohQtP2TJkjfp33cZIgMIxucutOHWGbp6UQUplg1xb6/5jXP1xFwBByBXkBAeyBc77GIZo/V9FGeHLRw8JFDNGnd4RNXdggsrP6bPhBYXFzCIXru+pCuWXbfyHcvvPBCDI3CoXlu2+3+hrWcvuGCJpWN9TLeEG3E0yX/N954I5x55pnxcKyozoSnIFQJ3+W2SYQk5b344osB4oADuXRdt33Mu3jP6L029m8c/KNsC7tOcsDB7AYbbBDDKLRRLu0/7bTT4k3T3fbk7CcxFKCPc7FOxwneJeilnfbY0kMYG1yuNOOMMzYdajE9h9TkyW3X4NytPVj647XU1sO8ccYZZ3QcI5qnMFoAb8WPblo+uhcGF+jK3dqLBRYHtVx41PSRDFMu3EfZQxilJZZYIno/5Ohd6fxEO/HY2HrrrcuKjkYP6MBNx5T0zSjX/1VvlhQvxUixXmwl+B0FhIZgmUB8GG62YgKQ8DatNNWzSr+tNq6JxILihrMNN9ywz82NNG2Ua6ERuUK+CCKuNphLAiaWXqpXGxOQbSO/4+YGASKlP0dZLZWy/1mLaRJC6FBc28axUz0sucStlNNMM020OkmtYaq0o9s7Gvh8EjsKkq4NS5puZSInWGDh6lc2qddpn2QSS5dtt902bkiItdVmPCi78FIeZbEZZINZZyJU/5KexYMNEguI3UzUlTWllYwQawnTeMhPnjbGYqf+YD6ENMOtksnZ3pLZ1vhU/1IHbg687LLLIsmDLHFja90bmarKluovfLEypa3cNghJz+YE6yx7kCBXZjt3lfWnJUAlZ4899lj485//HJUC5INbaeecc86u85Ad0wNtKVoVU3/PEXAEHIHBRkBzLnsSFE3trduoFzEbuZApd4+DlwFEA/M9e/qy9aNKnTlsY69C3uONN178rJsv79t9KPkQDkUHV5Az7FntoVJF9Wq4JpBGB7Yc/HM4poc1kcuU6ta9E0bsHaaffvqw5pprFlrDs94TJ1btzmkPdbUxLgk/gQLfbX9EOcTNZJ8onbNKP3d7h7ay1//KV77ScW9MncD4oYceiu+0MS5oPzoxstwtjhsySqw3xk8OzmnbqTsy2m0frD0TZAqW/m09YEfMYg47O+3F1EZ0aPq5jYdxA47MP/Rz0ThRubSXvWwbWGtuYM7C26xI56Ac+l8xYdtor/bLlIdhS6d5Qf3MeH788cdj/TQH5swlMpyh/Nlmmy3yEmX5cHmXdAXS54xr+pd6I9vwL6UEliUUrIIgZQoB4NQcAcRtj4FapNCWNa5KZ1omn/dhULmhZJFFFoll89hFRn9XybvbO0UWJrhqXXHFFfFGNiamVGFro70STvKm85kQOPUh7/6yvBIOtJkg9Ez4M8wwQ7+SABZ79THyRHB/LKMQ2v5USAnMrZvxmspKWXpOJon/ozaVvV/leyt7EBxbbrllJORsGW3Jo2SS/JgIucWRxaLOCZ02BbrMgQVWc0tuPUXyaGKE5NFC1tY8kPaFcKc9nL5w2rX00kvHE0s9ue0p6nc7F6N4QJhBVHL6AXGmDVfbhF067/M3NzKCMYsI45Q5UK7htu6WmKwiy2lasH3ttdeixR8ujbR3pZVWiqfQWGep34twbhP7unX39x0BR8AR6FUEUkKirTUjPYzImYOxRMHSF2U+lwQrWquVV+6aZNtmD2rsuqz9EZ+5e3S73tp9UZEe0lS+7PrZSdm3B1Q5/Sl89CnluVs4Ant41ub+LSUruhEcbZZrdTnJhu077Ymlv4JRDtbp/in9Ox3nkil9tjEPSGa7XTpk55+29q2UawlmjdEUZ0ui5M4F6bizOBb1XTrO2io3nXuK5gONJdsftvwcOSvad5flUzR/1p2/7LwQ21DFAisd9CiuMLYw8zD3mGaq8hqIdiB0Y9rrNIB6ENgYdxbIq+233z7GR9LkUDQ42xiQtuPxy7/gggsisw3xoVg1dpJvc+IDO6w7aAfWNelTJjR18NW74EyMLRYYCLr+KKOoXhpUtBlLPvoaRdVuBNqsi8rDfPqQQw7JgapWGtoF2YurlE7V2moPeas9jA/+5vTDEju1KlvwshYIu+BAXmGWWkRedJtM+Y5xhVk1pq8zzTRTrHNOTKyixYH8IfEgsZgn+uuxmzP6klND3BUok+DkbTx2Q2vnGf4PuYP5MCbBmL1PPvnksci25CrdTNu+p7/oQyw0OUhgLsbyFtftunUoUnxs2cIRwuzyyy+P6w+nXRxeEOsQtwDVTW1vC4M2+tDzcAQcAUegVxBog2jqtL43mX85uOQA7vzzz++zRGljHu+mTNfpE6vfpOtTqgPxfe5+xq6fKZlDvm3oNVb57aSj2XeaKN1F5JslG9I+qEI01ek33tU+0WKbypYtty2cKS8lbNK66+KxuvumMgzK+kyYqP/bMBQQhmX7+f4gZIV1N1LM9kUb7bWy1a3cVFdoY16z8topP97pdkFeTj00n9YZI1XloptMWwzjWHnvvff+qwQpCWP//89//jM8+uijUVkiPgnmarLwSCc/lCjl1Q0cKoMlQadybfkfffRRtMbBDJiTGWLApOVqsFK+fi/rHBSijz/+eLj6ppMn9WCCefjhh6MvM647cp1RHe0igwkolgKdHlxxcLkse6i7AlNzlXC66bDpeRclrlt7wVqDrVvZ1I3YPpA6nSZA9RlKetkkqbLAOZr9jTFGR7NNcGYSIKbYb3/72z7zbNuuNH0ZUaBytTikixQytcMOO/RBUtSesjJIDG70bbeHunOpAT7aRX2l/1lZtvkxcTAWbT/qXTtJQSpDpiCn1twzrRvlMY4xVU8f/NjtY2+q4/+UB1kDUYQ7WdFmLe0r3Gx1Aqfb7SCxmFf0d9mYVZ3AQTcW2T6zv0N2UE8sCas8mB2XBSoHF7XLYq9NJe6L4IFpNC5+VR7mi26++FjWcTJNubSHxxK7r776aiyTWAL4uFfBEBK+ys2sFs8iGdf3WGX95Cc/iS6/ELRYhRU9dm0grS6jsLKvdHpXcxd/gwVYMR9i7s9cRewG+ph1QTelFsm6HTdV+rpK3/k7joAj4AiMrAik63puO9I1mHyqrEO2PDwb2CNiZVt1D1+1vlLWc5XWTnsMrSlqazdipmpdbZ79RapQRpHBQVpHq9vU7c8Um3Rv3Y04k3JcVb+oiq3KLCpbZQnznPYW1aOb7Ng9SRW9uWo703y7tTd9t04ZZe8W9V+3PijLr9v3VfqvqTx3Kr9Kvm3LsvIrI4PtXGoxaiLfNpxUnXyaji0rx2PMO++8/8XKBeURawUbNFcdRQIlQklNCR4pzjQC65Jbb721kgyi7EOEsYBKebUJxeCiqLGoycqD8uVnnhYk/9KqLk1YN91///1RKaQOnAAVnW5QnsgJFNwUA9WV8mefffbhghRSR+v+CEYEeis7naEM2g0hRr70jZRXtVuTPO90CpAm4UaxJYB42emNVc47bSLI880334xBK6sOSoIT4nbE+0UYqlxwIfYNvvlFA0OYUAcsd9JbalKZgCwipg7lCj/VGSxw/yLWlvressuUwf85ESzrL+Qey0DJszYHqo/YecYZ/SV5s/W1gxsCj7rZ/sIyjeCW6W2aaR58j6KvmzBTHO3E9+yzz4Z77713hDGLWy6B1jvFi6BelAN5An5FRJnKJQ/KIUYEJJaVsauvvjoSvriilcmmNl28xyYXwiIdi/YdyqH/ykgpNR4yjTHCUyR7yAa3SWIdWDQHUY7mKlzekOGyh/dxK/3Wt77V0bUUWcCNDhxF3qR9Dg6QtZ0uzEjrQfD5usF2v//97/fJlOTZ5qv+e/nll2Nwe560T8FQMT4YI5y4y5K2E1ZcBgIxlW5QtBaIGMc6eKGFFhrutNWOP8kyZBvkZieSrazP/HtHwBFwBEZVBFKF266p6d7Trr/pmslcL/1Bn/yPvQlrKAfT7KtZo/mdvRyhOVjDmO+1TrCP0Z6e8rSvKbLiSP9n29ItBtGo2pfeLkfAEXAERkUExvjRj37032OPPTaSI6m1hG2wXZhShdF+R9Dvk08+uRQr8mDR4sYOgk4XKYtpmfaEo5NVCcHUCXauBa6sIlipEEOGhbLMUqWbBZQW+Pfeey+6/GGJkD5aSCFnLrnkknDQQQd1rZ49HRFBVkScgQt5ERy8ExNKOtx7cL2pypbynupQlAbyChfSKqQDDaVsNi1YB3U6ebHEgTX7FlCqk4i7Y445ppTAwhIGCyvV025i7EkAv6dEB+UQ5HTjjTcuJUEg6KgfQfyKSD1L2qgunYhQ6gg5B9lpsR86dGjc8M0111yFJKDw06mqPRVICQ/JOzdn4tqYPsShwNrQbliL5gSRs0VEkiUruFEHd0FLYGlMEQcLV8QqsqQ2QWBBGhaRoaqLrL3KyEfaBcEGbmBb1H/CFNIHt9Oix2LRbT6xaZl/IQshsEhTNNa4pAIyzMYYTPuTdDJFrzLGuc2QtqiPyuZKvidoLYQwJFoRMWhPEIVXkVxoHOMCCZlURmAdeOCBkfRXu9L+SefKIuw1h9IO8mOtwELRH0fAEXAEHIHhEWCO1T6Lb/S35mC7xrAnYY3loJB9Hjfm4lbORU64t2Mhyw9rGIcGspIlD5uP9gMK3o21MxbNHIjwQ/7cNo5l87LLLhtvTuPTWnaL9FLedk2usi66HDgCjoAj4Aj0PgJj7L777v8l+LAm+07KhhawoiZJmSAPlALlV9Z8Fj3exy2v6LHKCt/r7yJiQ+mxjiD4uBaxMoUYsokbrnRrWxFJZcmWIsVWdeM7riXmqntOkooe8sJihXdQ6MuebqSiTYsFB9ftFi3Q6lNcP7mFoGwRl3KZEoapwnzTTTeFtdZaK/67Ey42zR133BHd7Lh9rlMdLMlTVk/yRvkX1p3qgMK900479RG0ltSx+Krd1rqJ/2E19t3vfreUwOI2TNJCrBTVvQqBJbx4F+siLK4s+QKBxeZOVkLWbdBirTamY6hI3pCL1AKL9JCwEITd+jbd4Kb5W1IFsgRXWEtgCXOslbjKm/LKxqzGP0Qht/HZuSEtv4pcKg1YQ7rMPffchXlqHDFuIbC6EdrdCNq0jpCE6667bphjjjmG81W372GBBcGFdVEV8rdoHk/LpR2ywLLkTrc5CbIfolEB1LuNUclGNwIL5eS5556rRWApv3RuVF93GhOMG1n60m5iGGI56I8j4Ag4Ao7A8AhoPrXzt9ZrQgdcd9110aKawwziELIn+drXvhbjMLLG6xYwu29P91b2ANG+Zw+l7BqjumDFzmEo9cBKnbX7qaeeimFOOKhlPZ1vvvk6HkpX2Vu6PDgCjoAj4Aj0LgJj7Lbbbv/FYsqSUJ2UwDJFlnQQUnUssHAhxAqq6OmmqHRSclGQUYJRVKookcQ/2mKLLWJQ9jJF2LY/XQB1OsVi2o3A4j2u2yXwcVngcJUnRdmSBRYv/l+FwGJhR+Evs05LcS8ql/9BYHErYqd6pX1KPK8yAsu2lfRpPwtnWVhUIbCw8CPulBRe+6k62janBBcxniA5y6x4sAaiXhArRbLUSZFP+5K/eZcTS2QldSHE/J7NmZ4iWbR5diM1KQcCq8gCa++9944WWJ02e6S1JE7RmLTumJAG5GkJLFtPiEbqIgKp07QpHMEZq7ciqyXJifq6jBSjLE52SUdw8G79J8ulbrjW2SDjEkrMN66X7lQubpbcBoqiUNQWWSAJsyrtpT9oi/qxTL7Jm9hWkP5y5+6EgRSdTvVQ/0BgYfkG6dvtwcI0JegleykJrfFTNC5UL+ZLt8Dq3Y2J18wRcAQGFwG7f+byomuuuSY88sgj0aqKwxQslblCnTiKVn+w++SUBCvae6UHQenBRIpCEaFl53wsejnoY13BwheCjQtOsF6279VZowe3J7x0R8ARcAQcgRHWAgisU045pTVkqroQUiAWWMScgWBo64HAgtSoGvMGAov4KsQkauN5++23Y7yk/fbbr2N2kBK/+tWvKllgVamTCCxcbLo9kAOYd1dRbquUiwshFljdiE2bjwgsTsfaeCjXElid8kS+sMCq89g2yYWwTMEXmSICq055Re/iQoh1ShGBNf/88zfNvi89JvhVXAibFghhkroQarPKJhZyk/GLyyf/10+nci2B1bRupIfAoh7dCDTkAuurKtaTVeskCyxi53V6ILBwv8ACq62NtwisqvXkPVwIGU8i/OukLXoXy7sqLoQQWGXzW1ldrDIFgcVa5S6EZaj5946AIzCqIlB0WKm2Mi9zcRKxTolJxXrLAUrVG4cHEzO1i8833ngjHtxipcVeCnf1ZZZZps+KWPXUoagOg8r2e4PZPi/bEXAEHIHRHYFogeUElhNYOQPBCazhUXMCq7sUFRFY9uSWjSO3EHFqisUbRE03stUJrJxR+//TOIHlBFYzCfLUjoAjMDIikBJXtIH1lhiuhJngdlcOdbFc5zKOInf5tg5S+gO/1DrXushzeQfhLCDj2EPI8pl6yJug6qFsf9Td83QEHAFHwBEoR8AJLLfAKpeSDm84geUEVh3hKbPAgqzC5RCrTG7U7HSDosp0AqsO+iO+6wSWE1jNJMhTOwKOwMiKgA1pgOcAVr5YyWNhjDVwJxdstbeXCSyRUbZvLGlH3bH4JtwIcbSIh0jMUR2Y9XrbRlaZ83o7Ao6AI9AWAk5gOYGVLUtOYDmBVUd4uhFYOvnkpJSbh3Dvws22m7uCE1h10HcCy10Im8mLp3YEHIFRAwFZKBFPkzAM3PDHJSocGin8BiE+uKxDj7VqqhJfdjCR0lyveqYXe9jg8bz7u9/9Lpx66qkxHi+xJnnaCrUxmDh42Y6AI+AIjKoIOIHlBFa2bDuB5QRWHeHpRGClebCh5JKDVVddNV6XzVO0YXYCqw76TmA5gdVMXjy1I+AIjJwIpOsncyG3yT7wwAPx1nBuDBzdH8g8iCxinl544YUxOL3Fzd0KR3cJ8fY7Ao5ALyHgBJYTWNny6ASWE1h1hKcqgSXCarHFFovB5e0NoTaWhRNYddB3AssJrGby4qkdAUdg5ERAFkjDhg2LNxtz8y1uc/POO2/lC49GzpZXr7XIKuKAcZM6sb+IAWZdD6vn5m86Ao6AI+AI9CcCTmA5gZUtX05gOYFVR3iqElhyVeDWoIceeihsttlmfcXY2BROYNVB3wksJ7CayYundgQcgZEXAea/8847L7ro77DDDmHSSSeNca563R1woBC3Flb8TqD3iy++OGLG4y6FA9UTXo4j4Ag4AuUIOIHlBFa5lHR4wwksJ7DqCE8dAot82VzvuuuuYf/99w/f+MY3YlH8TySWE1h10HcCywmsZvLiqR0BR2DkROCLL74Ie+65Z1hhhRXCBhts0Edc0RrmRWJN+vN/WNh4nB988EHYZ599wuGHHx6mm266EQLbO2aOgCPgCDgCg4NAH4HV1L9b6Qm+jPltlYcgkZgxn3XWWVVer/TOXnvtFYNSKhBlWSKCNm6xxRbxyuA2Hm5zOf/888N+++03QnbCCBNufOwPOeSQxkUqz4MOOigcccQRXfNj88ItM22cJFHujTfeGNZaa6244Fe5tYWyP/roo7Deeus1ardVROlrCI5uz5lnnhlNwavUsSgfYiJsvPHGpZu82267LWILsZL7WHP1mWaaKTz33HPD9dfQoUMDbgDzzTdfbE9V7Ivqo7TLLrtsdNVLn3333TeOpVzctDlWvsg7m2id/Haqu8Xg448/jpvHo48+OmajzSW/r7TSSuH2229vRZ7J76mnnor5zz333B27j+8PPfTQeFNTW8+QIUPimJhtttk6ZnnVVVeF6aefPiy88MKN+sMWoFsI67hIbLPNNoHxJLfOXAxU5quvvhqef/75sOKKK3bNivkNOWgqi0pPfqxVU089dW4TPJ0j4Ag4Aj2PAPsFSJitt946LLTQQrG+sryyB0I935B+rqAN9J7uTbACZ3/Nnszua5qsR/3cHM/eEXAEHIFRGoExdt999/8SxLEJqcHpjk5w9thjj3DSSSeVKhosEJ9//nnYfffdwxlnnFH6ftVegMA66qijooJVRbk/55xzwqabbhrGH3/8iEHTBendd98N5NmJVKFOIrBQhJs+crdCGeWHW2TShzJ5j6DYt9xyS+E7deshAmv11VevTBZCYHF18brrrhvSW2FyyqevuAa5jMDidp1ddtlluNO1svLsSdyll14aNtlkk1ICC2whTiGwcs3ySceDLLJZevbZZ4crFwKL8QbJ0kRWwV/pl19++UICa++99w7HH398xM3GnirDzn4v+eR/P/3pTwN5lhFYaf6MJ8gb5NduHvlbpGGdOhW9SxvBGmy5QrzoRPr/sXcecFJV9xc/U3aXDmJBAVGDiKjYNdgRGxYsURQTjWBBsaPGhsYCGrvYEiP2DjGCYEGMikaDoiAKNizYUATpsHXK/3/u7G+8vMyyM7Nkmd09z8+6y857t3zvfW/nnjm/3zXRhfct77U18bxgW5iPhPfElltumfGZRYbPPfccNttsMydc2vyoa5/ZBwpxdi9mM5+4COJ4cJ7z+e3vUpVPe7j7FQUsipGrO3yBPpvnek1jbKLvsGHDMHToUAlY+QyarhEBEShYAvZ3ig3k345rr73W/X3ZYYcd0h961eX9fsF2/H/QMLLkewL+vePfvjvvvNMlvLe/ldn8zfwfNEtFioAIiECTJ+AELC5STfio6+LABKzayPKPAv+4nn322W43lDV1sH72JxcHFgWsVq1auSbkK6zYQp0OrIcffrhWBxbPWVMuDo4ZxQG+Ucn0xsT6RJcD4/rX1JsXhhAefPDBWS+oKWAtW7bMvZnKdxFuwpK9ccjGgUWBdPDgwU6UyGV87Y3gM88842z3tc0pE1PIuS6fbNo9uOmmm+Lrr7/+LwcWnYsUMvK9V+1eszlLB9Zbb731X7cgXYQUCOvyJs13y1GE4CfBuQpYbBjv61tvvdW1hfOX4gkFrNdff71O7fM7/fHHH7uyevTo4X6dqd+cP7xv+VUXLn69/GSXDj86sDKNKX83duxYt703HVhr6qCIw7pNoKxtfrPegQMHOgcW/17kG3bi95EOLLoMa3Ng5dPWTJxMWL788svdnNpggw3WFE6VIwIiIAIFQYB/p/h3csKECe49F6MM6vp+oSA6Vo+NsA8TuVaxD2q4XqGIVZf3d/XYBVUlAiIgAo2WQOjMM89M3nPPPa6DXBRmcvBk23v+gaSj6q677qr1Ev5xYH0M41hTDizWTzfOdddd58SGbP5gP/DAA85d06JFC/cHP5trMnXOFoHcwYRJH4OuIBNO2G+6DngOQ2LWxME/sBSv+FVT2/j7vffeG2+88cYaE7DGjx+Pfv36Zb2QZ7hXaWmpu6Yujh4TMLiApoB12WWXrRYjF9wUsHjkKt5xXEePHo3+/fvXumA3BxbdJPn2z0QzvkGigEW3ni+UMLE5GfLTVHuTmq+QYnVxXgRDCO1eqquAReYmGlCEyEfAYlumT58OCqYUatlfhkX07dvXObCyEV6yuc8shJACVqY3qPZs4H1GAWRN1Xvbbbc5IdgcWME5ynGmA4sutJ133jmbrmR1Dh1Y5Ml+ZDuHGEJIRyMdq9lek6kx9qk2xSuKWLUJWOTN5yXZkEe+7P25SAFLIYRZTRWdJAIi0EAI2N8p/o384x//iKefftr9DebB90z5vsdtIN1fY800TvY+iwVPmjTJObWZm7Muf//WWCNVkAiIgAg0UQKha665Jtm6dev0gtscLvnwsIUlnRu1PdxZD50kFM+4KLE/sPnU61/DeplXy9wBtbXj3Xffde4TLoi4qKrt/JraZwsrft9qq63A0LrgYYIBXTXjxo3Lu65gueZKoXiYqf3GlsIenWa+xTxf3iyDf9gZEsbv2QifkydPxowZM9z5+XI2YYFjRdZcSDM8cHUHRY5Zs2a5Ou3NSLYMLOSIi93axC8KdB9++GH6vGzryDSeHDMmEOWYlrAAACAASURBVA266ubNm+cENbaLDPI9jD950BHFXYmCB0PbeF+YYFDX/pSXl7s3frk6sGz+nnHGGel8eWw/c+cxR9aaOFge66Ebc6ONNlrtfcRnFsX3NbUQYL10JXbr1q3G+2Lq1KlOZORzzeZ+XfvNkEQ6C3PpB8Np6TI1916+c4Jtt2cmBe3V5f/iuea+s3GyDxtyYWD3Mr+XlZXh1FNPlQMrF4A6VwREoEEQSCaSGHbFMJx37rnuGRcKhxGLxxEJR5hIEgiHEGJP+DNzadJx7P7PI5T6fTzOT5/cPxGKAlH3Ay9Kn+3K4JFIArEqIBF3ZSMUTp3G65nWIlL978oYkIwDRcWp39m1vI7n8ldMKB+qTiofjwExtiGUOj9dThXA16zN0WiqTJ5X3T5KdmEkgGQ41Wy+X4pVpl6OFgG8xp0fOJJAkggSCZCS+7tRXQ9/Nme6I5Xp+gYxQ9RIERABEWjYBELJuqxAGnbf1XoREIEGQIBiCUW0k08+2W1+oDeNDWDQ1EQREAEREIF6J+A0qSQw/KorceXVf06pMeEoYtU6TiQOVEaAYidQVSEZaYayMNACZUCc4lExULkSi0aNQvsf5wPNi4FeBwIH7oREvAThcAUSoShiiKCYGhI1oGXLgFtuxpeP/BWbnz8EaNMJKK3CN3+/F5s++AjQaysk5pdh6XmXANPexjovv4zEph0RRhHw/Q/4cuSt2HzT3+Db7z/HJn++Eok2HRCujGPRo/ej/edzgFat8cuWXbHeMb8DYhVYcNSJKHp1IsKoQDwaQetTTkX0tpEASoAo+xXFynACLVEKxFs50apy9GOYd/mFKFlehvUuvgyRc4ci3rw5QkggHGcnKKBFgBhQXgw0Mz2PSlgEiKe+uQ+SmLfxxBNPrNWVX++DrwpFQAREoIkQkIDVRAZa3RSBhkqAAtYHH3wAupDowpKA1VBHUu0WAREQARH4XxKoAvDiq5NQlajCIQf0RQRhRBJAlB6rcBIrkUDLZBihZBkqwkkkky1RUr4C86dPRYddd0ci2gzhp57F7MnjscV9twNLy/HNH4egyzMPIlbUPi3kFCfKkAyFkUQJwvEkMPEFvPPgo+j12OOItSxGtLIKX0x8Ad327I3yddohGqpE9IPpmHnOBej50qtAixInlM054yxsdvgRQL8DsfLZ59GysjVw4mHAa68Dd98PPPU4sOQnfDJoMLZ65p/Aj99gyZLFaLfTrkAVMHfsWHTa67eIdeqMMM1lSRKIpoS7/8+fuSQCtFu4EN9Neg1dDu8L/OsFTLnxNuz2+FisXPkLWnZsBazT1Ql8FMSqEEYIRShmlEgogWLawti/kJO4nPvaQjP1XuR/OZNVtgiIgAjUTEAClmaHCIhAQROgSXTUqFE45JBD0KlTJwlYBT1aapwIiIAIiMBaI/D/0X9XXnwZzj/3HKzbcUMkI2HqPIghjmZIIlxRCRS1QCxZgejU95CYMQuf//gDepw+GOiwEbBkId4++RTsccFVwN67AguX4Ksj+qHry+OAmTOR3LgrQhttBLw7DVWtilG01dbc/gi/XHYF2nXYENFzhmDl19+j5QbdUb5eGM3iCSARRry4EpG/P4bPF3yL7hdchUSLCMKvTMI7996BXvc/CLReB7FHn0D053LgvNMw5/D9sNm55wGH9kPV0m/w2aED0HPSm0CrIsQQRjIRRdHnX+LHadPQccBxSBQ5PQslDFEMUZiLIpRK/QVQ1IoXgYYvLF6EyZecj94jrgeiLfHZ6NHYPBJDdLPNgD33BUpauDDHqqJIdTBilXNehcF0CgkX+s78kWsqh+1amyeqWAREQAQaMAEJWA148NR0EWgKBOjA4q5/V111lcvXlO/ud02BlfooAiIgAiLQdAkkkkkMPmkQ7nvgfiAaQThG61ASK0uSCKMczb9bALz/Lqa+8Ra2PPIgtNltPyDUDIgkURWtQtGLE/GfW0Zi97FjgeatgdkzsODEk7FwyBBE7nsAG/TojrZ/+CMm/30U2vXeA9sPOQsoXYlPjzgKPQ7rC3RcH9P/+Rx2fGIM0KwYSFSiPEIhK4ayo45F8xtuBLr3cDmpFg8aiBY7bIeS8893+anmXHEZNttoE+Do3+Hbg3ZDp3dmIbLOeghN/Q9mnjUUPV97CclW7ZFIxBGJleKzpx7Dlkcfi3jLdVHl0maF0CyRQGU4iQj/cymwyhGigJVojapQHEUff4WP33gdW592YirXFq+LhRD/9idMu+MG7LpvL6DnrsAWmwJono4ddDm1XHqw1AdqzKFYW17UpjsL1XMREAER+N8SkID1v+Wr0kVABOpIgG8YudPkX/7yF1eSbPt1BKrLRUAEREAEGiUB5mo6/pj+eOKpJ10C9SIqL0xMHkkgtHgFZg+9HlucfQKweVfnZopHqV0xyTpD5YCyEVdhxeKFWP/G25jJHD/fcQPW+/BTRB56DPj+J/x46IFoftW1WOeIfkAkBrSIAP95F/8eMRJ7PXgf8PM3+PChR7HdrTenckclSxBJRIEvv8QPJx+Hzi+/g1irIkRXrMR7B+2LXa69Hthnf+DH+Zh89O/Q+y9/RtXPCxEb+zCaj3nZRQKG7robs/71KrZ59CGgZTsgmkDZ228hXhFHq712A4qLgBjD/MJIhJNIhCheVbn0XInqxPVVoQhKlq/EB3f8DTucOQTx9i0RQgwJJBFN8npOh5XAV19j0d33ofWfzkW0Szfn4kqEyl1+LObs4gdqJmDpw7RGeQupUyIgAg2AgASsBjBIaqIINGUC3Lb6hRdeAHeCZDJ3vWlsyrNBfRcBERABEaiRwP/rONdcdRUGnnoyOnXp4nJfMXlTLFmFKLO7L1qG5Nez8Px9o3HYAQchxB2zWzdHZQIopmA19Gx06NYVOPdCYPECTOrXGwdecSPiBx+GSNky4NjjgD9fAeyyI8qqStA8GsaySy9BolV7tLvkQqBsEebO/Bjr7bYPiiKVqAo1Q0k5gEcexs+fTkGHm+9BWSKJ5pUr8Pqhh2Lfex8EenQH3n4bU86/GLu9NBafjrwFPVq3Q+LSYQhXLgEO749Fx/8B7Y8/HrHiEkRLV2D6U49ix+NPAJq3SYlcVOniCTAfeyQUQSLJXcUjqKwKoSSaBMoqMPnvt6H3SScBzdsDJc2dQOe2PlxZCsz6EGPu/yv6njQIbbbaGVi3JRKhEMKhMA1aboPEUDLpPkAbNmwYRowYoQ/TdBuKgAiIwFoiIAFrLYFXtSIgAtkRuPvuu7HXXnuhZ8+esuxnh0xniYAIiIAINEEClGTefvs/WDDvR/zuyKNS2wSGqrcgDCVQGS9HcagSKI0CP83F/A9mYvq776Lv2acDHTvgp6tHYKPuWwMnngjM+AhvnX4y9pw4GWjXGpgzC7Hb/4r5nTZCxwsuAIpaOmHo/cP2x86XXYrEgX0RDlEwiyMeoVspiUQ4hJLKJEoHHIcWFwwE9jgAoONp+RK8ftwfsO/f7gE6tMN3112Hjq3XRXTImZjz6H3YrEUbYNBgYNoMfHvuGdjk+VecqJSMx7BwzLNYb7utgW49gGTUFZcIlSGJEKLxZoyY5MaLiCWSzpjVrHQZZr32Krbpszfw8y9Am3ZA+7bAovl4Z9RDWL/LlujasyfQpYsT82JFlKtSSdsTSKCEDOliS4ZQUVGBE044Af/85z+b4OxSl0VABESgMAhIwCqMcVArREAEaiBw7rnn4rbbbnPOK4UPapqIgAiIgAiIQGYCySRVlySuuPJyjLhuuBOvmP2Kv+cufaF4HJXhMKKREOLJMhSVJ4DSUiz6eS7ad90CeP0tLHr3fbQ/9ihMHn4lel9yNdBiHeDL91G67gZoEU/iu2HD0fnSyxHedTvghQmYfe0V2II7BPbYFolwFOF4AomiEMLMqp4oBSa/gfiZFyDy8lhgk65ApBioqsCMiy/H9ocfAqxYgncnTsJvr7shJS59/QWWP/oQWp90Kj6+eSS2HnAosE9fxENxRJaX45sXx2PTow4DSlqnICxchOn33oUdLzwHKGrvNLsq7iqYrETku+8x76I/oU2L1mAk49ct22LbETcj0TqK8rlfokVxO6BtW6AoglikiNGJiIUTiCZDiCOBSMrelRLFwmFMmjQJZWVlOOKIIzQFRUAEREAE1hIBCVhrCbyqFQERqJkA816ZWMUE7tz1xw6JWJo5IiACIiACIpCBQLWAdfNtN2O/A/fHdttthxCqd9SrFrESKU0G8VBKqEki6cSaaCgKlFWi9M03Me+LT/Gbg3oDm/UAflqAX157Husdd4Lb4a/ioadRcsihSJYuxk/PT0CzWCUWd+yMrgP+gGRRlKe4lFqhRBK/zP4EKye8iM6llfiyW1d0P+5Ylw2ddYYWLsb348ejWUkx1j/sMKB129R1sQRib7yGbz/+DF332RPYujuSkRIkGdI35wdgnVbOERZHlNIcQj8vxNQLr8Sud49ARbt1URJzxiyEEjHMe34CWn04E81jIZcHLLrHXsAefRBrlgo7jLiYw6RzWhFdJBlJhSTaDob8TgNWJMXsvPPOwx133OFyYSmJu+5AERABEVg7BCRgrR3uqlUERKAGAiZexWIxrFy50ln1Bw0aJAFLM0YEREAEREAEaiFAcaWqqgqnn346Hn74YZc7kr+LRqPue6PKI5msxNL3PsTiGV9h01N/hxXhMFq5zPRU6IBKilYIuxxWuRx8H2KsyI9i1aOPPopmzZrh2GOPdUXpw7RciOpcERABEVhzBCRgrTmWKkkERGANEbBPNx944AGX+2rXXXd121frDeMaAqxiREAEREAEGh0B/u3k30n+vZwyZYr7omuoqKgI/FCo0YXiJ2NAaRmAYiSbcxfCqAv7Y+L1aBxIcPdFhJ17Kp/D3ovMmzcPd911l0veTkGLYqAOERABERCBtUNAAtba4a5aRUAEaiBgb8D5vX///njyySfdm26+AZdtX9NGBERABERABDIToHDFgyIWBat7770X3bt3xwEHHNBIkcXdboJ0nEWKmyMcTwKRMJh+q8htMli902COvfffazBx+x//+Ec89thjKC4udiXpA7Ucgep0ERABEViDBCRgrUGYKkoERKDuBOyNId9AXnTRRS6Bu4SrunNVCSIgAiIgAo2bgP2t5N9R+6JzaMstt0Tfvn0bofCSyt8VRxhFCKVyV4VTOwj+updgrgGEqwpU++67L8aNG4e2bdu69yIUB+UGb9z3kXonAiJQ2AQkYBX2+Kh1ItAkCfBNIt98/+Mf/8CAAQOaJAN1WgREQAREQATqSoB/Tx9//HEsWLAAQ4cOTScfbwwuIvrN+OUkqiTABPXu5wSQYEJ4JnnPIoDQ8lxZ3iuy+eGHH9yHaPfffz9at67e8bCug6HrRUAEREAE6kxAAladEaoAERCBNUnA3lS/+OKL6Ny5M7bddts1WbzKEgEREAEREIEmQ8CcWFOnTnVJ3a+++mp06NDB9Z+vNeTd9NJOq3hKxXK5r9xOjMx/lRribPxXFnpp7z/uueceLF68GFdccUXjS3zfZGa+OioCItBYCUjAaqwjq36JQAMlYG8kjz76aDCJ+zrrrNNAe6Jmi4AIiIAIiMDaIxAUZn788Uf8/e9/x29+8xsMHDiwwYfnU6tyCdoTQDLsNh6En149/XotQ2Ai3xdffOGStR955JHYb7/90qGCjcGttvZmoWoWAREQgTVLQALWmuWp0kRABOpIgBZ+fh166KGYOHGick3UkacuFwEREAERaLoE/J0J6bbiv/m39aWXXsLxxx+P3XffvcHCSboAwtT/KV4VpbSsVE4s/kB1K4stCOfOnYunn37aua6uvPJKlJSUOHcaj4buUmuwg6uGi4AIiEANBCRgFfjUsE+FbFvkXKzejOnn7m35HJaDiPXlm6zS/8Qqm0+v7Bzrs/XV/302bfGTgLPvuTAzVv5OPtny868x9rkysDdL/F6XrZr9eZMNs0x9tP7wtWzKsDp9hvnMP5bDHYW4++BJJ52UVd3B9tsb9lzefPr9zbbPwXrXRBks00/Emw37bOeozhMBERABEWjaBPy/1QwpnDJlCs466yxsvfXW7j2jJSn3/47a38R83hvVF21zW1HOovYU4lc45P6e2nvB4N9oClfPPvssZsyYgZtvvhnt27eXYFVfA6Z6REAERCBPAhKw8gRXH5dRwOA2yP6biNoWs/5ubbyWRzTqG6qza7kJWFZfriKQiRDccjgXIY1ttvaWlZWhWbNmrsEm4NXWf+udsSsqKspLwKKAwrrszVx21FKf1NkX28D67Q1TNgyNVWVlpWt3rvWbYOO/YctHjOH11n5en+0YmmBn89a2nM6Wn7X/k08+cW8kN9poo1wuTZ/L+skvG+Z2kY0T+1qX+4bzxnhlO1/9TrIdvL5ly5Z59V0XiYAIiIAIiEBNBPwPSOzvOx1ZN954I0aMGIFddtkFLVq0SF9u5zeUHfjsbyjfS2Z6/8z3dz///DMuu+wyt7PgHXfckRbt7D1MPn+7NeNEQAREQATqh4AErPrhnFctH330EUaOHJl+I8FFebaOFv4Rnj17tstzQBEll8Ps0hQR+ImciSG5lMFz2X5u3UwrdvCTvJrKouDAxXt5eTnGjx+P/v3757VjDsv45ZdfsN5662XNLNimadOmYaeddsqp2/bmp6Kiwr1BYhJyE4JMhFtdgSZ+sByW4b+JzLYhnCcU/5YvX54WgHJ9MzZnzhx06dLFsefYcQxNEF1dO3g+2/7tt9+iU6dOObNnOynekT3fRGc734NtYgJ4hiBae7KZwxTbVqxY4Zh/9dVX2GSTTbJFvsobfZbz6quvYu+9987LPUYGzFPCT4WzFQ5zbqguEAEREAERaJIEfJe6/Y0nCP6d5PuW4cOHu79BdCR17949/SEcz8n1w8S1Adh3oFv99h7o2muvxaRJk3D99ddj5513Tr/Hsr+1+pu7NkZMdYqACIhAbgQkYOXGq17PnjVrlntDsdVWWzlXkh+OVlND/HA7bpc8ePBgd30uhzlRrr/+Olx++bC8Q9kOOOAAvPLKK6vYt2trh+8go/hDISQfEYN9YILShx56KCcXjrWP7Tj99NNx77335lS/vflhIlDu9PPEE0+4cbOtmWvrv31yyE8IKcIwkXmuB69lSABzOfTr1y+v/lM4pYC022675XS9zR3mkmBujVwPu37//ffHM8884z4dzcVFZfXts88++Ne//pV282Uj4PlhFZw7jz76aK7NTwu1Bx10EF5++eW8BCwKjxx3Xm9ics4N0QUiIAIiIAIikIFATSHq9v6R72OWLVsGvo8ZO3YsPvzwQ/d+qG/fvu79UD7O8PocCF+g++yzzzBq1CgnzB111FHo1auX+3CNh33A5X+4KAdWfY6U6hIBERCB/AhIwMqPW71cNXPmTLeA3XbbbXOqz0SACy64AKeccgq22WabnK63k/kpHLcQzmbxn6kCOmCef/75rK8PCnQbb7wxvvnmm5wEJLbDyhk0aBAefPDBrOsP9uHkk09212cjHPr18vwvv/wS/KTvscceSxebbTm8gA4qsqMDLZ9j8uTJWLp0KY444oh8LnfOP346ueeee+a0S5H18amnnspLwDKO3P2HDiQKWPnMv969e7tPWfMNYaSA9cgjj+TFjgwOPvhglyQ3n2PlypU45phjXIJdHSIgAiIgAiJQXwT8D0Htby+dyXw/yjxR3333HRYsWAB+QMm/03S5++9tsnmfY+9Rc/nbXlsd5rJ+++233QenbONmm23mPsDt2bOnc5T79WXqZ30xVj0iIAIiIAJ1IyABq278/qdX8w0DD/7xzeWwP8x0YNVFwGIuhGHDhuUlILC9hxxyCF544YW8r6cDi2+WcnXg+AIWHVj5HmR3//3359R+q5ufXAYFrFzaQQFrwoQJOPbYY3O5LH3umhKw9thjj6z7778prauA1adPH4wbNw5t2rTJun4fFAUsvom1HGS5vlGui4DFdvCTaglYeU1dXSQCIiACIlBgBOzvO5vFD1mmT5+O9957D0uWLEm/R+vYsSM233xzl7qCglHQPe/n0Fqd0BUUuPy6Wf/ChQvBNAf8oJAfcjLlhLmV+X55xx13TKcA4O/zcfEXGH41RwREQAREwCMgAauAp4MELAlYErAkYBXwI0pNEwEREAERaAIEfFGJIYbBDxb5+tdff+1ynzJsjzlYmTuzXbt2aN26tcs11apVK/c7OqP5nakxbLMaXm+b7zD/J3NuUpjih3kUzPhFVzm/NthgA+es6tGjh/vOci0cMNNQ5PIBVhMYSnVRBERABBo8AQlYBTyEErAkYEnAkoBVwI8oNU0EREAERKAJEKDA5DuoTBTKtEOhnWeuKOIxAYyvUZyiEEVRipu2MG8n3dIUtChuUfSiKMU6gjsf+jss+/Xw3GCIoA2LBKwmMEHVRREQgSZFQAJWAQ+3BCwJWBKwJGAV8CNKTRMBERABEWgiBDKF/WXKJRU8b3X5q/iavR7c4TCbsg297xBTfqsmMiHVTREQgSZLQAJWAQ+9BCwJWBKwJGAV8CNKTRMBERABERABERABERABERCBeiMgAaveUOdekQQsCVgSsCRg5f7k0BUiIAIiIAIiIAIiIAIiIAIi0PgISMAq4DGVgCUBSwKWBKwCfkSpaSIgAiIgAiIgAiIgAiIgAiJQbwQkYNUb6twrkoAlAUsClgSs3J8cukIEREAEREAEREAEREAEREAEGh8BCVgFPKYSsCRgNXUBq23btnndob1798Yrr7zidjbKlHh2dYXy/IEDB+KRRx7Jq25e1LdvX0ycODGv67kz0zHHHIOXXnopr+t1kQiIgAiIgAiIgAiIgAiIgAg0RgISsAp4VCVgScCSgCUBq4AfUWqaCIiACIiACIiACIiACIiACNQbAQlY9YY694okYEnAkoAlASv3J4euEAEREAEREAEREAEREAEREIHGR0ACVgGPqQQsCVgSsCRgFfAjSk0TAREQAREQAREQAREQAREQgXojIAGr3lDnXpEELAlYTV3AatNGSdxzf3LoChEQAREQAREQAREQAREQARFofAQkYBXwmErAkoAlAUsCVgE/otQ0ERABERABERABERABERABEag3AhKw6g117hVJwJKAJQFLAlbuTw5dIQIiIAIiIAIiIAIiIAIiIAKNj4AErAIeUwlYErAkYEnAKuBHlJomAiIgAiIgAiIgAiIgAiIgAvVGQAJWvaHOvSIJWBKwJGBJwMr9yaErREAEREAEREAEREAEREAERKDxEZCAVcBjKgFLAlZTFLB4S+67774YN24c2rbVLoQF/IhS00RABERABERABERABERABESg3ghIwKo31LlXJAFLApYELAlYuT85dIUIiIAIiIAIiIAIiIAIiIAIND4CErAKeEwlYEnAkoAlAauAH1FqmgiIgAiIgAiIgAiIgAiIgAjUGwEJWPWGOveKJGBJwJKAJQEr9yeHrhABERABERABERABERABERCBxkdAAlYBj6kELAlYErAkYBXwI0pNEwEREAEREAEREAEREAEREIF6IyABq95Q516RBCwJWBKwJGDl/uTQFSIgAiIgAiIgAiIgAiIgAiLQ+AhIwCrgMZWAJQFLApYErAJ+RKlpIiACIiACIiACIiACIiACIlBvBCRg1Rvq3CuSgCUBSwKWBKzcnxy6QgREQAREQAREQAREQAREQAQaHwEJWAU8phKwJGBJwJKAVcCPKDVNBERABERABERABERABERABOqNgASsekOde0USsCRgScCSgJX7k0NXiIAIiIAIiIAIiIAIiIAIiEDjIyABq4DHVAKWBCwJWBKwCvgRpaaJgAiIgAiIgAiIgAiIgAiIQL0RkIBVb6hzr0gClgQsCVgSsHJ/cugKERABERABERABERABERABEWh8BCRgFfCYSsCSgCUBSwJWAT+i1DQREAEREAEREAEREAEREAERqDcCErDqDXXuFUnAkoAlAUsCVu5PDl0hAiIgAiIgAiIgAiIgAiIgAo2PgASsAh5TCVgSsCRgScAq4EeUmiYCIiACIiACIiACIiACIiAC9UZAAla9oc69IglYErAkYEnAyv3JoStEQAREQAREQAREQAREQAREoPERkIBVwGMqAUsClgQsCVgF/IhS00RABERABERABERABERABESg3ghIwKo31NlXlEwmEQqFQAGLP2+zzTYIh0KIJxKIRCKrLciu5UnnnXceTjvtNHe9Hf7rqyuI5/3lL3/BpZdeinA47NrBNvE7D/4cPBKJxCrnHnrooXj++efT52e61n4XbBf/vfHGG+P77793dVnd/nn2u2Bb2A4eJ598Mh566KGMbbV6rQ+ZyiC7+++/P3198Brj4LfJzpk9ezauv/56V78dxtHOz8SQ57L9FRUVeOmll3DUUUet0n5/HHhepvnA37/xxhtYtmwZjjjiiIzDzHOMa6YTRo4ciZ133hl77rlnesxrYmbt4OvWvjFjxoDiWyau5FBb/X369MHYsWPRpk2bjOPHNvtzh2X6B69/+eWXHZ+a+hkcN39cTjzxRDz22GOrlGnz22978L6wNvXr1w8vvPDCKvddTfdNkP+KFStw3HHHYcKECe5+0iECIiACIiACIiACIiACIiACIgBIwCqgWeALPPx51qxZbpHes2dPtwi3BfTqmmziDc+58MILceqpp2KrrbZyl2RbhokD1113HYYNG5ZxER8UJmwhH4/H3aKbr5uA5QtfVpgvPrHNvN5frPN3v/nNbzBnzpz/WsSbgLA6AYflU8B68MEHVytgGfOgUMB+kJ1d73M1QcTaYaITy6Jgwu9ffPEFhg8fjkcffTQt6vkgaxLfjGNpaakTQPr37/9fw11VVYVoNOp+H+RmJ7/66qtYvnx5WsDKNF6+4BTs/+23345dd90Vu++++yr11yTikZcvpj399NMYMGBAreJh+1WAQgAAIABJREFUJhGPdey333745z//iXbt2v1XGdZu/34Itr9379545ZVXHKdMjIL3mpVp4zdw4EA88sgj/8XeZ+bPHZsfNq4HH3ywE9B8kSzbR83KlSvxu9/9zl0f5JptGTpPBERABERABERABERABERABBobAQlYBTSiQTeHL2CZAJVJQPC7YIt1fr/gggvSApYvFNRWhpVHAeuKK65ICyVWRk3XBxfrFLAowmQSsILuFzvHd3t17NjRObBMnPBFH19ICA6hCVsUIXwHVKah9nkFX6eARQcWRQQTjHyhwheQfCb8+csvv8S1117rXDy+e4x9qaysRFFRUUYuxpgCFt1rmQQs1mtCoc0Lv+0s4/XXX8fSpUtx5JFHpp1Kwf6tTlyhgNWrVy/35YtDPncTRFmu7y7jz48//jhOOOGE/6o7Zdz71clX0+1HB9W4ceOcAytTu32xMFMZe++9N1577bW0gFWT283GkK/7YtFJJ530XwJWTS5A33lobTnkkEPw4osvZhzj2h45HPujjz46ff3q2l5bWXpdBERABERABERABERABERABBoLAQlYBTSSthCmc2bBggWYMmUKhg4divbt27svE1FW12SKB1yIs4xFixZh/vz5WH/99dGhQwe0aNHCuWT4+uoOWzBTAKGARMGlc+fOWG+99TK6iaysefPm4aeffsLmm2+O1q1bpxfvvvDli1BTp07FLrvskm6KL3RRoKDIE4vFVmkq3UcMzyML1pMphM5EqUzCAgsrLy/HRx99hJKSEmy33XY1omjWrBnKyspWcQAZ308++QRbbLEFiouLVwmr9MPpTBzhdwubs+s//vjjVUI7g40w0ch3ftk5fG3GjBnYcsstXf2ZDl9QyvT6d9995+YE+5hJkDT2QacSy+I4LV682I1Bq1atVukbX/dD7TLVzTLZ/h122KHGtpsrrybx5pdffgGdSptssknGMth+zlvjkOkkzgHO63XWWcf1iSwZumnsaxJqrU28Nxjux3HgYfeWP3Ysj/eE3YedOnWqccz8NtL5xhBeOyRiFdCDWk0RAREQAREQAREQAREQARFYKwQkYOWJ3dwrfhiT/zt/wekLM/7PFGP4RZHk66+/xsSJE13eI4o/zH3EMKINNtjAtdB3CgUXs1yoswwu6p977jk8++yzblFOBwxdUC1btswYhhUMY6OwQ+GLwtmoUaOc0HXOOefgoIMOWuV6X5CiwESh7LLLLnOCBl1bFLpqCg2zvlCg++tf/4qrr756FaErk2BCRmzXww8/jAceeAA33HADmGPIxJTgEAYFFLbF3EIUv/bZZx9svfXWzqFTU1imuXHMcWR1kNGQIUMc2wMOOGC1s8fEJ9/BxHLpCiMrunyyESaCbiuKIXfeeacLUcwUHhdslO+0srBHP7wylzA340Hx8ZtvvnFhgnZkU45dz9DKww8/3AmzNidqCgmtqT90yP3+978HwwVtjDkfsxF6WSY5nnXWWS7fFOcTBU1ri80XK7emgaZDj6GKt956K+gY5OG7CO063iPs8xNPPOFyix1//PFOwOS9GazXr8ufyyaC2phn28Y8H3G6TAREQAREQAREQAREQAREQAQKioAErDyGwxbqfsiRuZosh46/EOb5thCl0MTQIub3mTx5sls4M0yMybK5QLUvLsL9cDUTHix0ivUxTIshanSiUEj4wx/+4MQvlkEHCs/xF+AmEPjOJJY3fvx4MGSM1zJxOQUrXs+D/TFRwL+O5VKAuueee5wgQzeNta2mRPPGi99Z52GHHZZe7FuuIj8sjeXddtttGD16NK688kr07ds37V4JurqCw0hRj2WaeLRw4ULsuOOOTgij82bDDTd0r7NvlujbL8N33xi3zz//3Al1zI1EVrUd/rhbvygIUphkjqdsDptrJvywHwwL/Pe//+3G1g9vrK08vz1///vfcfrpp2cloAW5sF6KV/fdd59LVJ/rQZ784px555130Lx587SImW3ScuPCuTF9+nTnVuK1FDtt7tbWLuPxww8/uPH417/+hU033dSV4Sd/X50wx9fosuKcmDRpkgs5bdu2bbotbAPb44vbnJusg0na7777bidicSyOOeaYdGgoGdt954uoJjoHwzqzEUJr46HXRUAEREAEREAEREAEREAERKCQCUjAymN0LLwpKNT4IhMXlHT7cJHKhS0dUb/97W9dUmyGbjG3z7rrrpsOkTPhyw8/MvGJi12WwZxAP/74I/baay8wRxBDA+l2YhgXz7Xk3r6zKphonOUzOTQXzmwHk01T2KHTi+UEHVBB9xhDv+iaYo4hLrg32mijdJ4h1mVCFLEGF9W+KMR6LUeQiTB8nQ4nigAUuOgSYl/ZTpZbk6urpsU7y2Wb/vjHP7pd+ciQzivrky8OZUribvx5HvNZsa/Mq8W21LYbZFDA5L8pDp5yyinYbbfdat2Fz6alPx4MV6Nzhzv80bWTrdjjt4U8brnlFiec9ujRw1WTT6JwzjUKcZzfuV5vfeIuiXTs3XTTTWkhMdO8qekWNUH1vffecw4oJo73edV2a/vzkX2gA5Jz76677gJD/fx7sSbWFK84FiyLYZUU1Jh/jOVYGG1Q+DUBz+4VjisdiQwr5Rz98MMP3Thz/jOs0RdrfZdaNo632hjodREQAREQAREQAREQAREQARFoKAQkYOUxUsHcSnRUvPnmm/jPf/7jRCvuntelSxeXn4dfDC2y/FPmpuCC2Hc2mVjCBTEdQhR3mAicZTHXU7du3bDZZps50coXbPxFrC9cmahAxxcX1EwIznxH3JGQIg6/m1vLyvB3tzMsLJNl0KHFRTadKhSvzIFk4Uw1ubR8vNZ35o9im+hG4u9YL8OryI9JwynysY0mvmVym6xOqDDnGd1BdIcxET3D9Uxg88Uh63smsY2/Y5gZhadrrrnG5cvy683G9WLhfwxVY3+ZLymX0C+rj99HjBjhXHacE/6RTTt8se7YY491QguPTOFutd0S1iYy5bjlIhoF7x26CClQHnjggVmLer7b0eYI868xpPLiiy92LqraDl/Y9ecDQ/3IhjnCLr/88lWSyNckyPr3IH9mW9gvhgXToegzDorLvmBnHPkM4L3PZwk3cuB35oqjY5Fjn4twWRsHvS4CIiACIiACIiACIiACIiACDYVAoxewMi2ug86FbJ0MPO+rr75yDgmKMHQL0SFBcYqCEL/8xbO/WPXdHr6r6bPPPgMdJF988YWbMyyra9eu2GmnnZxg5S9+fYeXn5zayjPHEd1G/GKddHpReKH7iy6woKDkL96DZb766qsuJ1e7du1wxBFHoGfPnmmRwV9482e/f1amLfj9PFM8j6FnFFGYg4rhX6yXjiy2sSZnky/AWN3BsbVzKKpQ7GGbL7roonQeMQu588M8M4mBVi7DPNk+hg36gp0/rsEb3Z9L7DfFP+4GSQcXhZra5lpN/bz33nux8cYbu5xmviMnG/HKxodlU5CjQErByH6fbRnBvjKsk/2qSQSs6SFo55vISnGPZZFPkK0/d2p7qHL3Pm56wNxanE+WM8pPyu6zs3mUqQ6GSDJElszPPvtsV3Vwrvjz0L+n7ffffvstGKrJkEKKoMz3FXwOBO+dTHWwfXzevPvuu86ByTlFVszlxnsymPOrpudbprnl3//5zoPaxkWvi4AIiIAIiIAIiIAIiIAIiMCaINDoBSzfaWHOF1tgBhedPlCG9cyZM8c5IbjbGBf+DBGiQEU3BL8YcmflB8UaP3+Vhchx8UmhiqIVXRrMvdO9e3fsu+++LqEzc+UEF5GZFsZspzl7mP+KLo2ZM2eCC2a2kzmsuICn48qcXX7frG38XVC0Yl8ZSkWRjqFuTJIdXLxnmni+U6gmUYhM33//fVx66aXOaUVHCUMhTWDIxlniiw1BNw9DsM4991zneGPuLLrVsmm73x/2Y8mSJS4EjOGZdBll0y6WEQwhpQPnkksucfmRKExmIxBkEjgoJDJXFB1BfD3b9gT7xX8znJLhdrY5QF0eIhQiBw8enJMDK1N9dPbdeOONLpTQF5iy7SeZ2BfLp2hE3kzOzvxavtBpcz+bsnkdNzSgIMpwWUsWz2uzGUubE3yO0IlF9x3LsV0PM7nAMpXr31vWbjrEXnjhBXfvcyzp+Nx2222diM6QRr8cE24zPQvs/qhNWK3LPNG1IiACIiACIiACIiACIiACIrAmCDR6ASuTG8FftPF1hg39/PPPbrt7Cjd03TCMh8ISd5pjCJ/vDLEFoe/s8J1SLJPJwlkeRSqWx4Uw8+pQWNp///3Tiab9haaJUv7vfCGMv6fLhCIThTUmnebPdBoxsTddQv75NkGCi+Lggp4hfFwI03HEdv/5z392i+xgXq7aJlzQhcV/s2yKdgyJJAfmXaKzjKFw5pCxerIRBWw8/cU/OVOwotDD0C0u4n3hL5dy6bC78MILXZ4oC9fK1gXkO1zY12HDhjkHWy4OJdbl95E7SzJfGcPjchXjbLysPDoGmVeJif+zyeFV23gzXxPDSSmU1kUAYZ/Hjh3rHI0UTDMJoKtri4lXvkDNDRK4GyfDSOmA8llkKwL6c+yZZ55x9xvnBh2SPOz+z3Z+8Z5lzi8KzBRvmbzdnhsMwaWAvbpdFH3G/NnmJetnPjHmAGOePN5jDMOlOE4HGfvv76rpszRm2Qh6tc0HvS4CIiACIiACIiACIiACIiAC/0sCjV7A8sUHiil0ATFn1dSpU53T6K233nK7oR111FE45JBDVtmRzhaMtrj0k1X7rgiWS+GHZTPXFBeRDOs54YQT3ILcFql2TTA5dNBh4S82rc10FzGfE78z5IoCkAk/5vDKtBNipsW1MaGjjC4OukMYCkbBzt/90Bbp2YgTJr7xXP5MUZBCCd0wFJeYNJz1Uoi56qqr0ju9kYXtHJdNPXYzcEwoMjLM64YbbgBD7I4++mhXliW+9oW62gQQto25j+hkY/ghueWaH8rqe/vtt12/2X8exiYbAcpnwHnKeUlxh33KhU+wv7yWuyjSkURRY00IFtOmTXO86aary2FCEcM9OT8oiJm46QtFNdXhC4f+Pcr5TUce5zdDaf0dG7Nh6Z9jydqZC433OUMe6cAMCterE7NsftB9SScW7wMKgDZfc9lRkiz8nHUm2HLO0IFFpnwW0SXH8+i8Y/46cuAcsLnoi6VrYk7UZR7oWhEQAREQAREQAREQAREQARFYHYFGL2DRnUNhgl90L/Xv398JHXQBUazhoi2YZ8pfyAVFEHN70C1CoWrUqFFOrKFQxR3m6IKycg386kQkPwTRXBUUpujYuuOOO5x7icm/mTOKDg2+5of9WR0sx3fVrE68oROEoXFc0DIszXZRs0VtptDKbF0mN998M5544gkniPXt29eVbSIO28d8UBS0gnmxsinf7yvDsrbffnvceeedTigkm0wOlWycRhxLutj+9re/uaT7Jprk6k5h/XTqMHSQycRNzKtpB8VMN6Yvxuy5556uPO5+mK0Yt7oy6fqhGEZWa+LgGPAeOP/887MOqVudCMVwWO6+xzJtDLJ1S9l9GRSUOM9OP/10nHrqqWmhLRvxivUHhWWbs5wvDJ1kzrYzzjhjFTEwOI+DIcZWN8UqPo923nlnJ8JSPK4pxC/T2Af74Ls3/dBalkmxl6/TFUhhlc8W5uTijprcCdUcpdncK2ti3qgMERABERABERABERABERABEciHQEEJWOYgskXo6hwBvnOACzC6DLiLHV0H3OGOi0uG0TAvDHMZMRE5hQS6Hfwj0+Iw6Jhh2dxlkCE6zD3D5Mksm/mwWDadGP6Cd3V5bPy6/bBEOsHosKIYxiTUe+yxh0v6zAVmTddkCm2zELRgbismfmbuo08//dQlumZ4EcU2EwiCIUb2+2AdJrKxTVzw0plC4YduNoankcuGG264SvihjRWFCbo/mEDcfhcUy4LsbCwstIohkwyXZGJ6imXkHwyzzCQ+BG8Oc6/MmDHDCWosi+0Ozg1rj7XDFwr9ucOfLeyQAqlx868zV1dQYMhUJ50+AwYMcOMUPDKJInZOTUIg86NREOUc4FHTeb6AZv2r6T6kw4ni0JgxY2rcQdDva6YHlC/a8nXeZ5yjFJx4v2YjNvn3K8swJ5PNC441Q0sZZleb2GbX+OHBxst42Pyio42OMQpBFIMzCUA+T2Pu94n1MS8cx5vhiSZkWR01zbd8HvZ2DV1azDvGOcGNFOx5OWjQIBcu7d8/Qbdopnr953YuQnRd+qBrRUAEREAEREAEREAEREAEmh6BghGwgu6ZTM4LW0BSxOCOXFx8cXHKXEUUk+ie6dy5s0to7C86fddDcMcuW2D7osAHH3zgBBmGk3Xr1s0t6vhF1xYTg5sQ4S/0/Pw7NTkprA5+Z1Luf/zjHy6cceutt3a7iVGssOTavrDjC12sM7jIDk5bP5yPuYDoiGKYJPN5sQ5frPKFJCvX/53V7S/EKYY99dRTTmygS4hiIZPQ+/22haz1mdfTfcVwP3Nl+Qv6oIPM+mR94YKbAhlDNZnse9ddd12l2+YisQTbmQQnu8DmEd1nHFeWa+PnL8D9Mv1r/XOsLLrkKDwyv5E/p+w6v/xgHX5HWN748ePdTnMMMwvOV54bFGyCIk8mEYFzjePPELLa5mdQ1OW/+RUUaNgOuuAoAvK1TIKqP1/9dvnn+pxZD0PrmOifYufq2mrcfLHWn7v+fcBzKBIzOT9DCpl/Knj4c9x/zcbOnknWXrs3eB8wVO+KK65YJf+anefveumLYCYOsZ18jjGHGwV4CpcUyY2dcQs+B3L9cxUUXO0ZSXGYufpmz57tdjukMMd5wh0v99prr7QgmElMDM5FCVi5jorOFwEREAEREAEREAEREAERyJZAwQhYbDDdIQyrsUWrCSp+Z5g/hgd3GeMCl2IIF1G2cOJCjEmvTcjwRRLmuKKzaXUL17lz5zrRgI4turVs0c46GHrFBR5zG/mLQV/koZMik+hgi0X2iWGNLMsSpQcXphRrbr/99ox5imwRyXIYpsZ2+ocvBNFxwrAsimK+wOC7g5gPiQKOiRQsi+VyAWt5iGwBb2VwF8UOHTo4h5j1y9rAHfyYqJ6OFF8QoFA3cuTIdGhdcKHLMEA62YK/Z51cYFubTRQgYz/3F/v65JNPpsU9iiCWWyjTzUD3EA/rg/Xfn3u8nkKK1X3ZZZeldxP0RSq2j/VbOBbLtYU9hVCKiOYmokhAtxfFUB6+oGHtZAgiRVkby+A5FDkoxljYJH9maCDnU6aDfeJ9Q4dZTY4o3nfMF8Vx5cGxZ544ug5tnprTxupguXTxWE6tTH3hNRxbS3zOayk8M0+YzaegIMg20olou0gGy2XbFi5ciLPPPttx9OcZNyLghgQsk3zsGWKiLfNX0TUYdDayXTbXOL+5KyLFcLs3eT3DBSmSm5hn48PX+Ds6x7bYYov0/W9zyZ9b5MzwWss158839ovhiUw+zzA/Cll8Xlkfgudm+5APPh98dxlz6XHTA/aBz1LepzzIiGPA+4QCO6/xn7P+HKDzlZs0ZBK48mmjrhEBERABERABERABERABERCBjGvbZKZV51pgxWZcffXV7st3UWRqiu+WCrom/vSnP7mdx0xE8hOoMzyHYkJQJMnkTAi6UExsYAJ15qzxRSdboLKuM8880zk8MjkRgvVYGf5i0BwoXOT6ffOZ8GcyeOONN9CnT59VEAWHM1gHT7a20WnGvDgUsOzg9Qw1O++889JCYpBx8N++S4ZCCsWvoID1wAMPuHDOXXbZJaPbiTnEKEAFuWUaa7aVopHvCKJbieKFsWF9zPPj99fvY21TnE4vJnOnkGH9Zd+YVN2YWtv8MCurz0Q/igMfffRROgk7xREu9hkulsmxZGVmare1maIbBRxr17///W+3iyYZ8He1hd5mOofXU6Bgvi07GNpGwS24M2CQY22uGzoZ6dCz9rL/dPfYPeXfF35Zq3N00UnF3TzpvPSvodOMIaoUdv25Y3XxXNs0IDgHrH3chZOhkR07dkyXzdcoxFG89kVxlhEM1/XL9dvAnymIck7Z+PpuyuB9RSGeblPmBWPILOtZ3S6Fq5vT/nPBbz9FQNZjwrCfQ8w/zxeQ/XoodPGDAbrHgrxru8f0ugiIgAiIgAiIgAiIgAiIgAjkQqCgHFh0L9E5U5dP8ikMcIEYdEGxzN69e2cUsLIBZgvAIUOGuB3vajoocFHAqsthQl5NZRgfLhopFOV7UMDilzmwbFFNJxw55nMwzxUFLAprvshkAlNNZXKRzrDEfA7yYJJ7ihd2UOBgUv3axJWa6lu6dKkTQk1s4HlMqM78VsYpm7bSkcOdIy1xOl06L730kgunzHee05k0f/78dN8YwkYBihsU5HuYgEXRxg4KWGzviSeemG+x7jq6Fink2cGdLyl65Ds2LIfJyBkSSaeaf3CzBoZxBp2JuXSAzyDm4KKzzD+4k9+jjz6aS1H/NcaXXHLJKnMqU2EmwvI7RVrOQTqhKMjSyeYLS3VhyLopuFOQz/egY4tj+a9//SvfInSdCIiACIiACIiACIiACIiACGRFQAJWVph+DfWSgLV6YCZgWTJq2wGN4hIdLDUdErCynIiAC62TgNV4BSzOBHMzWegjf0dhmyHBzLXVtm3bdNhvXXYPlICV/X2nM0VABERABERABERABERABNYuAQlYWfKXAys7UL4Dy8KO6GQ67rjjVsmDFCxNAlZ2fHmWBKzG78CyUEfL9WY5/Zgji44s5tFjqC/ztJlTK/sZ9OuZErDyoaZrREAEREAEREAEREAEREAE1gYBCVhZUpeAlR0oX8Cy3GBM6s68R6tzikjAyo6vBKwUp8YeQmizwXKpBfNfUcAaNWqUy4XGkN+aNo6obVZJwKqNkF4XAREQAREQAREQAREQAREoFAIFI2BR7GAOLEviTkD55HexHFi+WGKLwJqSuGczGOYmYgjh3/72t4yXMNyHyc/vuuuuvNruJ5FmEvdMB0PyuJjl15rKgTVo0KBVdlW87bbbXA4sE6BWlxQ82EYKWNxNkDmwyL2srMwlm6eIlekwYbCmJO61jY0xYw6sMWPGuNP5OyZxr0sOLO6mSKfLX/7yl3QeIyaJ/93vfpf12LId3bp1czmg6JThYUnczz///HSS/Nr6GHydu0pSwCBfjg2TuHOXwbrkwGJIIpObd+rUKT0Xpk2b5nJgWehnPvcj5+sXX3yBLbfc0nWDZTAHFueDn/w/Vwa8B5msnTmwfJHn8ccfdwnia9qRcXX12FzkM8hyYPl5yiwHVq65y/zE/MyBddNNN7lm1JSkvrY22iYCbAd3rGReLs4DJp83psGE8DUl9zcBK5+2sJ1M4t63b1+8/vrr6Xsvn3mS6/jrfBEQAREQAREQAREQAREQgaZHoKAELIo2V1555Wp3UattiC666CKXfNtCa/yF4j777OPElHwWWBSnbJdB24XQb4stUpnEnbt65SL6WDmWvHn48OFuMRosw99JjMIAhYvgLoS18fF5WBL3gQMHususvltuuQVDhw5dpf5smT333HNo2bKl2yGOzDieHBMm1Q72x3ZgY9kDBgzA008/ndfYWBJ3E7BYLpO4Dx48OC2aZMPFP2fZsmW47rrrnIBlfaeAZTv9mRhTW7ndu3cHd+Ezh4wJWGTi5zeqrRz/dT+EkH19++23nYDFtvHf+eREYhJ3cqQ4ZgIJBazPP//c7YJnYlku7bS5xj6Tg4XBPf/882kBK5/7hOX6DiwTX/j92WefdXMv3yTuZOALWH5/mcyeYpGJQ9ncE3bPWhu5C+ENN9ywyi6muTI1rn79s2bNAsW7zp07u3lvzz/yXd1ujrYLYb5hiBSwKBhOnDgxbxdYPv3XNSIgAiIgAiIgAiIgAiIgAk2PQMEIWETPBdh7772X3pY+mwVicMh4zc0337yKWGKLyHPOOSfthMllqM29wIVgSUlJjbuI8TzuUMhFfz5tt3a2aNHCiSeZyrBz+BoXn7a7Xa79sfPpYjF3lAlKFM+YLJp1WQ6ebPpjbeNCf8cddwTz9fz2t791Ox2aeOG300Q/XseFPXfry6YevwwTE3r06JF2trCMiy++2NWfqd5sWLHcHXbYAXTdmFhFVxpFp2zbyDK4wB85cmR63s2ZM8c59PJ1vLAtCxYsSAsp7N9HH32Ehx56KN2tbNsX5Dhs2DC0b98+zYzCE4WifIU2mz8UdTfddNO08ENhjDtOsp0sO9fDxvxPf/oTNtxww1XEIAopr7zyStpFlm3ZQccSBUaKQb5YRIconXkmCtm8WF0ddk/wGvaVjjy6noJOqWzbaeex3ExOsOnTpzvxljuu8r5u3bp1jWIZr6dQzaMmh1Zt7TLhi6J3vmXUVodeFwEREAEREAEREAEREAEREAG3/kr6tp4CYOK7cnJtjr+AMjcT3SjmnjJnSa7lmiBQ20Led4LkIyJYu/yQqKDIEFxs5jN8Pge/ncbM3Da2SObiu7Z6gq4UsmD42fLly9GrV6+Mi21fjLN+5To2fhtNEDHRqrY2r66uoMBkziYT3bKZS357rH81jW0u/fbbZtxtbtZFGLO5EBRzTKjJhyfbZe6z4L2db1uD7H2mfrheLkx5LkMofeem9dvKqcuzycbfBB9/PuTazmB77P401qxj6tSpLtSZzkY6T5s1a1ajIB6cp7m0x68zyCuXcnSuCIiACIiACIiACIiACIiACNRGoKAErKCgUVvjM73u54iy132RI58yfTEsm0V3JmdEtvXmwiDfevw6MtUX/F02fbYFud9Phg+OGDHC/aqmtnK8TDCri+hXE9+6MMrUntpEzEzt8AWhoEiU7bzw57IvqPpiXV34BYUfE4nqUqa12VxWvhC6utC2bJhQbKL70B/fXO6dmuqw54c/TtbWIItc2Ng9ZM8ic2Ble29laq8/FzPNc/6O7ke6yXgf0g3ph5fOydj8AAAgAElEQVQGBetsuAfPWdP882mDrhEBERABERABERABERABEWgaBApKwGoayBtnL7mYNjcGF/wMtWL43fjx412H8xF+Gicp9UoE6oeAiWWsjW7IvfbaCzNmzMDGG2/8X/dkLmJc/bRetYiACIiACIiACIiACIiACIjAqgQkYGlGrBECvsuNYtWbb77pEoJvtdVWq+wSt0YqUyEiIAK1EvDvSTq97L7kJhcML9x8881XuTclYtWKVCeIgAiIgAiIgAiIgAiIgAisRQISsNYi/MZYNRfKXDgzETwT0fPwQzAbY5/VJxEoRAJ+zjLLE8bvK1aswAsvvIDJkydjyJAh6Nmzp7tH89m9shD7rTaJgAiIgAiIgAiIgAiIgAg0TgISsBrnuK61XnEhPG/ePJdzh7vtWd4juTvW2pCo4iZIIJiI38/pZaIyhazRo0fjyy+/xKBBg7Dllls2QVLqsgiIgAiIgAiIgAiIgAiIQEMhIAGroYxUA2inJQJ/5JFHsPvuu2OLLbZoAK1WE0WgaRAIOrIsxLC0tBR33nknKioqcMIJJ7jQwmBSeD+pf6ZNCUwU43f/3LokqW8ao6JeioAIiIAIiIAIiIAIiIAIZEtAAla2pHTeagn4u6tdeumluPHGG0VMBESgAAmYkOWLVLbJwnnnnYeOHTvi97//PTp37uwclHwtuNtlcMdHK8tE7LrutlmA2NQkERABERABERABERABERCBtUxAAtZaHoDGVD0Xr9999x3GjBmDiy++uDF1TX0RgUZBwBxRJjT5wpMf7mshhYMHD8Y666zjXFUmcgWvMTC+MGZl8TWFDzeKqaNOiIAIiIAIiIAIiIAIiMBaJyABa60PQeNpABeww4cPx0knnYRNNtmk8XRMPRGBRkLAd13NmTMH06ZNw7fffouvvvrKfV+4cCEWLFiApUuXYvny5aDQ1bx5c8RiMbRp0wZt27ZF+/btseGGG2LTTTd193mPHj2w9dZbo1OnTo5SpnDDRoJP3RABERABERABERABERABEViLBCRgrUX4jalqc19cfvnluP766+W6aEyDq74UBAE/bM/C+nxByoQjik7cUZC5rd5880289tprmDJlihOedthhB3Tr1s0lbG/dujWaNWuG4uJilJSUoKioyH3xWjqo+OUfrJNlU8ziV2Vlpfti7qzy8nIsWrQIs2fPxqeffopZs2Zh5cqV6NOnDw444ADssssuiEajrrjaHFy2Y6JcXAUx7dQIERABERABERABERABESgYAhKwCmYoGn5DPv74Y8yYMQPHH3+8E7AUOtTwx1Q9WPsEgvmlgknUKSpRXHr//fcxfvx4JyTRHcVNFJjHis6oDh06OKEqGOa3pnqXFtKSSVqwnNBFcevHH3/EDz/84L4+//xzt+PhVltthcMPPxw9e/ZcRcyyttizI5hna021VeWIgAiIgAiIgAiIgAiIgAg0TAISsBrmuBVcq7nYHDhwIG666Sasv/76ErAKboTUoIZKwDZI8B1J7AvzzT333HNOJGJ4X/fu3Z3TiUnYze1kfQ7uBrgmdwf0BTXWx3+beyuYMJ7/pog1depUfP3111i8eLFzhR122GEu11amayWEN9SZq3aLgAiIgAiIgAiIgAiIwJolIAFrzfJssqXRAXLFFVe48EE7tPBsstNBHV+DBHwHFsWqV1991YXoUbTq37+/E65MOOK5DAG0f9ckYK2pe9PfddB3TNnv/detTvsd28bfMbxx3LhxLnyRYta+++7rcm35/VhT7V2Dw6KiREAEREAEREAEREAEREAE6pmABKx6Br62qvNz5djitrZFIReazGPDr7KyMvfFXDcMDbI8OBSuWPbPP//skj9zAcqFKMOV+MUE0Pxq2bKl++Lvajv8tgbdHbW1ubay9boINDQCzDE1c+ZMPPPMM1iyZAmuuuoqbLTRRunwu0yhdv7vgvf+/6r/Nd23Nd2z5izzw40ZgnzLLbdg2223dWGGXbt2dW4y3ff/q1FTuSIgAiIgAiIgAiIgAiLQcAhIwGo4Y5V1S333A10MvgvCCrHfcRFpAhXDed555x23WKbDg3lrmEOHSZ+7dOmCzTff3IUnrbfees790apVKydO8bAEzxS5mIOHu5j99NNPbmczhjoxbOizzz5zyaIpcjH/zU477eRy9TCRdIsWLdxrtgg2YYztp1hGUSxT8uf6WpxnDV8nikAeBDjfKdIw9I73Jo+qqipMnz4dl156KS688EIn6HC+W5L2PKppMJewn3fccQfefvttJ9hxp0OysQTv7EgwyXyD6ZwaKgIiIAIiIAIiIAIiIAIikBcBCVh5YSv8i7ggpviTyeXA1r/00ksYNWoU3n33XZd/5sgjj3ShOzxsFzJzRvA7y7PX+N0W2cGEy0bGd0z4LipeZ+4Q/vzJJ5/gxRdfxJgxY5xI9Yc//AEDBgxwSad52M5q1g/rk71W+COhFopA7QTsnrAzmR+qX79+Lik7XUh2HzQVJxLFOzqv+IyYNGkShg8fjgkTJridE/l7X7ySiF37/NIZIiACIiACIiACIiACItAYCEjAagyj6PXBhCv+yhZ2paWlLvyIgtWOO+6II444wi2KmTSZLioeliCa1/PnYBJmW0D7wlEwdKmmsKXg4jwocpk4xdBEusDmzZvn8vyMHTsWvXv3xplnnul2UssUKtXIhk/daYIE/ITqDMM97bTTcNZZZzlBmWJNU5331m8+k/hsePrpp/HGG2/gkUceSTvR7DnVVIS9Jnh7qMsiIAIiIAIiIAIiIAIikCYgAauRToa5c+c6wWr+/Pno1asXtttuO2yxxRYu5M8Whtk4F3iOL2YFF4q+u6om15WPOHiOL2b57TJB7ZtvvnHhjHSKMaTxlFNOwZ577pnug8KIGukEbkLdsnvo4YcfduG2Z5xxBtZdd90ad/JsCmKNHy7sJ3///vvvceONNzqn5h577LHKLGkKXJrQbaGuioAIiIAIiIAIiIAIiMB/EZCA1cAmRU1uJnaD+aeeeuopzJ492+WsOuigg9LhRw2sm6s01/J1LVu2DK+88orLC8S8WSeccILLoWViFy+yHDl+YuiG3He1vXER8MNn/V32mOdpm222wTHHHKPcThmG3Fya9tKtt97qNoUYMmRI2mnK1yw/WDbifOOaWeqNCIiACIiACIiACIiACDR+AhKwGuAYW34YNp3hNQy5Y4gg8+YwfxQdV0FRpwF20zXZD5+y8EaKU+YwI4tDDjkEu+++e3qnMhO8rM9yZjTU0W987fYdiwyL49eVV17pXFd0SEp4rXnM7b7mpg4MrWRurA8++ABDhw5dZXdT2/Sh8c0e9UgEREAEREAEREAEREAEmjYBCVgNbPx9ZwGFK3NcXXvttW53QD9XVWMScDLl1zJB67777nMLWebK4u6GfuJ3CQINbII3geaam4jfGQpHNxF39zRBmuKMjlUJBJ1r9hycMmWKE7KGDRvmNp/gM8Hyhkm41iwSAREQAREQAREQAREQgcZFQAJWAxpPW7TRtTF69GiX6Pz2229H27Zt086N4G6BDah7NTbVnBd+LhzLfWW7IfLfd955p9vVkGJe+/bt3YJWi9jGMAMaVx84Z/lF8eqvf/2rm6s8bLdPCy1sXL2uW298V6Xd0yZqMbH7e++9h4suuijNUSGEdeOtq0VABERABERABERABESgEAlIwCrEUalukx9uZDuVcZcy5sphnqu27doiDiCaDLkrEqlvCCdT3+PV/44wFK/6i78KVb/OHxLuPyDsXZe6OsQVdZpOAiFXblUIKLLCAFSGgeL0WamC2SZezzKtrhiLAxBBVfXZRdWNSgAhfkVXaSS7lETSXcOvdJP5k/sHSwd4Httvv4lVxnDqaafgsMMOQ//+/Z0jg+KW5cZS0vcCnvBNoGl2T3NHvV133RW/2Wyz6nsthjgiCPG+SQAxbp4QSbh7LknBC6n7JcKbufpejwEo5s0WjiEeCrs7jtciXAkghniiGRLhMHgJ70N3L4aqkEQRkqFKxJNFiFbf4xVIojgZQiJ1kruJWVcCcYTcDRd193UsFkfzcBjJUAIVoQiKEtzBlE2LuQeQq59OKLaVl0ViSCbCqErGURQpAl8IuQdSyD2f3Dk8ORpyTwa7393vWV8yhigvYDsTQEUYKEnGEQ9FUq1KJIFEEvePGoV99t4b3Xr0qH58scO/Pr+awNRSF0VABERABERABERABESg0ROQgFXAQ2yilS167733XixduhTnnHMOWrRokRJn6DLiopGruXBKtOKyzUQs94+0/GOddepQ6vduvZpEIhRyS1UnZFVf4daiblFJoQsIs/BwSihzC1Wuc7kI5SKShy0YfcXJ/b66GldlFWKhIi53XdlFSbYhDoSj1pT0+bxqleaHuCznEj/VRluepmr3zg2F8M477+CBBx7A3Xffnc6PIzdWAU/2JtS0H3/80W1EQJE1Hk8gEg67eyolLieARAwIFVULW6Y+U7RJIBwqQiKZQDycRDEqgHgEleEwoqEihKkw8R4Jp4ShUDyJZDiBqkQliqLF7i52mlKCYlgV4pEYQskIwonIr/ega0eVu8kTEdZVhXAoihDvvHgUFZEwShIrgXBzJJIUtVN3YVW4CpFkxNXJyuNVSUSLeZdWAckiVCUjKKoqQ1VJEYqSKUGq0klpodQ14SQqk0BROIREohyRcAlicLI5Iomw61cixPaHEYkDsUj1synG+kJYnqxEv0MPw+QXX3btqQgBJeknRBOaXOqqCIiACIiACIiACIiACDRiAhKwCnxwKV5RyGKOFyYq79evn5fnio6JX10LobQXKdgp8y+lhB4uC00CcovmajGqei2adk2Zo4tXhVm2U65SIlLUhC/3Gr1SKUdUSnAyl1RqYep0MidicbFchSQdUYi41nJJGuVPblGbane1B+S/dbdgt5xbxPxX1XYs/qa6uxQKrrjiClx99dXYZJNNUu2TK6PAZ3zjbx6FaG620K5du1+lYs5/3idOGY47sciJPNVGyKJkJRCqANACKE2g8oUX8e6bb2Kvww5G1UF9nBBklsuqapcW3VFIUO2pQOWsmXjrkcfR54ADgYP7AeEKIFyMWCiGaIxiGYDSBVj+00K03nxzIBxB1ezZmHXrbWi9sgI/tGsBJKNoVV6Objtsibannwtnv1pZCkx5Gx+8+Tp2OPdixNffAIl4DEVLl+Cre+7Ct4vL0WfgKUhuvQlCyWJURhOIOuk69dxIiea8/2MI0c45+1ssnTAGbQ/YD5W7bI8w/Z0JGrQo6tEP9qvfM5xIidYU7KjdffTBB0iUVuC3e+xGaQ8ljX8qqYciIAIiIAIiIAIiIAIi0KQISMAq4OGmcEUBi+IVF7zbbbfdqgnK6dxIh92kxBwX7kO1qNpRRVWIv0uF49lXSsDiv7jwc26NtHJUHdLn+5zMrRUCGJxUXB1UxPIY9sPlL8vyQxNZX1rQAqW1lLwWpfWK/3PKW2SVkMSkC0WiFGYOsRoGp7qxKV+Y9ZD9+VXMs5w5CxcuxMUXX4zLLrsMm3NhLhGrgGd8429aeXk5Tj75ZDz++OPOQVkUrRaPOHtdSG/qLnVycDyOUJg3HV+rAoqqXMzuz/c/jTZlS9F8wAn4acS12OBPQxHp2rX6Xub9S99TAhGGIaIIZXN/QvNf5gGtWuGNPw7CPk8+AVDQpSZdHecbLivF8muGoWTv/VF80GFgyG+0bDkwejTm3nUfOr04DmBy+anvIPblV4ieeVZKA5/7HUqvvxGz5y/C9g8+hGSbNgj9PA/vX3oJdj7qKGD7XTDl4kuw2z0jkGy3KSqLKlGEItdPCtdVLCSZRFEoDiwtxYqHH8fUu25Hn1cnA13aAqXNgGgEyRJSYfgjhe8oIjHGLoaQemakwiNjFZXYYYcd8NHMmUAkjLDE6sZ/Q6mHIiACIiACIiACIiACTYqABKwCG24/+TB/pvhy4oknrrK73q9JjKuj9lzSqQQYCeREIq7qLLFVdf9SDqjUeW5x7H5RbXly4Tlcj7IguiFS+WNSUlJ1XGKCNohwamEbh6vLFCNnGnEL8FS5rN4yXfE0O9Xl64oBNJdEGCqFpHOYFDH3D1PZODdZEiFrl5fjysIFfw1vNPGK7U6JV+lcWMnkKrsxMuzytNNOw0MPPYSSkhIUFZlokIKjhM8FdhM04uZ8+OGHeOutt9yOmal5l3IuxkJxJ+sw3M6F5VZWAsuXY8m/38a3S1dgu8MPBdq2AD77CpOOOx4Hvvoc0H5drLz8GoR79ULzfkcBsUqgJJHKKVURB0qaoSpShCLePAz7W7YMbxx+NPZ5ajSw0cYpndvdAFXAm6/j88FD0P3++4G99k09AiqX4/uRI7FxUQkw9FxUzPkK0S4bIzJ3Aao2+w2K+DCgw+ua4ajasjuKjjs2FcJ47z1Y8M4UbHTfgy6E8INTT8UOF50PbL+7y9fl3JYU5qpzWbn8XIk4QhSxpk/DO5dcil7jXgRahvH1C6+jZWkVOmzfE+i8IVAScc8hPpvIL5XhKxW+zGfA4MGDcfutt6JVi5ZOxNIhAiIgAiIgAiIgAiIgAiLQeAhIwCqgsfRzXvHnsWPHuvxNDBt0izVmSw4cLitMtXITY/6YZBLFVI+4QKzOV8WEU/ynMzYx0qi6GJd1yulICcQiYVQy0TKivyZpd+eldkwLh12gn4sIjFNkCoVSZXLN7cqNIxmrQiTKkJ9UZVyI87VodR2pZNNRVCGEZlwhM7MOnWKJGErSSbuYzP1XYY2Or1R6L/ougFCMCaRTAprl6HKX+varACOyY/L7oUOH4rHHHlsljFAhhQV0AzSBpjz77LPo2rUrtt1229SugxSAwilvUbPKCFBaAfz0NRZ+8Tk+evM/2HfQKcDGnYEWzYGqKsy/4QZssHwxcMvNQKIKS08ajJJDDsUvVaX4ZvR47PnYfUhOm4H7brwZp496ANhsE6BsJTDncyx5bgJartMBRYNPTTm6Qs2ZlR34YS4WvDYRS0aORLcnn0Ky5/apsOL5P+Dfv/8D9hp5O9C6HWLvvQcc1x/RRNg9Q5iLCqXLMPnAg9H7wVFI9NgS4dJyfDJoELbaY3fg3HOAlSsw44CDsP1dtwI77JYKc+SN7O5/usVSydid/h0vx7IHH0LLnxchcuWlSDLhO19btBLfvfw85v30M3bcbTdEu3cD1muFWLio2q1ZrcQlgQnPjcduu/XC+hush5DLFq9DBERABERABERABERABESgsRCQgFVgI2mhb3QN0X11zz33OMcQw40itgXZKm3mDmW/JmB3u3e5dFUJVFQrO3Q7FScpDIWRSCSRLKoOHXQBOQw5jCEZiqIsFkcoSj9USnSiQFXFLDV0iSSSqAqHXLhgIhlHMReHLtlUGKXhpBO2uItZmE4tuiHilUCx85QgQkHLJYBPoBQxFEe4guUOa1HQdMEwpghKU3ayULO0gEWhiomeqaMVMdE760uGkYxGXBJ4roFdRhwXR0khoDqLtWvlr4cJg5988glmzpyJ4447rsBGXc1pKgReeeUVdO/eHV26dKm+p3lvVbsep8/ElDvuxG779wYOPwxo3QoV0SiSobBLSB6aPx8vH304Drr5diR/uxtCy5diZe8+aHn7XcCmbbH0uMFoO+Q0oHVbYM9dgdZtgKISTLnpFuCxp9ClbUt0GjceiXbrItxsORBrDSwpw4eP/Q3bDTgOr+3XG33G/wtVm9NdlXCurKmnn4pfuvwGy1ZWYMB1I5DYr7czUdFKmYxHEfpyFiYOOR99xzwNrNvGCXDTTzoVOx50ADDo98DcBZjd50Bs8Z9XEO+wsct5xdu1yP3k9lz8dROKFYvxxrnnYZ+LLkdyq67OqOX8lYkIysJxNF++HPhpAWb+5Xast28fbHTMYUi2KHJhiKEEE8KHMeXdKei6xeZYb911nTNThwiIgAiIgAiIgAiIgAiIQOMhIAGrgMbSF6kuuOACXHXVVWjbtm21AyoVMrOKY6h6C/pEtDq/VLUTqyJZjhIqWeUVKdGHSlSUO4GFES5qntq63vK6h+mnYghPIuXGqGLS5yqgVTNUcodDFKcStjNfTYhiUhzRpQDapuxV/F0RYwIry+ASWkVKgGZhlEWSaEZprbQcKC9LbVsYbYPyVs3QjDpT1UqgogJgAulWzbn9mEvo7lxm1Q4s57Ryri/ugMb20f5FoYuJuJoBYQpVFMNS7jKKdqmk8Ks6L3xuu+yyC15//XW0atVKoYMFNPebSlPGjRvncrFtvfXWqXu5+h5GuBT4eDZe+PNwbHfc79C539Epm2FL7iTIkLkihD+bhZcGHIuDX3sHaNMc+PJ7rDhgb7SaOSsVXvjkk/j0ny+gx+OPo6pFSSoksZJqUxj46QdMP7APtjvpJEQuvSoVyle1ErHHJyDad3+grAKv9t0f+736Bqo6b4iiWBWW33QbwosXoeV11yP2xWxE27cFNuzIgEdUhKOpJOkjb8L8khbY4OSTgWgzJ8ZVPvkEPnn2WWz/91H44qIr0K1LR1Redy2SoQRKUIFSNEcz5+NMBRdH7Eb/cCpeH3YV9h3zDNC6OVYkq9CKwjvV8Qq6RRPA0p/wzyHn4uAjT0KLI/sBrUKojKTueD6tJkx8ETvvugs2XKe9HFhN5aZSP0VABERABERABERABJoMAQlYBTTUFFp4LFq0CKeffjrGjB6DMMWn6nUu/QqrHNUilMtLRaWHa9Ui6kgVKFq6FNPO/TN2OvhwLPrkQ7Q/tA+w67aoCJWgmI6F6nVtVZjLyBDClSsx65EnsE3nLTD9puux4y1XAztthyq0dLmjEWHi9Tjw9XdY9vgraHPNyS78pwxJNJ85F1j4JRLPPo9fOnbBBheeg8qiYhRXrMR3Fw9DfNRTWN6yEtuOuBXx0/+ASGUCc/98HRY8+ACisUp0uexCtDnvQsSLS6odYS6ZFpIhCnNJRBIxoKIS8ye8jFbvz0SLPXphxnv/wfaX/smFVsXDqR0NXYhhesfD1LrXbc6WpNsrFVa56JeF+Hz2bPTq1csJCPxSDqwCugkaeVPee+89fPzxxxg4cOCv8y4B52IsZpgsc1/9OA94fwZefXEi9rvkwlQYYDgKzPwQ/z5zCPZ69Q2XiO6bESPReenXiN7+VyBeAkyagFcv+zP2YwL0ddsiHmYAbgSIRxCJlePnO+9Bh/L/z3Z+xUXOELl40ktYr7IcaL8OMGcB3r7leuwx8RUkNmiH8OLFePOkQdj7gguAvfsA5cvhlOdkc1RGwyhOFLkdCL84+AB0Y1L4Lp0RQ9Q9oSKlK4DZnwNTp+DDO+7CdpPfQGz9DRDl8yMeRqIognDs/3Nn0cUZiSOZZA68ClQ9MApVX/yAFjeMQDzE7FZhYDnv2zLMfGwUWn4/H7854ligZw8kW6T2MKQjM0yrllO6Qzjv/HMxfPhwtGnTGqjOL9bIp5S6JwIiIAIiIAIiIAIiIAJNhoAErAIaagop/Jo2bRo6duyITh07VSeH4e5kqcTsLok5k6THYvRGVYfPLUHl94sx//uv0Hn3/Vw43Xdnn46N9t4LRccfC7zyBr6fMAkb33FjykmFZi7ajq6FRBEDEGMIraxALBp2G40tvPIyrLvNLsDxJzrjA8P0QlS8li/FFwNORbd9tgcu+ROQbIGqUAyVc39Gyw6dgE+n4e0b78Qef30QaB0B5v2MFY8+hlbMhVNS4kIFaQiLfjYTyYUrENp1W2DiZLx1013Y8x/3Axu1BxItUiMSjiGZjKZS5jA59YypWHzJX7DOuNFuH8SXDzkYBz34AL6Z8wk23X5nYN0NgGQlO4R4cYgBiWhNA1pxyhhWkkgg4RxkEVww9HzcevvtaQFBebAK6CZo5E2pqKjASSedhKeffhqxWAyRKO/CGEJuV4QwNxlEGYAWiKNoSSnw/if4/tPZ2PioQ4D4Erx8xhk4aPRYIFmGuYf3R6cHHgc2awcsqkL5R5Mx56Lh6DF6DOYXt8YGndZPJWgPlTix6d9/vhp7nXEWsNkGiM2eiehX3wL9DkNVURRFE/+Nt2+7BXuMfgZoUwy8NhkfXXMDtv3Hk0A7hiLGgG/nAu99ipUD+qFleSUwZwamnHQJdnthAtC+LWKh8pSEVRUGpk/Be3fchl1uvBuVnTojHi1H81LupNga5UVAM4YoRquAWEnKUVn2Cz4+5UxsffLZqDxob8RQhRbllZg/+iVs0HYdYKfNgI4dgUSJE6r4LHG7q3q5Af+vvTOBrqo81/C79xkyEcMYBEEMFEQcEBmsYFSkykVwVkS8UhHFAhatSguFIkNpqVUKXpeKQ7uqIsJiUOwtgzKITAIKiL0ICIISpjBmTs6wb9/vP388pCi1DJ4k31lkhSTn7PPvZ+//rPW96/3ej2w7dOiAdevWHTcvsIrfWnp6SkAJKAEloASUgBJQAkqgyhNQASuBLrHNapo8eTIeeOABMSiIP4pdgOK2KhZxKuQEJD3GX5SPI2/OQsahPXCang907wIE6gJbv8TS+3rjqremwWvSCM67s/Hl2+8ha/zT2DtnCs6++U5pOcr78ys46/JOwCWtAH8S09mBLTux4ndj0HH4cKB5U5kUJopZmYP8lyeibM0y1LniFqB/b0QCrgly9hfLBLS834xHWvMW8N1zp8mkmjED+UNGwL29J9LGjkE4g06QGjSEAE4xylCG1IMhfPDEL3H1hD8iVKuOGWQopXzIOK/oLIl6iPTri/yrOqNmvzuB0gA+uLI9rp4+BTirJooXL0bZ7v0INspCSveukLFrVOJCLiJBvxjTkiSvy0Gp46FL585Y8v5C+JkvFHO9qYiVQBuhii9lwoQJePjhh2VAgwlx51TO2HQFui1pmkIELsJwuf+cYoRRA/7iAKJ/m4XwylU4kncUmQ/2AdpchsL/7ofI/fcj/boucMb+HkUlh5E66BdAUQE+79sLjZpmSXnOKMIAABa+SURBVLtduPHZCLa9GnnjxiP64itIHvQ4kn/1BLD0AxSO+DUO7fgStYY9ghp16qFg0mSUHMxFzdtuMq7Nvbk4OH8dzl4xHcg6B6HZf8fRiRORt3sP6o0bjvQ7egJeEopnzIS3fTPc5s2RfMNNiNZIhRt2EcrZDN+dfeF+OAteUm040SCK2S1MsW7bdhx6ciQKFsxH5r33IPl344AkSngR+CJmnmmZj594PgSiARH5+HnoetFjpo1+9tln2LNnD7p27aquyiq+h/T0lIASUAJKQAkoASWgBKonARWwEuy6U8QaNGgQnn/+eRGpTFB6FJ6P5ayDQHEEWL4G+HgNigsPI6XvPUBjOhNSUCyJ5h5SRv0SO3KP4rzxLwLJDiLP/hG+dZtw9PL2ODJtCpr06IrCtDQUfbUTabfcgtQO1wIb/gE8NwFb1q1HiylvAi1aAIEoPCck+VOFy5chLakBtj8zAk363A/ff3VDiT+I5LxD8J6dhMNT3kXtRx8C7uuHaBL7eaJwi5KBtUuxfvDDuLTXLcCQMSj2ASksSr1Y0PqCRTjqlCGt63XimnAZ+B6bXsjZbAgFgNzdCF3RCYEl84FzzgVyd2LpNdfhqr8vBZqeB7ghCYn3Nm7CnjnTkVm/GfxXd4B3QRaiXgC+qN+4PBgL5gPu7d0bLzz7LGrXZk6OactUASvBNkIVXk5OTo4MaJCJmJJv9c0QTTP4k4MQgLATlSEGfrgIRnwi/EajnBQaNgMPaC/k7RsqA9wgJKwuWgCUBSW83fOH4YRLTHOttNNRMYrtBb4Hf6YV0ysVV6P0FUeSEZbDFkvcehhp4tR0UCatenQz+rkQbtOQR+VNBO4wxXbZtyFpSfYxF++f3Yphl8+PALs2I/LWfPie+IXZ37KM2NrCMSepr0wmosLjIAcPpQG6JrnuKCjZ++WzwaGWLk5UGRgR27slJSW4++67wYwxOwhD93QV3kR6akpACSgBJaAElIASUALVkoAKWAl02W3h9cILL2DAgAGSASUFGow5iq1+vs2fY9uLr6FZ9+7AFRfCS6uFaKyg9MkTC/HV9dfj3EceA3p0B/LzsfGhx3Fxx2xgUC/gH5ux+/bb0XDO34GsVggFHTg+D75QCM6yRdjRvz8ye/VE6sjfIuxPBmtKZ38O9q7+CGf/pAd2XX8dGv3pGUQ7Xgq3LBagXlSE3EEDsXPdSrR75x2EmreU9VJPc0uLgVWLUPLM/yB5zmyUSdIPkMyWqa8PYMPMaWj9s/uAVM4lY6qNH5yDyKKe3ouk0jCiSxYiMmYUAovnIRxMh3/ee5j/5G/R9X9nArVqGTGML6AdLP8wsHw91s1+D60mDUUktRZSQzBtS1zUP81kvx4xHL8eNkyD3BPo3q8uS7GOv5dffhldunRBs6bN5N6NsC1Ybk/GtXtw2DsboUDkmuEJbgQ+mcJpJntyJgKVpXzXQzqfyx3nC6EYAQQ8H/wUgjhD1AnC8xz4KYhRynKKEUJKbH+GjQhEIYwZd5IplYRS0ZBDCFKEYsBegC6xMMqcIIKIoNTz4Hf88PEtOFyB4hVb+mJTQuVkXCDiL6P0BicSwZa/TUXTrjfCSc4wb0UtzQ3LuXDPSwOlGWAKz/GMeB+mgG5y6mTxPKYbNVqczKYwgy34NXv2bNStWxfZ2dkihGuuXXXZUXqeSkAJKAEloASUgBJQAtWJgApYCXS1rYD1l7/8BX379kXYCSNAocdzUebzxGDhslgNlyJv3UosfekF9LjzdqBVNrzzMk2OTkkRPu14BS756zREL/oR3E0bsLj/QHR+fQqQ9SPgSAm2dO6AFrPnoLjpecbJwOx3FrwsVqdPxdq5c9Bu8quIpKTAd/Qwlv9qKPZt34j00gCy/u8z/GjleoRaZMqEQlavjFB3Dn2NNTfehvZPTQR+nG2oOnRTuMCXu4Bnfg88PxEhFthOCbD7MOa+8Vd0GzxI3CISUh1zWEi3pMvcLw++smIUTpmO5GXvw/fi6yLjhR64F7ltLkTDnw+G56bBYVb1nr0oXTYXi5Z8iG5DhwHnNgCCLNR9Zuoil+LzKA3gquxsfLh0afmVV6dGAm2CarAUiiuhUEjymhYsWIBM5rdRgxK9OjZKlPvGqtf8lcNphKYNli3F4tLiJEHuMfFKBeEyIJ0ZWsx8o1hFQYmDEOhYig184MeHjDyg8OP4QO8VHwGUGTMV25N5SP5dXJ/8W0gGOITcZHkudeBk+QuPYzLm+Cnii00EZfuvUZR5IMpxPjjREshGdXgMkejMscV+FjLqFS1cjgcTPU+BjEKYI+9HbZqtlSFEEBSHmh/R2FTW1atXS6bYU089hUDAODtVwKoGG0lPUQkoASWgBJSAElACSqDaEVABK4EueSQSgc/nw8aNG6XAPb9NK6Q6ScaNIQHoZaznTPEq1gUGJoexdeo07Fu7BleOfRKoXQMrrumKjn/+K5B1LjBpEnJyduGcZ/4oFWDovWX4/I3JuPi2XkCPbkBQepUAn0+ME753ZiJ3xzbUe2iwvMee9+ahQcfOUkiieB+OXncTMpa8D2TWR8hxJNuZr8X+g3h/4M/wkz89DTRuJEW150TgeFEUzF2CGhlnIdqpLVy6PfYfwbZP16HZNT8G/rEBaNwCXh2287GCFqXJFMpuKdyIh8NzF6P2wpnAH14Bvt6BBd2uw/UfLAXqNQA2b8bbTz+FLvf1Qnq71oA/FUgKAJGAtE2VGjOIlMwUxFzPwZMjR2LUmDHlbYNa7CbQJqgGS7H3G7+3bNkSq1avRq30DICtdtxLrjEcxTSnY6ZrGscSEBQtqxTwguJS8piXJYJVQFrsgjHLEoc/iHglulgEpT4X9DpSCA/76HQMG4HKSzHCj9GQ5EHhS4yNfLEcW8K54MnIUwppbGPkE7izOAyCB/CJg4o/sZVQlimCmBGqon7jIPNboS42nMK+t/luXsB1hx0XEThIilBQ42rpUIuC8XiuP4Bt27Zh6NChmDZtmjqvqsHe0VNUAkpACSgBJaAElIASqN4EVMBKoOtv24vy8/Nxww03YN7SD5DmOnA4scvxISw9goy6MQ4K/i7qReF6RUBekWkFqpMGvPEG4CZJe93H78xC29GjcGDVatRNrwmc1wSFH3+CtHdnI/f+nqhz2bX4ol9ftLjxZuCGbvhk8nO4rN8AqaAPPzkUtdpdBtz7kHm/BfNQ8EB/1Fj8HnDRhSh+YyqKlixEnZEjcfSj1UjOaoKk9pcDu3Px/oAH8JPBPwPqnYP8w0VI5+RCNwVYsRI7B/6cowXFdHXkqqtx8W/HAVu3Yu2MWWg35Ffw0mrE2qSMg8Q5ko99Qwai/uOTsPn3v8T5A/oCbS8HOMHt0D4gKQ0IJAPBWBCP5F2ZLC2aOFgMR70wHMfFx8s+QlJqClpf1kZdGgl071enpdi2N34vLCpCj5t74M033kSDsxtIJpbVe3jripQbGzQgjJwoimJeJ/6NzqRSn3men0JUJCD6r/iW5D8x9UrcjZ6IzpwUyBkLVIhEZBbpyQw7MJ8vRnDi3jECls3o4i9jYrp5uWwzs8NM+6P5XAITs+T31uFpj1P+ZK7PMbl+Rq6OtTjy5aJhR2XpkqtFEY7rZSaXE4WPLYJRyLRWZgWy5TopKUlz7KrTJtJzVQJKQAkoASWgBJSAEqiWBFTASqDLbqcQ0on13HPPoV+f+5F2Vg1EmQnD0fFSEDom/4YFHwOSo3QqRcy0Mi+IiBOFv7AE0fUbURrKR8plrYHU2sDXXwMH9wJtWwNFHrB0DdD5YsCfAaxegYL8I/DqN0J68wuBYAB5m9YhOWcHvJSzkHTFNUBpAYpWrEJqQSEOnF0TtX98NdycA8Bnn2B/koPMNq2BWnUQcZLgKywF1i9DuKQQ/hbtgLqZKEmJINnzo2jtGqTu3hnLtPEDbdsCDRsBu7/Gulcmo83w3wDBZHF80X3hj8TK6p3bkLd9F85qmAm0aCXVNaOvwk4IfhbfIRduQMwgYKNg2HUkuodVcNjlNDcgEoqiU/Y1+PDDpQgGTH6Xtg8m0AaoRkuxIhbv1oK8oxg9ZixuuvlWZGdfZVyW5Q8TDCWpUOKMiik8nMwHH4Ls7gvQmeQgSCEbdFLFBiGY218UIWnDE1nLEVHJEaFJRogascq8pFw0Mt4p7j2TuG70YPMJZPL4jEjG5zFmXvZSbHnf/GA+qChAiVFL1sLcKz9cj+2PnAIam6/glDLhT/ay7Tw2azdtk3SAhaMeXL9xlLHN+sDBAxg4cCDS0tLKg9t1T1ejTaSnqgSUgBJQAkpACSgBJVDtCKiAlUCX3DqwuCRO1ep5822Y9bd34QRZ6EXht+HGkpj8jWPBFIwsJE0ZyW4fMxyMrTzS7CN1IFNnog4LWI4zYwci02nMg8KX4/livgn+zGYdM7qex4pwqqA8x5HXubbQjFW9LGYZFs1jmCmCTLLhWhjJbivjKCJsQ0IUPs+1+c8SVr1x1kw0v7AFklu1Mq1KThQhxyftTjyhqMt1h6RY9jy/icyRjiaWvfR+mGluPLoJgweCrMoRRcSVFB68+867aN+xIzLr1oVLUSCWoZNAt4AupRoRKL//JHAdeOmlV5CzKwejR4/+Rg2Sdjxzb3MPmymFDFXnPuS0P2523vMufB4zpjjQwChgMRNiLI2KO8TIUsYbxc8L7nBjs4pvHTQv96T910zvNHvaqk1WBOO7Gn1JJDFz5Wzfo/yf6+R/Yn8vF9P4CRSbghh7Pj8vpN0xNvPQfJKZB7Ou5DMFDgrzCzD44Z+jZ8870e2GbiJAH28f696uRhtJT1UJKAEloASUgBJQAkqg2hBQASuBLrUtumwW1sqVK7Fjxw7cdddd5U6hyu4YinUnCXXJ5mGRzOwf5nqxJdAXm2x4EteF/MgpntUXX3yBUaNG4bXXXpOcMX0ogUQhEH+/btq0CZMmTcIdd9yBzp07w+/3H+Muokuzqt2/Vrjnd04QjHei8mc+SktLMXPmTPAzcdy4ccjIyEiUy6frUAJKQAkoASWgBJSAElACSuAMEVAB6wyB/nffxhZvdiLh008/jYsuugjdunX7dw+RuM+LdQPFmzQoYJnha5LKHHNznNwpWAHQMjx06BAee+wxaTuyBfHJvYO+WgmcOgLxzkselT9PnToVq1atwk9/+lNceumlIlpZgacquovig+3jyVK4Wr58OV5//XU8+OCD6Nixo7b9nrpbT4+kBJSAElACSkAJKAEloAQqFQEVsBLoclUsTO3Pw4YNQ6dOndC9e/dKXrzFFKwYczsczcwHZJsfW4iOCQD6j6+OFa/y8vLwyCOPiHjF34XDYQl81ocSSBQCdp/be5brsq1xr776KubMmYOxY8fi/PPPF0cWxazK7sSsyN6euz3voqIirF69GiM5MXTUKFx77bXlAl6iXDddhxJQAkpACSgBJaAElIASUAJnloAKWGeW93e+W7wTo2KBykKWuViDBg1KoBV/v6WYzB0JszEPz4MXC6cPe1EEHApYJ/+wDqytW7eC4t/06dOl+K1qrVcnT0qPkGgEKrYR27D3DRs2YMCAAeLI4veq9rDnWVxcLGId3Wdvv/22tAraz0W6J/n/qthGWdWup56PElACSkAJKAEloASUgBI4HQRUwDodVE/xMW3RxqJu+PDhWLRoUblDI16YscLNKX77U3Y4BquXxz0f00cYl9h8gneLd6nFZ+dY5waLXHKYOHGitAuy2E9OTj5l56AHUgI/BAGKNrzfd+/eLY6sl156CYMHD0afPn0QCARkSXwOH7ZN9ts+D+yx+LyTdXJVdI/Zfch1HO//9vllZWXlTsiCggKZujpv3jw8+uij4jatW7dueRaWPdYPwV3fUwkoASWgBJSAElACSkAJKIHEIaACVuJci+OuxDoTWAyyID148CDGjx+Pdu3aoXfv3v/ympMtSE8nDjMR8ZvpYt84sWLveswfv3sl8UKWbT+yBT6L4CFDhqBDhw5ykERmcjp567GrDoGK4lQoFMLnn3+OTz75BCtWrBCR9p577kH79u2POenvEpHsvrBC8PfdJ8dzjNoMPy7i28LZKV4tXLgQ06ZNQ82aNZGdnY1LLrkETZs2LRe9rLj2n66t6lx5PRMloASUgBJQAkpACSgBJaAELAEVsBL4XrDFYHwhaIOc58+fL06Mu+++WwrAStFa4wFeXMRV+X/j3VjfMwLLstm/f7+4OFj4jhgxojwnyPJK4MusS1MC30kgfv/ziXZSnxWn+D0nJwcfffQRtm3bhqNHj8rUvjZt2kgA/AUXXFCeHxX/GisyVfzdiS7Hd4lK8Y4srpNC26effoq1a9eCk0BTUlKkLZCDKSi21apVq3zKYkUXpW35rZgNeKL16d+VgBJQAkpACSgBJaAElIASqJoEVMBK4OsaXyjGux3i3RjMxtqyZQt69OghrTcJnfMUN4WQ7YQMwzKmK0nG+t7x7eSwc+dOzJ49GxSwmA/WuHFjc2TPqGLf11WSwLeDLq0aE6goDMV/HliR1ro1iYkCFt1ZzM7avHkzatSoIS4tfqfrqUGDBqhXr5606lFESk9P/7f3il0LByLk5+eDUz75tXfvXtmHR44cQWFhofyNz6G7qm3btmjZsqWE0NsWRyvQ01lqHVfx7Y32cqsIXY1vfD11JaAElIASUAJKQAkoASUQR0AFrEp+O9iilWPmFy9ejLvuukta52rXrn2MgFPRzWXFnYptQGfS7WBD3fmd/yg22XXGT2Sza7IODf68fv16zJo1Swr1J554QopxG/KsolUlv6l1+aeNAPfOnj17RNTavn27fDFXi8JTamoq0tLSROgKBoOSrWXFJgpRFJo4SIJ7ji4v7lEKYRSN+cUpic2bNxdBTPfiabuEemAloASUgBJQAkpACSgBJVBtCaiAVckvvXUv2MlcdCQx/4kFZf/+/aXApLsi/hEv8FjHA393potOK1LF5/TEu0ls7hfXxQKaRfaCBQswYcIEjB49Grfeeuu/TChT8aqS39C6/NNKID5T73j5WHZPxn8WxO/TEy0uXgA/k2L4idalf1cCSkAJKAEloASUgBJQAkqg8hNQAauSX8OKQck8HYo9bCWkS+nxxx8XN8WYMWPEmcVilKIX3RW2MLXi1w/VdhdfVHNtbDOyDxtaz7wvZlsxqJqFd3zxHf8annv86yv55dXlK4FTTqBiIDzfID58nfuJezK+HflEwnC8Y9Iu+ESvOeUnpgdUAkpACSgBJaAElIASUAJKoEoTUAGrkl/e4wU8xxek/DuzaA4cOIC5c+dixowZaNiwIfr06YMuXbpIoUoxq2Ir4ZnAUtGtwcKZLU1vvfWWTCi78cYb0atXL3GTMbfH5uTYtVGsYpEcX2jHF+Jn4hz0PZRAZSJwIjdV/J6Mz6biOX6bo+rbXFfqwKpMd4auVQkoASWgBJSAElACSkAJJD4BFbAS/xqdkhXGF5O5ubn46quvZGIZs3C2bt0qDowrr7wSrVu3li/m4VR8VCxIj1egftvv7LFsWyDfmyHTy5cvx759+5CVlSUZOs2aNUOTJk1EtKIw9UO5wk4JdD2IEkhwAqdTZDqdx05wrLo8JaAElIASUAJKQAkoASWgBE4DARWwTgPURD+kLSzjxaG8vDwRtHbt2iXiVlFRUXlgM51O/KLIlZGRIV8UuJKSkqQ90bYK8TkMeC4uLhbXF6eRhUIhcXhRjOJz+Rq+tn79+iJSUbDKzMwUZPY4Ngcr0Tnq+pSAElACSkAJKAEloASUgBJQAkpACSiBM0Pg/wHOK6JSlvBHowAAAABJRU5ErkJggg==;" parent="quSnQ69y9P9mMpLwy6SE-218" vertex="1">
          <mxGeometry x="9.930000000000007" y="7.5" width="140.13" height="55" as="geometry" />
        </mxCell>
        <mxCell id="quSnQ69y9P9mMpLwy6SE-220" value="JMT" style="text;html=1;align=center;verticalAlign=middle;whiteSpace=wrap;rounded=0;fontFamily=Times New Roman;" parent="1" vertex="1">
          <mxGeometry x="160" y="185" width="60" height="30" as="geometry" />
        </mxCell>
        <mxCell id="quSnQ69y9P9mMpLwy6SE-222" value="" style="endArrow=classic;html=1;rounded=0;" parent="1" source="quSnQ69y9P9mMpLwy6SE-1" edge="1">
          <mxGeometry width="50" height="50" relative="1" as="geometry">
            <mxPoint x="510" y="300" as="sourcePoint" />
            <mxPoint x="580" y="250" as="targetPoint" />
          </mxGeometry>
        </mxCell>
        <mxCell id="j1_5jJ_qBEQqkcdEm2Qp-1" value="" style="rounded=1;whiteSpace=wrap;html=1;fillColor=#dae8fc;strokeColor=#6c8ebf;" vertex="1" parent="1">
          <mxGeometry x="590" y="205" width="60" height="90" as="geometry" />
        </mxCell>
        <mxCell id="j1_5jJ_qBEQqkcdEm2Qp-2" value="JmtERC721" style="text;html=1;align=center;verticalAlign=middle;whiteSpace=wrap;rounded=0;fontFamily=Times New Roman;" vertex="1" parent="1">
          <mxGeometry x="590" y="175" width="60" height="30" as="geometry" />
        </mxCell>
        <mxCell id="j1_5jJ_qBEQqkcdEm2Qp-3" value="1. Chiama mint(P&lt;sub&gt;t&lt;/sub&gt;, AP&lt;sub&gt;t&lt;/sub&gt;)" style="text;html=1;align=center;verticalAlign=middle;whiteSpace=wrap;rounded=0;fontFamily=Times New Roman;" vertex="1" parent="1">
          <mxGeometry x="440" y="224" width="120" height="30" as="geometry" />
        </mxCell>
        <mxCell id="j1_5jJ_qBEQqkcdEm2Qp-4" value="" style="endArrow=classic;html=1;rounded=0;" edge="1" parent="1">
          <mxGeometry width="50" height="50" relative="1" as="geometry">
            <mxPoint x="660" y="250" as="sourcePoint" />
            <mxPoint x="400" y="310" as="targetPoint" />
            <Array as="points">
              <mxPoint x="710" y="250" />
              <mxPoint x="710" y="340" />
              <mxPoint x="400" y="340" />
            </Array>
          </mxGeometry>
        </mxCell>
        <mxCell id="j1_5jJ_qBEQqkcdEm2Qp-5" value="2. Verifica che JmtERC721 == prevRoot(AP&lt;sub&gt;t&lt;/sub&gt;)" style="text;html=1;align=center;verticalAlign=middle;whiteSpace=wrap;rounded=0;fontFamily=Times New Roman;" vertex="1" parent="1">
          <mxGeometry x="450" y="340" width="230" height="30" as="geometry" />
        </mxCell>
        <mxCell id="j1_5jJ_qBEQqkcdEm2Qp-7" value="3. Se sì, aggiorna la root JmtRoot = computeRoot(P&lt;sub&gt;t&lt;/sub&gt;)" style="text;html=1;align=center;verticalAlign=middle;whiteSpace=wrap;rounded=0;fontFamily=Times New Roman;" vertex="1" parent="1">
          <mxGeometry x="430" y="360" width="270" height="30" as="geometry" />
        </mxCell>
      </root>
    </mxGraphModel>
  </diagram>
</mxfile>
